STARTFONT 2.3
FONT -FontForge-Open Sans-Bold-R-Normal-Sans--28-280-72-72-P-173-ISO10646-1
SIZE 28 72 72  4
FONTBOUNDINGBOX 55 38 -18 -8
COMMENT "Generated by fontforge, http://fontforge.sourceforge.net"
COMMENT "Digitized data copyright (c) 2010-2011, Google Corporation."
STARTPROPERTIES 41
FOUNDRY "FontForge"
FAMILY_NAME "Open Sans"
WEIGHT_NAME "Bold"
SLANT "R"
SETWIDTH_NAME "Normal"
ADD_STYLE_NAME "Sans"
PIXEL_SIZE 28
POINT_SIZE 280
RESOLUTION_X 72
RESOLUTION_Y 72
SPACING "P"
AVERAGE_WIDTH 173
CHARSET_REGISTRY "ISO10646"
CHARSET_ENCODING "1"
FONTNAME_REGISTRY ""
CHARSET_COLLECTIONS "ISO8859-2 ISO8859-5 ISO8859-7 ISO8859-9 ISO8859-4 ISO10646-1"
BITS_PER_PIXEL 4
FONT_NAME "OpenSans-Bold"
FACE_NAME "Open Sans Bold"
COPYRIGHT "Digitized data copyright (c) 2010-2011, Google Corporation."
FONT_VERSION "1.10"
FONT_ASCENT 22
FONT_DESCENT 6
UNDERLINE_POSITION -3
UNDERLINE_THICKNESS 2
X_HEIGHT 14
CAP_HEIGHT 19
RAW_ASCENT 799
RAW_DESCENT 200
NORM_SPACE 7
RELATIVE_WEIGHT 70
RELATIVE_SETWIDTH 50
SUPERSCRIPT_X 0
SUPERSCRIPT_Y 13
SUPERSCRIPT_SIZE 18
SUBSCRIPT_X 0
SUBSCRIPT_Y 3
SUBSCRIPT_SIZE 18
FIGURE_WIDTH 16
AVG_LOWERCASE_WIDTH 174
AVG_UPPERCASE_WIDTH 198
ENDPROPERTIES
CHARS 938
STARTCHAR space
ENCODING 32
SWIDTH 259 0
DWIDTH 7 0
BBX 1 1 0 0
BITMAP
00
ENDCHAR
STARTCHAR exclam
ENCODING 33
SWIDTH 286 0
DWIDTH 8 0
BBX 6 20 1 0
BITMAP
5FFFF5
4FFFF5
3FFFF4
2FFFF3
2FFFF2
1FFFF1
0FFFF1
0EFFF0
0DFFE0
0DFFD0
0CFFC0
0BFFC0
0AFFB0
000000
000000
049930
2FFFF2
5FFFF5
4FFFF3
08EE80
ENDCHAR
STARTCHAR quotedbl
ENCODING 34
SWIDTH 472 0
DWIDTH 13 0
BBX 11 7 1 13
BITMAP
2FFF906FFF50
1FFF804FFF40
0FFF703FFF30
0EFF502FFF20
0CFF401FFF10
0BFF300FFE00
0AFF200DFD00
ENDCHAR
STARTCHAR numbersign
ENCODING 35
SWIDTH 645 0
DWIDTH 18 0
BBX 18 20 0 0
BITMAP
0000007FF800CFF300
000000AFF500EFF000
000000DFF202FFC000
000000FFF005FFA000
000003FFC007FF7000
000005FFA00AFF4000
06FFFFFFFFFFFFFFF7
06FFFFFFFFFFFFFFF7
05DDDFFFDDDFFEDDD6
00001FFD007FF80000
00004FFA00AFF50000
00007FF700DFF20000
6FFFFFFFFFFFFFFF80
6FFFFFFFFFFFFFFF80
5CCDFFFCCEFFECCC70
0004FFB00AFF500000
0007FF800DFF200000
000AFF501FFE000000
000DFF104FFB000000
001FFD007FF8000000
ENDCHAR
STARTCHAR dollar
ENCODING 36
SWIDTH 570 0
DWIDTH 16 0
BBX 14 23 1 -2
BITMAP
000000EE000000
000000EE000000
0006ADFFECA620
03DFFFFFFFFFF6
2EFFFFFFFFFFF2
8FFFE9EF7ADFB0
BFFF60EE000330
BFFF80EE000000
8FFFFAEE000000
1EFFFFFF610000
02DFFFFFFE8100
0017EFFFFFFE40
000005FFFFFFF3
000000EF9FFFFA
000000EE06FFFD
740000EE05FFFD
CFEA74EF7EFFFA
CFFFFFFFFFFFE2
BFFFFFFFFFFD40
048BDFFFDA6100
000000EE000000
000000EE000000
000000EE000000
ENDCHAR
STARTCHAR percent
ENCODING 37
SWIDTH 900 0
DWIDTH 25 0
BBX 25 20 0 0
BITMAP
0018DFD910000000CFF7000000
00CFFFFFD1000005FFD1000000
07FFFEFFF900000DFF60000000
0CFFC09FFE00007FFC00000000
0FFF704FFF3001EFF400000000
1FFF502FFF5008FFB000000000
2FFF501FFF502FFF3000000000
1FFF502FFF50AFF918DFD91000
0EFF704FFF33FFE2CFFFFFD100
0BFFC09FFE0CFF87FFFEFFF900
06FFFEFFF95FFE1CFFC09FFE00
00BFFFFFD2DFF60FFF704FFF30
0018DFE927FFC01FFF502FFF50
000000001EFF402FFF501FFF50
000000008FFB001FFF502FFF50
00000002FFF3000EFF704FFF30
0000000AFF90000BFFB09FFE00
0000003FFE200006FFFEFFF900
000000BFF8000000BFFFFFD100
000005FFE100000018DFE92000
ENDCHAR
STARTCHAR ampersand
ENCODING 38
SWIDTH 750 0
DWIDTH 21 0
BBX 20 20 1 0
BITMAP
00006BEFEC8100000000
001CFFFFFFFE30000000
00AFFFFFFFFFD0000000
01FFFF846EFFF3000000
02FFFB000AFFF3000000
01FFFD001DFFF1000000
00BFFF73CFFF90000000
003FFFFFFFFC10000000
0008FFFFFFA100000000
005EFFFFF900005FFFF1
07FFFFFFFF6000AFFFB0
2FFFFC9FFFF701EFFF50
9FFFE108FFFF78FFFE00
CFFF90007FFFFFFFF600
DFFF900007FFFFFFC000
BFFFE300009FFFFF3000
7FFFFFA89CFFFFFF8000
0CFFFFFFFFFFFFFFF800
01BFFFFFFFFFCBFFFF80
0004ADEFEC9400AFFFF8
ENDCHAR
STARTCHAR quotesingle
ENCODING 39
SWIDTH 266 0
DWIDTH 7 0
BBX 5 7 1 13
BITMAP
2FFF90
1FFF80
0FFF70
0EFF50
0CFF40
0BFF30
0AFF20
ENDCHAR
STARTCHAR parenleft
ENCODING 40
SWIDTH 338 0
DWIDTH 9 0
BBX 8 24 1 -4
BITMAP
0002EFF5
000CFFB0
007FFF20
01EFFA00
06FFF400
0CFFD000
2FFF8000
6FFF5000
9FFF1000
BFFE0000
CFFD0000
DFFC0000
DFFC0000
CFFD0000
BFFE0000
9FFF1000
6FFF4000
3FFF8000
0DFFC000
07FFF300
01EFF900
008FFE20
000CFFA0
0002EFF5
ENDCHAR
STARTCHAR parenright
ENCODING 41
SWIDTH 338 0
DWIDTH 9 0
BBX 8 24 1 -4
BITMAP
DFF90000
4FFF4000
09FFE100
02FFF700
00BFFD00
005FFF50
001FFF90
000CFFD0
0009FFF1
0007FFF3
0006FFF5
0005FFF5
0004FFF5
0005FFF5
0006FFF3
0008FFF1
000BFFE0
001FFFA0
005FFF50
00BFFE00
02FFF700
09FFE100
3FFF5000
CFF90000
ENDCHAR
STARTCHAR asterisk
ENCODING 42
SWIDTH 544 0
DWIDTH 15 0
BBX 15 13 0 8
BITMAP
000002FFF5000000
000000FFF4000000
000000DFF2000000
032000CFF0001400
0BFC84AFE37BFF10
0EFFFFFFFFFFFF30
1FFFFFFFFFFFFF50
01234DFFFE543100
00006FFFFF900000
0002EFF5FFF50000
001CFFC09FFE2000
003DFF502FFF6000
00006C0008920000
ENDCHAR
STARTCHAR plus
ENCODING 43
SWIDTH 570 0
DWIDTH 16 0
BBX 14 15 1 2
BITMAP
00000255200000
000008FF700000
000008FF700000
000008FF700000
000008FF700000
000008FF700000
CFFFFFFFFFFFFC
CFFFFFFFFFFFFC
CFFFFFFFFFFFFC
000008FF700000
000008FF700000
000008FF700000
000008FF700000
000008FF700000
00000244200000
ENDCHAR
STARTCHAR comma
ENCODING 44
SWIDTH 290 0
DWIDTH 8 0
BBX 7 7 0 -4
BITMAP
00DFFF30
00FFFE00
03FFF900
06FFF400
09FFD000
0CFF8000
1FFF2000
ENDCHAR
STARTCHAR hyphen
ENCODING 45
SWIDTH 321 0
DWIDTH 9 0
BBX 9 4 0 5
BITMAP
3FFFFFFF30
3FFFFFFF30
3FFFFFFF30
1666666610
ENDCHAR
STARTCHAR period
ENCODING 46
SWIDTH 285 0
DWIDTH 8 0
BBX 6 5 1 0
BITMAP
049930
2FFFF2
5FFFF5
4FFFF3
08EE80
ENDCHAR
STARTCHAR slash
ENCODING 47
SWIDTH 413 0
DWIDTH 12 0
BBX 12 20 0 0
BITMAP
00000008FFF4
0000000EFFD0
0000004FFF80
000000AFFF20
000001FFFB00
000006FFF600
00000CFFE100
00002FFFA000
00008FFF4000
0000DFFD0000
0004FFF80000
000AFFF20000
001EFFC00000
006FFF600000
00BFFF100000
02FFFA000000
08FFF4000000
0DFFE0000000
4FFF80000000
9FFF30000000
ENDCHAR
STARTCHAR zero
ENCODING 48
SWIDTH 570 0
DWIDTH 16 0
BBX 14 20 1 0
BITMAP
00029DEEC82000
006FFFFFFFE400
04FFFFFFFFFE20
0DFFFE88EFFFB0
4FFFF2003FFFF2
8FFFA0000BFFF7
BFFF700007FFFA
DFFF500005FFFC
EFFF400004FFFE
EFFF300004FFFE
EFFF300003FFFE
EFFF400004FFFE
DFFF500005FFFD
AFFF700007FFFB
7FFFA0000BFFF8
3FFFE2002FFFF3
0CFFFD77EFFFC0
03FFFFFFFFFF40
005EFFFFFFF600
00028DEED92000
ENDCHAR
STARTCHAR one
ENCODING 49
SWIDTH 570 0
DWIDTH 16 0
BBX 11 20 1 0
BITMAP
0000008FFF80
00001BFFFF80
0003DFFFFF80
005EFFFFFF80
08FFFFDFFF80
2EFFF69FFF80
04FE409FFF80
005200AFFF80
000000AFFF80
000000AFFF80
000000AFFF80
000000AFFF80
000000AFFF80
000000AFFF80
000000AFFF80
000000AFFF80
000000AFFF80
000000AFFF80
000000AFFF80
000000AFFF80
ENDCHAR
STARTCHAR two
ENCODING 50
SWIDTH 570 0
DWIDTH 16 0
BBX 15 20 1 0
BITMAP
0004ADEFDA400000
04DFFFFFFFFA0000
7FFFFFFFFFFF9000
6FFFFB99EFFFF200
08FB20002EFFF600
005000000BFFF800
000000000BFFF600
000000001EFFF200
000000009FFFB000
00000006FFFF3000
0000005FFFF60000
000005FFFF700000
00005FFFF7000000
0005FFFF60000000
005FFFF500000000
05FFFE4000000000
5FFFFC8888888810
DFFFFFFFFFFFFF10
DFFFFFFFFFFFFF10
DFFFFFFFFFFFFF10
ENDCHAR
STARTCHAR three
ENCODING 51
SWIDTH 570 0
DWIDTH 16 0
BBX 14 20 1 0
BITMAP
0049CEFEDA4000
4DFFFFFFFFFB10
8FFFFFFFFFFFB0
1DFFB779EFFFF2
039200002FFFF4
000000000DFFF3
000000001FFFD0
00000025CFFE40
000DFFFFFFC300
000DFFFFFA4000
000DFFFFFFFD40
00034458DFFFE3
000000001DFFFA
0000000009FFFD
000000000AFFFD
720000003EFFFB
EFB86569EFFFF5
EFFFFFFFFFFFB0
EFFFFFFFFFF900
16ADEFFEB82000
ENDCHAR
STARTCHAR four
ENCODING 52
SWIDTH 570 0
DWIDTH 16 0
BBX 16 20 0 0
BITMAP
000000002EFFF200
00000000BFFFF200
00000006FFFFF200
0000002EFFFFF200
000000BFFFFFF200
000005FFBDFFF200
00001EFF3EFFF200
0000AFF90EFFF200
0005FFE10FFFF200
001EFF600FFFF200
00AFFB000FFFF200
05FFF2000FFFF200
1EFF80000FFFF200
7FFFFFFFFFFFFFF8
8FFFFFFFFFFFFFF8
8FFFFFFFFFFFFFF8
244444444FFFF642
000000000FFFF200
000000000FFFF200
000000000FFFF200
ENDCHAR
STARTCHAR five
ENCODING 53
SWIDTH 570 0
DWIDTH 16 0
BBX 14 20 1 0
BITMAP
08FFFFFFFFFF50
09FFFFFFFFFF50
0AFFFFFFFFFF50
0BFFFA99999930
0CFFF200000000
0EFFF000000000
0FFFE000000000
1FFFFDEFEB5000
2FFFFFFFFFFB10
3FFFFFFFFFFFB0
06C9878BFFFFF4
000000005FFFF8
000000000BFFFA
0000000009FFFA
000000000BFFF9
540000005FFFF5
9FEA878BFFFFE1
9FFFFFFFFFFF50
9FFFFFFFFFE400
16ADEFEDA61000
ENDCHAR
STARTCHAR six
ENCODING 54
SWIDTH 570 0
DWIDTH 16 0
BBX 15 20 1 0
BITMAP
0000038CDEFE9000
0002BFFFFFFFA000
003EFFFFFFFFA000
01EFFFFB76565000
09FFFB2000000000
1FFFD10000000000
6FFF500000000000
9FFF13AEFDA30000
CFFE5FFFFFFF6000
EFFEEFFFFFFFF300
EFFFFC648FFFFA00
FFFFB00007FFFE00
EFFF400002FFFF10
DFFF400001FFFF10
9FFF800003FFFF00
5FFFE20009FFFC00
0CFFFE77BFFFF600
03FFFFFFFFFFC000
004EFFFFFFFC1000
00017CEFEB500000
ENDCHAR
STARTCHAR seven
ENCODING 55
SWIDTH 570 0
DWIDTH 16 0
BBX 16 20 0 0
BITMAP
4FFFFFFFFFFFFFF1
4FFFFFFFFFFFFFF1
4FFFFFFFFFFFFFF1
2888888888CFFFB0
0000000000CFFF40
0000000004FFFD00
000000000BFFF600
000000003FFFE100
00000000AFFF8000
00000002FFFF2000
00000008FFFA0000
0000001EFFF40000
0000007FFFC00000
000000EFFF500000
000006FFFE000000
00000DFFF7000000
00004FFFF1000000
0000BFFF90000000
0003FFFF30000000
000AFFFB00000000
ENDCHAR
STARTCHAR eight
ENCODING 56
SWIDTH 570 0
DWIDTH 16 0
BBX 14 20 1 0
BITMAP
0005ADFFDA5000
01BFFFFFFFFB10
0BFFFFFFFFFFB0
3FFFF8228FFFF3
6FFFB0000BFFF5
4FFFA0000AFFF4
1EFFF4003FFFE1
08FFFF88FFFF70
009FFFFFFFF700
0009FFFFFF4000
019FFFFFFFF700
0BFFFE8BFFFF90
6FFFD2005EFFF5
CFFF300004FFFC
EFFE000000EFFF
EFFF200003FFFE
BFFFD5236DFFFA
4FFFFFFFFFFFE2
05EFFFFFFFFD30
0017BEFFDB6000
ENDCHAR
STARTCHAR nine
ENCODING 57
SWIDTH 570 0
DWIDTH 16 0
BBX 15 20 0 0
BITMAP
00005AEFEC710000
001BFFFFFFFE3000
00CFFFFFFFFFF300
06FFFFB78EFFFC00
0CFFF90002EFFF40
0FFFF200008FFF90
1FFFF000004FFFC0
1FFFF100004FFFE0
0EFFF60000BFFFF0
0AFFFF846CFFFFE0
03FFFFFFFFEFFFE0
006FFFFFFF5EFFC0
0003AEFEA32FFF90
00000000006FFF60
0000000001DFFE10
000000002BFFF900
0066557AEFFFD100
00BFFFFFFFFE3000
00BFFFFFFFB20000
009EFEDC83000000
ENDCHAR
STARTCHAR colon
ENCODING 58
SWIDTH 285 0
DWIDTH 8 0
BBX 6 15 1 0
BITMAP
08EE80
4FFFF3
5FFFF5
2FFFE2
039930
000000
000000
000000
000000
000000
049930
2FFFF2
5FFFF5
4FFFF3
08EE80
ENDCHAR
STARTCHAR semicolon
ENCODING 59
SWIDTH 290 0
DWIDTH 8 0
BBX 7 19 0 -4
BITMAP
008EE800
04FFFF30
05FFFF50
02FFFE20
00399300
00000000
00000000
00000000
00000000
00000000
00000000
00000000
00DFFF30
00FFFE00
03FFF900
06FFF400
09FFD000
0CFF8000
1FFF2000
ENDCHAR
STARTCHAR less
ENCODING 60
SWIDTH 570 0
DWIDTH 16 0
BBX 14 15 1 3
BITMAP
00000000000015
000000000017EC
0000000017EFFC
00000017EFFFFA
000017EFFFFB40
0017EFFFFA3000
17EFFFE9200000
CFFFE810000000
CFFFE820000000
4AFFFFFB500000
0029EFFFFD8200
000017DFFFFFA4
00000005CFFFFC
0000000003AFFC
0000000000028B
ENDCHAR
STARTCHAR equal
ENCODING 61
SWIDTH 570 0
DWIDTH 16 0
BBX 14 8 1 6
BITMAP
CFFFFFFFFFFFFC
CFFFFFFFFFFFFC
CFFFFFFFFFFFFC
00000000000000
00000000000000
CFFFFFFFFFFFFC
CFFFFFFFFFFFFC
CFFFFFFFFFFFFC
ENDCHAR
STARTCHAR greater
ENCODING 62
SWIDTH 570 0
DWIDTH 16 0
BBX 14 15 1 3
BITMAP
51000000000000
CE710000000000
CFFE7100000000
AFFFFE71000000
04BFFFFE710000
0003AFFFFE7100
0000029EFFFE71
000000018EFFFB
000000028EFFFC
000005BFFFFFA3
0028EFFFFE9200
4AFFFFFD710000
CFFFFC50000000
CFFA3000000000
B8200000000000
ENDCHAR
STARTCHAR question
ENCODING 63
SWIDTH 477 0
DWIDTH 13 0
BBX 13 20 0 0
BITMAP
0159CEFEC81000
7EFFFFFFFFE400
8FFFFFFFFFFE20
1EFD9669EFFF70
064000006FFFA0
000000005FFF90
00000001CFFF50
0000002CFFFB00
000005EFFFB100
00005FFFF70000
0000DFFE400000
0002FFF8000000
0003FFF6000000
00000000000000
00000000000000
00005981000000
0006FFFC000000
0009FFFF100000
0007FFFE000000
0001AED5000000
ENDCHAR
STARTCHAR at
ENCODING 64
SWIDTH 896 0
DWIDTH 25 0
BBX 23 22 1 -2
BITMAP
000000027ADEFEC950000000
000002AFFFFFFFFFFD500000
00005EFFFEB99ADFFFF90000
0006FFFC50000003AFFF8000
004FFF800000000006FFF400
01DFF80018CEFDC9609FFC00
07FFC004EFFFFFFFF11EFF30
0DFF403FFFE98AFFF009FF70
3FFD00CFFC1002FFF006FF90
6FFA03FFF30003FFE005FFA0
8FF806FFD00004FFD005FFA0
9FF707FFB00005FFC006FF90
8FF706FFC00008FFC009FF60
7FF903FFF3002EFFD01DFF10
5FFC00BFFE99EFFFFACFF900
1FFF302DFFFFFF6EFFFFC100
0AFFB0018DFEA304CED81000
02FFF9000000000000000000
006FFFC4000000037A000000
0007FFFFEBA9ACEFFD000000
00003BFFFFFFFFFFFC000000
00000038BDEFEDB840000000
ENDCHAR
STARTCHAR A
ENCODING 65
SWIDTH 689 0
DWIDTH 19 0
BBX 20 20 0 0
BITMAP
0000002FFFFF60000000
0000007FFFFFB0000000
000000CFFFFFF2000000
000003FFFCFFF7000000
000008FFF5EFFC000000
00000DFFF1AFFF300000
00004FFFB06FFF800000
00009FFF601FFFD00000
0000EFFF200CFFF40000
0004FFFC0007FFF90000
000AFFF80002FFFE0000
001EFFF30000DFFF5000
005FFFFFFFFFFFFFA000
00BFFFFFFFFFFFFFE100
01FFFFFFFFFFFFFFF500
06FFFF8888888DFFFB00
0CFFFB00000006FFFF10
2FFFF600000001FFFF60
7FFFF100000000BFFFC0
CFFFB0000000006FFFF2
ENDCHAR
STARTCHAR B
ENCODING 66
SWIDTH 671 0
DWIDTH 19 0
BBX 16 20 2 0
BITMAP
7FFFFFFFECA61000
7FFFFFFFFFFFE400
7FFFFFFFFFFFFF20
7FFFD7789EFFFF90
7FFFB00001DFFFC0
7FFFB000009FFFC0
7FFFB00000AFFFA0
7FFFB00027FFFF40
7FFFFFFFFFFFF800
7FFFFFFFFFFE5000
7FFFFFFFFFFFFB10
7FFFD5567BFFFFA0
7FFFB000008FFFF1
7FFFB000002FFFF4
7FFFB000003FFFF5
7FFFB00000AFFFF3
7FFFD8889DFFFFD0
7FFFFFFFFFFFFF50
7FFFFFFFFFFFE500
7FFFFFFFFEB71000
ENDCHAR
STARTCHAR C
ENCODING 67
SWIDTH 637 0
DWIDTH 18 0
BBX 16 20 1 0
BITMAP
0000016BDFFDB720
00006EFFFFFFFFF9
0009FFFFFFFFFFF6
007FFFFFB99BFFE1
02FFFFD300001780
09FFFF3000000000
0EFFF90000000000
2FFFF40000000000
4FFFF10000000000
5FFFF00000000000
5FFFF00000000000
4FFFF10000000000
3FFFF30000000000
0EFFF80000000000
0AFFFE1000000000
04FFFFC200000161
00BFFFFFB98ADFF2
001DFFFFFFFFFFF2
0001AFFFFFFFFFF2
0000038CEFEDB830
ENDCHAR
STARTCHAR D
ENCODING 68
SWIDTH 740 0
DWIDTH 21 0
BBX 18 20 2 0
BITMAP
7FFFFFFEDB83000000
7FFFFFFFFFFFB20000
7FFFFFFFFFFFFE4000
7FFFD7789DFFFFE300
7FFFB000007FFFFC00
7FFFB0000007FFFF50
7FFFB0000000DFFF90
7FFFB00000009FFFD0
7FFFB00000006FFFF0
7FFFB00000005FFFF1
7FFFB00000005FFFF1
7FFFB00000006FFFE0
7FFFB00000009FFFC0
7FFFB0000001EFFF80
7FFFB0000009FFFF30
7FFFB000019FFFFB00
7FFFD888BEFFFFE200
7FFFFFFFFFFFFD3000
7FFFFFFFFFFF910000
7FFFFFFEDA61000000
ENDCHAR
STARTCHAR E
ENCODING 69
SWIDTH 560 0
DWIDTH 16 0
BBX 12 20 2 0
BITMAP
7FFFFFFFFFFF
7FFFFFFFFFFF
7FFFFFFFFFFF
7FFFD7777777
7FFFB0000000
7FFFB0000000
7FFFB0000000
7FFFB0000000
7FFFFFFFFFF8
7FFFFFFFFFF8
7FFFFFFFFFF8
7FFFD7777774
7FFFB0000000
7FFFB0000000
7FFFB0000000
7FFFB0000000
7FFFD8888888
7FFFFFFFFFFF
7FFFFFFFFFFF
7FFFFFFFFFFF
ENDCHAR
STARTCHAR F
ENCODING 70
SWIDTH 548 0
DWIDTH 15 0
BBX 12 20 2 0
BITMAP
7FFFFFFFFFFF
7FFFFFFFFFFF
7FFFFFFFFFFF
7FFFD7777777
7FFFA0000000
7FFFA0000000
7FFFA0000000
7FFFA0000000
7FFFA0000000
7FFFFFFFFFF7
7FFFFFFFFFF7
7FFFFFFFFFF7
7FFFC7777773
7FFFA0000000
7FFFA0000000
7FFFA0000000
7FFFA0000000
7FFFA0000000
7FFFA0000000
7FFFA0000000
ENDCHAR
STARTCHAR G
ENCODING 71
SWIDTH 724 0
DWIDTH 20 0
BBX 17 20 1 0
BITMAP
00000048CDEFEC9500
00003CFFFFFFFFFFC0
0006FFFFFFFFFFFF70
005FFFFFEB98ADFF10
01EFFFF91000003600
08FFFF800000000000
0DFFFC000000000000
2FFFF6000000000000
4FFFF2000000000000
5FFFF0000DFFFFFFF0
5FFFF0000DFFFFFFF0
4FFFF1000DFFFFFFF0
3FFFF40007889FFFF0
0EFFF90000002FFFF0
0AFFFE2000002FFFF0
04FFFFD300002FFFF0
00AFFFFFC989CFFFF0
001CFFFFFFFFFFFFF0
00019FFFFFFFFFFFF0
0000028BDFEDCB8410
ENDCHAR
STARTCHAR H
ENCODING 72
SWIDTH 765 0
DWIDTH 21 0
BBX 17 20 2 0
BITMAP
7FFFB00000005FFFD0
7FFFB00000005FFFD0
7FFFB00000005FFFD0
7FFFB00000005FFFD0
7FFFB00000005FFFD0
7FFFB00000005FFFD0
7FFFB00000005FFFD0
7FFFB00000005FFFD0
7FFFFFFFFFFFFFFFD0
7FFFFFFFFFFFFFFFD0
7FFFFFFFFFFFFFFFD0
7FFFD8888888AFFFD0
7FFFB00000005FFFD0
7FFFB00000005FFFD0
7FFFB00000005FFFD0
7FFFB00000005FFFD0
7FFFB00000005FFFD0
7FFFB00000005FFFD0
7FFFB00000005FFFD0
7FFFB00000005FFFD0
ENDCHAR
STARTCHAR I
ENCODING 73
SWIDTH 331 0
DWIDTH 9 0
BBX 5 20 2 0
BITMAP
7FFFB0
7FFFB0
7FFFB0
7FFFB0
7FFFB0
7FFFB0
7FFFB0
7FFFB0
7FFFB0
7FFFB0
7FFFB0
7FFFB0
7FFFB0
7FFFB0
7FFFB0
7FFFB0
7FFFB0
7FFFB0
7FFFB0
7FFFB0
ENDCHAR
STARTCHAR J
ENCODING 74
SWIDTH 331 0
DWIDTH 9 0
BBX 10 26 -3 -6
BITMAP
000007FFFB
000007FFFB
000007FFFB
000007FFFB
000007FFFB
000007FFFB
000007FFFB
000007FFFB
000007FFFB
000007FFFB
000007FFFB
000007FFFB
000007FFFB
000007FFFB
000007FFFB
000007FFFB
000007FFFB
000007FFFB
000007FFFB
000008FFFB
00000AFFF9
00003FFFF6
1B9AEFFFF2
1FFFFFFF90
1FFFFFFB10
1CEFEB5000
ENDCHAR
STARTCHAR K
ENCODING 75
SWIDTH 664 0
DWIDTH 19 0
BBX 17 20 2 0
BITMAP
7FFFB0000008FFFE30
7FFFB000005FFFF500
7FFFB00003EFFF9000
7FFFB0001DFFFB0000
7FFFB000BFFFE10000
7FFFB008FFFF300000
7FFFB05FFFF6000000
7FFFB2EFFF90000000
7FFFBCFFFC10000000
7FFFFFFFFE10000000
7FFFFFFFFF90000000
7FFFFFCFFFF3000000
7FFFE50DFFFD000000
7FFFB004FFFF700000
7FFFB000AFFFF20000
7FFFB0001EFFFB0000
7FFFB00006FFFF6000
7FFFB00000CFFFE100
7FFFB000003FFFFA00
7FFFB0000008FFFF40
ENDCHAR
STARTCHAR L
ENCODING 76
SWIDTH 564 0
DWIDTH 16 0
BBX 13 20 2 0
BITMAP
7FFFB000000000
7FFFB000000000
7FFFB000000000
7FFFB000000000
7FFFB000000000
7FFFB000000000
7FFFB000000000
7FFFB000000000
7FFFB000000000
7FFFB000000000
7FFFB000000000
7FFFB000000000
7FFFB000000000
7FFFB000000000
7FFFB000000000
7FFFB000000000
7FFFD888888860
7FFFFFFFFFFFD0
7FFFFFFFFFFFD0
7FFFFFFFFFFFD0
ENDCHAR
STARTCHAR M
ENCODING 77
SWIDTH 942 0
DWIDTH 26 0
BBX 22 20 2 0
BITMAP
7FFFFF7000000001FFFFFD
7FFFFFB000000006FFFFFD
7FFFFFF10000000BFFFFFD
7FFFFFF50000001FFFFFFD
7FFFDFFA0000006FFEEFFD
7FFF9FFE000000AFFAEFFD
7FFF5FFF400001FFF5EFFD
7FFF3DFF900005FFE0FFFD
7FFF48FFE0000AFFA0FFFD
7FFF44FFF3001EFF51FFFD
7FFF40EFF8005FFE01FFFD
7FFF409FFD00AFFA01FFFD
7FFF405FFF21EFF501FFFD
7FFF401FFF75FFE101FFFD
7FFF400BFFCAFFA001FFFD
7FFF4006FFFEFF5001FFFD
7FFF4001FFFFFE1001FFFD
7FFF4000CFFFFA0001FFFD
7FFF40007FFFF50001FFFD
7FFF40003FFFF10001FFFD
ENDCHAR
STARTCHAR N
ENCODING 78
SWIDTH 812 0
DWIDTH 23 0
BBX 19 20 2 0
BITMAP
7FFFFF200000008FFF40
7FFFFFB00000008FFF40
7FFFFFF50000008FFF40
7FFFFFFD0000008FFF40
7FFFFFFF7000008FFF40
7FFF8FFFE100008FFF40
7FFF3DFFF900008FFF40
7FFF35FFFF30008FFF40
7FFF40BFFFC0008FFF40
7FFF403FFFF5008FFF40
7FFF4009FFFD108FFF40
7FFF4001EFFF808FFF40
7FFF40007FFFF27FFF40
7FFF40000DFFFA7FFF40
7FFF400005FFFFAFFF40
7FFF400000BFFFFFFF40
7FFF4000003FFFFFFF40
7FFF40000009FFFFFF40
7FFF40000001EFFFFF40
7FFF400000006FFFFF40
ENDCHAR
STARTCHAR O
ENCODING 79
SWIDTH 795 0
DWIDTH 22 0
BBX 20 20 1 0
BITMAP
0000017BDEFDC8300000
00008FFFFFFFFFFB2000
001BFFFFFFFFFFFFE300
009FFFFFC98AEFFFFD10
03FFFFD300001AFFFF80
0AFFFF30000000CFFFE0
0EFFFA000000005FFFF3
3FFFF5000000001FFFF7
4FFFF3000000000DFFF8
5FFFF2000000000CFFF9
5FFFF2000000000CFFF9
4FFFF3000000000DFFF8
2FFFF5000000001FFFF7
0EFFFA000000005FFFF3
0AFFFF30000000CFFFE0
03FFFFD300001BFFFF70
009FFFFFC99BFFFFFC10
000BFFFFFFFFFFFFD200
00008FFFFFFFFFFB1000
0000017BDEFEC8300000
ENDCHAR
STARTCHAR P
ENCODING 80
SWIDTH 627 0
DWIDTH 18 0
BBX 15 20 2 0
BITMAP
7FFFFFFEDB710000
7FFFFFFFFFFE5000
7FFFFFFFFFFFF400
7FFFD779CFFFFC00
7FFFB00009FFFF20
7FFFB00002FFFF40
7FFFB00000FFFF50
7FFFB00002FFFF30
7FFFB0001BFFFF10
7FFFD789EFFFFA00
7FFFFFFFFFFFD200
7FFFFFFFFFFC2000
7FFFFFFEDA500000
7FFFB00000000000
7FFFB00000000000
7FFFB00000000000
7FFFB00000000000
7FFFB00000000000
7FFFB00000000000
7FFFB00000000000
ENDCHAR
STARTCHAR Q
ENCODING 81
SWIDTH 795 0
DWIDTH 22 0
BBX 20 24 1 -4
BITMAP
0000017BDEFDC8300000
00008FFFFFFFFFFB2000
001BFFFFFFFFFFFFE300
009FFFFFC98AEFFFFD10
03FFFFD300001AFFFF80
0AFFFF30000000CFFFE0
0EFFFA000000005FFFF3
3FFFF5000000001FFFF7
4FFFF3000000000DFFF8
5FFFF2000000000CFFF9
5FFFF2000000000CFFF9
4FFFF3000000000DFFF9
2FFFF5000000001FFFF7
0EFFFA000000005FFFF4
0AFFFF30000000CFFFE0
03FFFFD300001BFFFF80
009FFFFFC99BFFFFFD10
000BFFFFFFFFFFFFE200
00008FFFFFFFFFFB2000
0000017BDEFFFFE30000
00000000002EFFFE2000
000000000003EFFFE200
0000000000004FFFFE20
00000000000005FFFFE2
ENDCHAR
STARTCHAR R
ENCODING 82
SWIDTH 660 0
DWIDTH 18 0
BBX 17 20 2 0
BITMAP
7FFFFFFEDA61000000
7FFFFFFFFFFE500000
7FFFFFFFFFFFF40000
7FFFD779DFFFFD0000
7FFFB00009FFFF2000
7FFFB00001FFFF4000
7FFFB00001FFFF4000
7FFFB00005FFFF2000
7FFFB0026EFFFB0000
7FFFFFFFFFFFE20000
7FFFFFFFFFFD300000
7FFFFFFFFFD0000000
7FFFD77DFFF5000000
7FFFB005FFFE100000
7FFFB000AFFFB00000
7FFFB0002EFFF60000
7FFFB00006FFFE2000
7FFFB00000CFFFB000
7FFFB000003FFFF700
7FFFB0000008FFFF20
ENDCHAR
STARTCHAR S
ENCODING 83
SWIDTH 550 0
DWIDTH 15 0
BBX 14 20 1 0
BITMAP
00039DEFEC8400
009FFFFFFFFFD1
09FFFFFFFFFFC0
2FFFFE98ADFF50
6FFFE100003800
7FFFB000000000
6FFFE200000000
2FFFFE60000000
09FFFFFD710000
00AFFFFFFE5000
0006DFFFFFF900
000006DFFFFF80
00000006EFFFE1
000000003FFFF4
000000000DFFF4
AA4000003FFFF2
BFFEA88AFFFFD0
BFFFFFFFFFFF40
AFFFFFFFFFE500
049CEFFEB71000
ENDCHAR
STARTCHAR T
ENCODING 84
SWIDTH 579 0
DWIDTH 16 0
BBX 16 20 0 0
BITMAP
7FFFFFFFFFFFFFFA
7FFFFFFFFFFFFFFA
7FFFFFFFFFFFFFFA
388888FFFFA88885
000000FFFF400000
000000FFFF400000
000000FFFF400000
000000FFFF400000
000000FFFF400000
000000FFFF400000
000000FFFF400000
000000FFFF400000
000000FFFF400000
000000FFFF400000
000000FFFF400000
000000FFFF400000
000000FFFF400000
000000FFFF400000
000000FFFF400000
000000FFFF400000
ENDCHAR
STARTCHAR U
ENCODING 85
SWIDTH 755 0
DWIDTH 21 0
BBX 17 20 2 0
BITMAP
9FFF900000007FFFC0
9FFF900000007FFFC0
9FFF900000007FFFC0
9FFF900000007FFFC0
9FFF900000007FFFC0
9FFF900000007FFFC0
9FFF900000007FFFC0
9FFF900000007FFFC0
9FFF900000007FFFC0
9FFF900000007FFFC0
9FFF900000007FFFC0
9FFF900000007FFFC0
9FFF900000007FFFC0
8FFFB00000009FFFA0
6FFFE1000000DFFF80
2FFFFA100008FFFF40
0AFFFFEA9ADFFFFC00
01DFFFFFFFFFFFE200
002BFFFFFFFFFB2000
000049CEFEC9400000
ENDCHAR
STARTCHAR V
ENCODING 86
SWIDTH 649 0
DWIDTH 18 0
BBX 19 20 0 0
BITMAP
DFFF7000000004FFFF10
7FFFB000000008FFFA00
2FFFF10000000DFFF500
0CFFF60000003FFFE100
07FFFB0000008FFFA000
02FFFF100000CFFF5000
00CFFF500002FFFE1000
007FFFA00007FFFA0000
002FFFE0000CFFF50000
000CFFF4002FFFE00000
0007FFF9006FFFA00000
0002FFFE00BFFF400000
0000BFFF31FFFE000000
00006FFF74FFF9000000
00001FFFB8FFF4000000
00000BFFEBFFE0000000
000006FFFFFF90000000
000001FFFFFF40000000
000000BFFFFE00000000
0000006FFFF900000000
ENDCHAR
STARTCHAR W
ENCODING 87
SWIDTH 966 0
DWIDTH 27 0
BBX 27 20 0 0
BITMAP
DFFF40000009FFFA0000003FFFE0
9FFF8000000DFFFE0000007FFFA0
5FFFB000002FFFFF300000AFFF70
2FFFF000005FFFFF700000EFFF30
0DFFF300009FFFFFB00002FFFE00
09FFF70000DFFCFFE00006FFFA00
05FFFA0002FFF7FFF30009FFF600
01FFFE0006FFF1FFF7000DFFF200
00DFFF200AFFC0CFFB001FFFE000
009FFF600EFF908FFF105FFFA000
005FFFA03FFF504FFF408FFF6000
001FFFD07FFF101FFF80CFFF2000
000CFFF1AFFC000CFFB0FFFD0000
0008FFF4DFF90008FFE3FFFA0000
0005FFF7FFF50004FFF7FFF60000
0001FFFCFFF10000FFFCFFF20000
0000CFFFFFC00000BFFFFFD00000
00008FFFFF8000007FFFFF900000
00004FFFFF4000003FFFFF500000
00001FFFFF1000000EFFFF200000
ENDCHAR
STARTCHAR X
ENCODING 88
SWIDTH 666 0
DWIDTH 19 0
BBX 19 20 0 0
BITMAP
4FFFF60000000AFFFD00
09FFFE1000004FFFF400
01EFFF900000CFFF9000
005FFFF30006FFFE1000
000AFFFC001EFFF50000
0002EFFF609FFFB00000
00006FFFE4FFFE200000
00000CFFFFFFF7000000
000002FFFFFFC0000000
0000008FFFFF30000000
000001DFFFFF50000000
000008FFFFFFE1000000
00003FFFFCFFFA000000
0000CFFF83FFFF500000
0007FFFD108FFFE10000
002FFFF5001DFFFA0000
00BFFFA00005FFFF5000
06FFFE200000AFFFE100
1EFFF70000002EFFFA00
AFFFD000000007FFFF50
ENDCHAR
STARTCHAR Y
ENCODING 89
SWIDTH 624 0
DWIDTH 17 0
BBX 18 20 0 0
BITMAP
BFFFD00000005FFFF3
3FFFF5000000DFFFA0
0AFFFD000005FFFF20
02FFFF50000DFFF900
009FFFD0006FFFE100
001EFFF500DFFF7000
0008FFFD06FFFE1000
0001EFFF6DFFF60000
00007FFFFFFFD00000
00000DFFFFFF500000
000006FFFFFC000000
000000CFFFF3000000
0000006FFFD0000000
0000006FFFD0000000
0000006FFFD0000000
0000006FFFD0000000
0000006FFFD0000000
0000006FFFD0000000
0000006FFFD0000000
0000006FFFD0000000
ENDCHAR
STARTCHAR Z
ENCODING 90
SWIDTH 579 0
DWIDTH 16 0
BBX 16 20 0 0
BITMAP
1FFFFFFFFFFFFFF4
1FFFFFFFFFFFFFF4
1FFFFFFFFFFFFFF4
0888888888EFFFB0
0000000007FFFE20
000000003FFFF500
00000000CFFFA000
00000008FFFD1000
0000004FFFF40000
000001DFFF900000
000009FFFD100000
00005FFFF3000000
0001EFFF70000000
000BFFFC00000000
006FFFE200000000
02EFFF6000000000
0CFFFE8888888884
5FFFFFFFFFFFFFF8
5FFFFFFFFFFFFFF8
5FFFFFFFFFFFFFF8
ENDCHAR
STARTCHAR bracketleft
ENCODING 91
SWIDTH 331 0
DWIDTH 9 0
BBX 8 24 1 -4
BITMAP
1FFFFFF9
1FFFFFF9
1FFFEDD8
1FFF8000
1FFF8000
1FFF8000
1FFF8000
1FFF8000
1FFF8000
1FFF8000
1FFF8000
1FFF8000
1FFF8000
1FFF8000
1FFF8000
1FFF8000
1FFF8000
1FFF8000
1FFF8000
1FFF8000
1FFF8000
1FFFEDD8
1FFFFFF9
1FFFFFF9
ENDCHAR
STARTCHAR backslash
ENCODING 92
SWIDTH 413 0
DWIDTH 12 0
BBX 12 20 0 0
BITMAP
AFFF20000000
4FFF80000000
0DFFD0000000
08FFF4000000
02FFF9000000
00CFFE100000
006FFF600000
001FFFB00000
000AFFF20000
0004FFF70000
0000EFFD0000
00008FFF4000
00003FFF9000
00000CFFE100
000007FFF500
000001FFFB00
000000AFFF20
0000005FFF70
0000000EFFD0
00000009FFF3
ENDCHAR
STARTCHAR bracketright
ENCODING 93
SWIDTH 331 0
DWIDTH 9 0
BBX 8 24 0 -4
BITMAP
4FFFFFF5
4FFFFFF5
4DDEFFF5
0004FFF5
0004FFF5
0004FFF5
0004FFF5
0004FFF5
0004FFF5
0004FFF5
0004FFF5
0004FFF5
0004FFF5
0004FFF5
0004FFF5
0004FFF5
0004FFF5
0004FFF5
0004FFF5
0004FFF5
0004FFF5
4DDEFFF5
4FFFFFF5
4FFFFFF5
ENDCHAR
STARTCHAR asciicircum
ENCODING 94
SWIDTH 532 0
DWIDTH 15 0
BBX 15 13 0 7
BITMAP
000002FF50000000
000009FFC0000000
00001FFFF5000000
00008FFFFD000000
0001EFEBFF600000
0007FF93FFD00000
000DFF30AFF70000
005FFB003FFE1000
00CFF4000AFF7000
04FFD00003FFE100
0BFF600000AFF800
3FFE1000003FFE10
AFF80000000AFF90
ENDCHAR
STARTCHAR underscore
ENCODING 95
SWIDTH 411 0
DWIDTH 12 0
BBX 13 2 -1 -4
BITMAP
1EEEEEEEEEEE80
1FFFFFFFFFFF80
ENDCHAR
STARTCHAR grave
ENCODING 96
SWIDTH 606 0
DWIDTH 17 0
BBX 9 4 4 17
BITMAP
3EFFF90000
02CFFF6000
0008FFF500
00003DFF30
ENDCHAR
STARTCHAR a
ENCODING 97
SWIDTH 604 0
DWIDTH 17 0
BBX 14 15 1 0
BITMAP
0016ADEFEC8200
03EFFFFFFFFF60
00DFFFFFFFFFF3
005E95225EFFF9
0001000007FFFB
0000000005FFFC
0016ACDEEFFFFC
07EFFFFFFFFFFC
5FFFFEA879FFFC
AFFFC10005FFFC
CFFF800009FFFC
BFFFD3139FFFFC
7FFFFFFFFEEFFC
1CFFFFFFE39FFC
018DFED9204FFC
ENDCHAR
STARTCHAR b
ENCODING 98
SWIDTH 632 0
DWIDTH 18 0
BBX 15 21 2 0
BITMAP
CFFF500000000000
CFFF500000000000
CFFF500000000000
CFFF500000000000
CFFF500000000000
CFFF500000000000
CFFF519DFEB40000
CFFF6EFFFFFF7000
CFFFFFFFFFFFF400
CFFFFD769FFFFB00
CFFFD10008FFFF20
CFFF800001FFFF50
CFFF600000DFFF60
CFFF500000CFFF70
CFFF600000EFFF60
CFFF900002FFFF40
CFFFE20009FFFF10
CFFFFE86AFFFFB00
CFFFFFFFFFFFF300
CFFE5FFFFFFF6000
CFF802ADFEA30000
ENDCHAR
STARTCHAR c
ENCODING 99
SWIDTH 514 0
DWIDTH 14 0
BBX 13 15 1 0
BITMAP
00017BEFEDA610
004EFFFFFFFF50
04FFFFFFFFFE00
0DFFFF967AE900
4FFFF500000100
8FFFC000000000
AFFF9000000000
BFFF8000000000
AFFF9000000000
9FFFC000000000
5FFFF400000600
1EFFFF9669DF10
07FFFFFFFFFF10
008FFFFFFFFF10
00039CEFED9300
ENDCHAR
STARTCHAR d
ENCODING 100
SWIDTH 632 0
DWIDTH 18 0
BBX 15 21 1 0
BITMAP
0000000000AFFF80
0000000000AFFF80
0000000000AFFF80
0000000000AFFF80
0000000000AFFF80
00000000009FFF80
0006BEED818FFF80
00AFFFFFFD8FFF80
07FFFFFFFFFFFF80
1EFFFF869EFFFF80
5FFFF40002EFFF80
9FFFC000009FFF80
AFFF9000006FFF80
BFFF8000005FFF80
AFFF8000006FFF80
9FFFB000008FFF80
6FFFF30001DFFF80
1FFFFE857DFFFF80
08FFFFFFFFEFFF80
00BFFFFFFC4FFF80
0006CEEC700CFF80
ENDCHAR
STARTCHAR e
ENCODING 101
SWIDTH 590 0
DWIDTH 17 0
BBX 15 15 1 0
BITMAP
00017CEFEC710000
004EFFFFFFFE3000
03FFFFFFFFFFE200
0DFFFB302BFFFA00
4FFFE10001DFFF10
8FFFA00000AFFF40
AFFFFFFFFFFFFF50
BFFFFFFFFFFFFF50
AFFFDCCCCCCCCC40
8FFFA00000000000
4FFFE20000000000
0CFFFE732357B700
03EFFFFFFFFFF700
003DFFFFFFFFF700
00006ADEFEDA5000
ENDCHAR
STARTCHAR f
ENCODING 102
SWIDTH 387 0
DWIDTH 11 0
BBX 12 21 0 0
BITMAP
000029DEFEC8
0003EFFFFFFC
000BFFFFFFF7
000FFFFB5692
002FFFF20000
002FFFF00000
05CFFFFFFFA0
6FFFFFFFFFA0
7FFFFFFFFFA0
124FFFF22210
002FFFF00000
002FFFF00000
002FFFF00000
002FFFF00000
002FFFF00000
002FFFF00000
002FFFF00000
002FFFF00000
002FFFF00000
002FFFF00000
002FFFF00000
ENDCHAR
STARTCHAR g
ENCODING 103
SWIDTH 564 0
DWIDTH 16 0
BBX 16 22 0 -7
BITMAP
00028CEFFFFFFFF7
005FFFFFFFFFFFF7
02FFFFB9BFFFFA61
08FFF90009FFF600
0BFFF40004FFFA00
0BFFF40004FFFB00
08FFF90009FFF800
02EFFFC9BFFFE200
003DFFFFFFFE4000
001AFFEFEC710000
00CFF60000000000
01FFFC6555531000
00CFFFFFFFFFE800
002DFFFFFFFFFF90
06EFFFFFFFFFFFF1
5FFFA200014DFFF4
BFFD00000007FFF4
DFFC00000009FFF2
CFFF5000028FFFB0
6FFFFDBCDFFFFE20
09FFFFFFFFFFC200
0039CEFEEB840000
ENDCHAR
STARTCHAR h
ENCODING 104
SWIDTH 657 0
DWIDTH 18 0
BBX 15 21 2 0
BITMAP
CFFF500000000000
CFFF500000000000
CFFF500000000000
CFFF500000000000
CFFF500000000000
CFFF500000000000
CFFF418DFEC71000
CFFF5DFFFFFFD100
CFFFEFFFFFFFFA00
CFFFFE868EFFFF10
CFFFF30005FFFF30
CFFFA00000FFFF40
CFFF700000DFFF40
CFFF600000DFFF40
CFFF500000DFFF40
CFFF500000DFFF40
CFFF500000DFFF40
CFFF500000DFFF40
CFFF500000DFFF40
CFFF500000DFFF40
CFFF500000DFFF40
ENDCHAR
STARTCHAR i
ENCODING 105
SWIDTH 305 0
DWIDTH 9 0
BBX 5 21 2 0
BITMAP
5DEB10
DFFF70
EFFF70
6EFC10
001000
000000
CFFF50
CFFF50
CFFF50
CFFF50
CFFF50
CFFF50
CFFF50
CFFF50
CFFF50
CFFF50
CFFF50
CFFF50
CFFF50
CFFF50
CFFF50
ENDCHAR
STARTCHAR j
ENCODING 106
SWIDTH 305 0
DWIDTH 9 0
BBX 9 28 -2 -7
BITMAP
00005DEB10
0000DFFF70
0000EFFF70
00006EFC10
0000001000
0000000000
0000CFFF50
0000CFFF50
0000CFFF50
0000CFFF50
0000CFFF50
0000CFFF50
0000CFFF50
0000CFFF50
0000CFFF50
0000CFFF50
0000CFFF50
0000CFFF50
0000CFFF50
0000CFFF50
0000CFFF50
0000CFFF50
0000DFFF50
0001FFFF50
776CFFFF20
CFFFFFFC00
CFFFFFE200
9EFFD81000
ENDCHAR
STARTCHAR k
ENCODING 107
SWIDTH 620 0
DWIDTH 17 0
BBX 16 21 2 0
BITMAP
CFFF500000000000
CFFF500000000000
CFFF500000000000
CFFF500000000000
CFFF500000000000
CFFF500000000000
CFFF500003EFFF80
CFFF50003EFFF900
CFFF5002EFFFA000
CFFF502DFFFB0000
CFFF41DFFFB10000
CFFF4BFFFC100000
CFFFAFFFF2000000
CFFFFFFFFA000000
CFFFFFFFFF700000
CFFFF77FFFF30000
CFFF700BFFFD1000
CFFF5001EFFFB000
CFFF50004FFFF700
CFFF500008FFFF40
CFFF500000CFFFD1
ENDCHAR
STARTCHAR l
ENCODING 108
SWIDTH 305 0
DWIDTH 9 0
BBX 5 21 2 0
BITMAP
CFFF50
CFFF50
CFFF50
CFFF50
CFFF50
CFFF50
CFFF50
CFFF50
CFFF50
CFFF50
CFFF50
CFFF50
CFFF50
CFFF50
CFFF50
CFFF50
CFFF50
CFFF50
CFFF50
CFFF50
CFFF50
ENDCHAR
STARTCHAR m
ENCODING 109
SWIDTH 981 0
DWIDTH 28 0
BBX 24 15 2 0
BITMAP
CFF8029DFEB60006CEFD9200
CFFB4EFFFFFFA0BFFFFFFE40
CFFFEFFFFFFFFDFFFFFFFFD0
CFFFFE76AFFFFFFA67EFFFF3
CFFFF2000BFFFF90003FFFF5
CFFFA00006FFFF20000DFFF6
CFFF700005FFFE00000CFFF6
CFFF600004FFFD00000CFFF6
CFFF500004FFFD00000CFFF6
CFFF500004FFFD00000CFFF6
CFFF500004FFFD00000CFFF6
CFFF500004FFFD00000CFFF6
CFFF500004FFFD00000CFFF6
CFFF500004FFFD00000CFFF6
CFFF500004FFFD00000CFFF6
ENDCHAR
STARTCHAR n
ENCODING 110
SWIDTH 657 0
DWIDTH 18 0
BBX 15 15 2 0
BITMAP
CFF8028DEEC81000
CFFB3EFFFFFFD100
CFFFEFFFFFFFFA00
CFFFFE868EFFFF10
CFFFF30005FFFF30
CFFFA00000FFFF40
CFFF700000DFFF40
CFFF600000DFFF40
CFFF500000DFFF40
CFFF500000DFFF40
CFFF500000DFFF40
CFFF500000DFFF40
CFFF500000DFFF40
CFFF500000DFFF40
CFFF500000DFFF40
ENDCHAR
STARTCHAR o
ENCODING 111
SWIDTH 619 0
DWIDTH 17 0
BBX 16 15 1 0
BITMAP
00017BEFEC820000
004EFFFFFFFF6000
03FFFFFFFFFFF700
0DFFFE867DFFFF20
4FFFF30001DFFF80
8FFFB000007FFFD0
AFFF9000004FFFF0
BFFF8000003FFFF1
9FFF9000004FFFF0
8FFFC000007FFFD0
3FFFF40001DFFF90
0CFFFE857CFFFF30
02EFFFFFFFFFF800
003DFFFFFFFF8000
00016BDFEC820000
ENDCHAR
STARTCHAR p
ENCODING 112
SWIDTH 632 0
DWIDTH 18 0
BBX 15 22 2 -7
BITMAP
CFFB019DFEB40000
CFFE3EFFFFFF7000
CFFFEFFFFFFFF400
CFFFFD769FFFFC00
CFFFD10007FFFF20
CFFF800001FFFF50
CFFF600000DFFF60
CFFF500000CFFF70
CFFF600000DFFF60
CFFF900001FFFF40
CFFFE20007FFFF10
CFFFFE869FFFFB00
CFFFFFFFFFFFF300
CFFF8FFFFFFF6000
CFFF42ADFDA30000
CFFF500000000000
CFFF500000000000
CFFF500000000000
CFFF500000000000
CFFF500000000000
CFFF500000000000
CFFF500000000000
ENDCHAR
STARTCHAR q
ENCODING 113
SWIDTH 632 0
DWIDTH 18 0
BBX 15 22 1 -7
BITMAP
0006BEED811FFF80
00AFFFFFFD5FFF80
07FFFFFFFFFFFF80
1EFFFE869EFFFF80
5FFFF40002EFFF80
8FFFC000009FFF80
AFFF9000006FFF80
BFFF8000005FFF80
AFFF8000006FFF80
9FFFB000008FFF80
6FFFF30001DFFF80
1FFFFE746DFFFF80
08FFFFFFFFFFFF80
00BFFFFFFC8FFF80
0006CEEC709FFF80
0000000000AFFF80
0000000000AFFF80
0000000000AFFF80
0000000000AFFF80
0000000000AFFF80
0000000000AFFF80
0000000000AFFF80
ENDCHAR
STARTCHAR r
ENCODING 114
SWIDTH 454 0
DWIDTH 13 0
BBX 11 15 2 0
BITMAP
CFF7006CEE10
CFFA0AFFFF00
CFFD9FFFFE00
CFFFFFFFED00
CFFFFD510000
CFFFD1000000
CFFF80000000
CFFF60000000
CFFF50000000
CFFF50000000
CFFF50000000
CFFF50000000
CFFF50000000
CFFF50000000
CFFF50000000
ENDCHAR
STARTCHAR s
ENCODING 115
SWIDTH 497 0
DWIDTH 14 0
BBX 12 15 1 0
BITMAP
004ADEFEC940
09FFFFFFFFF8
5FFFFFFFFFF2
AFFFA3237DB0
BFFFA0000010
8FFFFD710000
1DFFFFFFA300
02AFFFFFFF80
00039EFFFFF6
0000017EFFFB
20000005FFFC
BD84212AFFFA
BFFFFFFFFFF5
BFFFFFFFFF80
27BEFFEC9300
ENDCHAR
STARTCHAR t
ENCODING 116
SWIDTH 434 0
DWIDTH 12 0
BBX 12 19 0 0
BITMAP
000034300000
0002FFC00000
0008FFC00000
000DFFC00000
03BFFFFFFFF1
4FFFFFFFFFF1
5FFFFFFFFFF1
127FFFD22220
005FFFC00000
005FFFC00000
005FFFC00000
005FFFC00000
005FFFC00000
005FFFC00000
005FFFD00000
004FFFFA5693
001EFFFFFFF4
0006FFFFFFF4
00005BEFEC81
ENDCHAR
STARTCHAR u
ENCODING 117
SWIDTH 657 0
DWIDTH 18 0
BBX 15 15 2 0
BITMAP
DFFF400000EFFF30
DFFF400000EFFF30
DFFF400000EFFF30
DFFF400000EFFF30
DFFF400000EFFF30
DFFF400000EFFF30
DFFF400000EFFF30
DFFF400000FFFF30
DFFF400001FFFF30
DFFF600004FFFF30
CFFFA0000BFFFF30
AFFFFA66CFFFFF30
4FFFFFFFFFEFFF30
09FFFFFFF95FFF30
005BEFEA402FFF30
ENDCHAR
STARTCHAR v
ENCODING 118
SWIDTH 568 0
DWIDTH 16 0
BBX 16 15 0 0
BITMAP
CFFF80000009FFFB
6FFFD000000EFFF5
1FFFF300005FFFE0
0AFFF90000AFFF80
04FFFE0001EFFF30
00DFFF4005FFFC00
007FFF900AFFF600
002FFFE01FFFE100
000BFFF55FFF9000
0005FFF99FFF4000
0000EFFCDFFD0000
00008FFEFFF70000
00002FFFFFF10000
00000BFFFFA00000
000006FFFF500000
ENDCHAR
STARTCHAR w
ENCODING 119
SWIDTH 855 0
DWIDTH 24 0
BBX 24 15 0 0
BITMAP
9FFF900006FFFF700008FFF8
4FFFD0000AFFFFA0000CFFF4
0EFFF2000EFFFFE0001FFFE0
0BFFF6003FFCEFF3005FFFA0
06FFFA007FF9AFF7009FFF60
02FFFD00BFF57FFA00EFFF10
00DFFF20EFF13FFE03FFFC00
008FFF63FFD00EFF26FFF700
004FFF96FF900BFF59FFF300
000EFFB9FF6007FF8CFFE000
000AFFEBFF2004FFAEFF9000
0006FFFEFE0001FFEFFF5000
0002FFFFFA0000CFFFFF1000
0000CFFFF700009FFFFB0000
00008FFFF300005FFFF70000
ENDCHAR
STARTCHAR x
ENCODING 120
SWIDTH 578 0
DWIDTH 16 0
BBX 16 15 0 0
BITMAP
4FFFF700003FFFF7
09FFFE2000DFFFC0
01DFFFA007FFFF20
004FFFF52FFFF700
0009FFFDCFFFB000
0001DFFFFFFE2000
00004FFFFFF60000
00000DFFFFE10000
00007FFFFFF90000
0003FFFFFFFF5000
000CFFFB8FFFE100
007FFFE21DFFFA00
03FFFF7004FFFF50
0CFFFC0000AFFFE1
8FFFF300001EFFFB
ENDCHAR
STARTCHAR y
ENCODING 121
SWIDTH 568 0
DWIDTH 16 0
BBX 16 22 0 -7
BITMAP
CFFFB000000BFFFB
6FFFF100001FFFF5
1EFFF600006FFFE1
09FFFB0000BFFF90
03FFFF2001FFFF30
00CFFF7006FFFD00
006FFFC00BFFF700
000EFFF21FFFF200
0008FFF76FFFB000
0002FFFBAFFF5000
0000BFFDDFFE0000
00005FFFFFF90000
00000EFFFFF30000
000008FFFFD00000
000002FFFF700000
000001FFFF200000
000007FFFB000000
00002EFFF5000000
0768EFFFC0000000
1FFFFFFF30000000
1FFFFFE400000000
1CEFD82000000000
ENDCHAR
STARTCHAR z
ENCODING 122
SWIDTH 487 0
DWIDTH 14 0
BBX 13 15 0 0
BITMAP
0CFFFFFFFFFF90
0CFFFFFFFFFF90
0CFFFFFFFFFF80
02333339FFFD10
0000003FFFF300
000001DFFF7000
00000AFFFA0000
00007FFFD10000
0003FFFF300000
001DFFF7000000
00BFFFA0000000
07FFFE43333320
2FFFFFFFFFFFC0
4FFFFFFFFFFFC0
4FFFFFFFFFFFC0
ENDCHAR
STARTCHAR braceleft
ENCODING 123
SWIDTH 394 0
DWIDTH 11 0
BBX 10 24 0 -4
BITMAP
000004ADED
00006FFFFE
0000EFFFFE
0001FFFE62
0001FFF900
0001FFF800
0001FFF800
0001FFF800
0003FFF800
001AFFF600
6BEFFFE100
9FFFD92000
9FFFD92000
6BFFFFE200
001BFFF700
0003FFF800
0001FFF800
0001FFF800
0001FFF800
0001FFF900
0001FFFE62
0000EFFFFE
00006FFFFE
000004ADED
ENDCHAR
STARTCHAR bar
ENCODING 124
SWIDTH 550 0
DWIDTH 15 0
BBX 4 27 6 -6
BITMAP
CFF3
CFF3
CFF3
CFF3
CFF3
CFF3
CFF3
CFF3
CFF3
CFF3
CFF3
CFF3
CFF3
CFF3
CFF3
CFF3
CFF3
CFF3
CFF3
CFF3
CFF3
CFF3
CFF3
CFF3
CFF3
CFF3
CFF3
ENDCHAR
STARTCHAR braceright
ENCODING 125
SWIDTH 394 0
DWIDTH 11 0
BBX 10 24 1 -4
BITMAP
DEDA500000
DFFFF70000
DFFFFE0000
25EFFF1000
009FFF2000
008FFF2000
008FFF2000
008FFF2000
007FFF3000
006FFFA100
001EFFFEB6
00029DFFF9
00029DFFF9
002EFFFEB6
006FFFB100
008FFF3000
008FFF2000
008FFF2000
008FFF2000
009FFF2000
25EFFF1000
DFFFFE0000
DFFFF70000
DEDA500000
ENDCHAR
STARTCHAR asciitilde
ENCODING 126
SWIDTH 570 0
DWIDTH 16 0
BBX 14 5 1 7
BITMAP
05CFEB60000007
7FFFFFFD7313CC
CFFFFFFFFFFFFC
CC3138EFFFFFF7
70000006BEFC50
ENDCHAR
STARTCHAR nonbreakingspace
ENCODING 160
SWIDTH 259 0
DWIDTH 7 0
BBX 1 1 0 0
BITMAP
00
ENDCHAR
STARTCHAR exclamdown
ENCODING 161
SWIDTH 286 0
DWIDTH 8 0
BBX 6 20 1 -5
BITMAP
08EE80
4FFFF3
5FFFF5
2FFFF2
039930
000000
000000
0BFFA0
0CFFB0
0DFFB0
0DFFC0
0EFFD0
0FFFE0
1FFFF0
2FFFF0
2FFFF1
3FFFF2
4FFFF3
5FFFF4
6FFFF5
ENDCHAR
STARTCHAR cent
ENCODING 162
SWIDTH 570 0
DWIDTH 16 0
BBX 13 20 2 0
BITMAP
000004FF200000
000004FF200000
00049DFFEC9400
01AFFFFFFFFF10
0AFFFFFFFFFA00
4FFFFD768BF400
AFFFD100001000
DFFF7000000000
FFFF4000000000
FFFF3000000000
FFFF4000000000
DFFF7000000000
AFFFE100000300
4FFFFE8679EB00
0BFFFFFFFFFB00
01AFFFFFFFFB00
00049DFFEC8200
000004FF200000
000004FF200000
000004FF200000
ENDCHAR
STARTCHAR sterling
ENCODING 163
SWIDTH 570 0
DWIDTH 16 0
BBX 15 20 1 0
BITMAP
000006BEFEDA6100
0001CFFFFFFFFB00
000AFFFFFFFFF500
002FFFFC779DE000
005FFFE100002000
006FFFB000000000
006FFFB000000000
006FFFB000000000
DFFFFFFFFFFC0000
DFFFFFFFFFFC0000
DFFFFFFFFFFC0000
006FFFB000000000
006FFFB000000000
007FFFA000000000
00AFFF6000000000
04FFFC0000000000
8FFFE98888888840
DFFFFFFFFFFFFF70
DFFFFFFFFFFFFF70
DFFFFFFFFFFFFF70
ENDCHAR
STARTCHAR currency
ENCODING 164
SWIDTH 570 0
DWIDTH 16 0
BBX 14 13 1 3
BITMAP
01910000001910
1BFC49BB94DFC1
2EFFFFFFFFFFD2
02EFFFFFFFFE20
00EFF8118FFE10
04FFA0000AFF40
06FF700007FF60
04FFA0000AFF40
01EFF8118FFE10
02EFFFFFFFFE20
2EFFFFFFFFFFD2
1BFC49CC94DFB1
01910000002910
ENDCHAR
STARTCHAR yen
ENCODING 165
SWIDTH 570 0
DWIDTH 16 0
BBX 16 20 0 0
BITMAP
AFFF90000009FFFA
3FFFE100001EFFF2
0BFFF600006FFFA0
04FFFC0000CFFF30
00CFFF3004FFFB00
005FFF900AFFF400
000DFFE11FFFC000
0006FFF77FFF5000
0000EFFDDFFC0000
00007FFFFFF50000
00001EFFFFD00000
005FFFFFFFFFF400
005FFFFFFFFFF400
002777FFFF777200
000000FFFE000000
005FFFFFFFFFF400
005FFFFFFFFFF400
002777FFFF777200
000000FFFE000000
000000FFFE000000
ENDCHAR
STARTCHAR brokenbar
ENCODING 166
SWIDTH 550 0
DWIDTH 15 0
BBX 4 27 6 -6
BITMAP
CFF3
CFF3
CFF3
CFF3
CFF3
CFF3
CFF3
CFF3
CFF3
CFF3
CFF3
0000
0000
0000
0000
0000
CFF3
CFF3
CFF3
CFF3
CFF3
CFF3
CFF3
CFF3
CFF3
CFF3
CFF3
ENDCHAR
STARTCHAR section
ENCODING 167
SWIDTH 485 0
DWIDTH 14 0
BBX 12 21 1 0
BITMAP
0029DEFDB720
05FFFFFFFFE0
1EFFEAACFF90
4FFF10002820
4FFF40000000
0DFFF9200000
03EFFFFB4000
03EFFFFFFA00
0DFF76CFFF90
4FFC0007FFF1
4FFD0000EFF3
2FFFB201FFF1
08FFFFACFFA0
006EFFFFFD10
00017DFFFF60
0000005DFFE1
00000004FFF3
78200005FFF2
8FFCA9BFFFB0
8FFFFFFFFC20
06ADFFEB6000
ENDCHAR
STARTCHAR dieresis
ENCODING 168
SWIDTH 606 0
DWIDTH 17 0
BBX 11 4 3 17
BITMAP
049700189400
1FFF708FFE10
2FFF909FFF20
09EC203DE800
ENDCHAR
STARTCHAR copyright
ENCODING 169
SWIDTH 832 0
DWIDTH 23 0
BBX 21 20 1 0
BITMAP
00000028BEFEC940000000
00001AFFFFFFFFFC300000
0003EFE9410037DFF70000
003EFB2000000008FF7000
01DF90018CEFD9405FF300
08FC002DFFFFFFE108FC00
0EF300DFFFB9BF9000DF40
4FB005FFF4000110007F90
7F7008FFB0000000003FC0
9F500AFF80000000001FE0
9F500AFF80000000001FE0
7F7008FFA0000000003FC0
4FB004FFF3000130007F90
0EF200CFFFB9BE9000DF40
08FB002DFFFFFF9008FC00
01DF90018CEED9305FF400
003EFB1000000008FF7000
0003EFE8300027DFF70000
00001AFFFFEFFFFC300000
00000028CEFEC940000000
ENDCHAR
STARTCHAR ordfeminine
ENCODING 170
SWIDTH 382 0
DWIDTH 11 0
BBX 10 10 0 10
BITMAP
016BEFD910
09FFFFFFD0
02C733BFF5
0000136FF7
02AEFFFFF8
1EFFA78FF8
5FF9005FF8
4FFA24DFF8
1EFFFFECF8
03BEEA27F8
ENDCHAR
STARTCHAR guillemotleft
ENCODING 171
SWIDTH 615 0
DWIDTH 17 0
BBX 15 13 1 1
BITMAP
00004C400005C300
0002EFFB002EFFA0
000CFFF801DFFF60
009FFFB00AFFFA00
06FFFD107FFFC100
3FFFF304FFFE2000
CFFF900DFFF70000
4FFFE305FFFE2000
06FFFD108FFFC100
009FFFB00BFFFA00
000CFFF801DFFF60
0002EFFB002EFFA0
00004C400005C400
ENDCHAR
STARTCHAR logicalnot
ENCODING 172
SWIDTH 570 0
DWIDTH 16 0
BBX 14 8 1 3
BITMAP
CFFFFFFFFFFFFC
CFFFFFFFFFFFFC
CFFFFFFFFFFFFC
00000000003FFC
00000000003FFC
00000000003FFC
00000000003FFC
00000000003FFC
ENDCHAR
STARTCHAR uni00AD
ENCODING 173
SWIDTH 321 0
DWIDTH 9 0
BBX 9 4 0 5
BITMAP
3FFFFFFF30
3FFFFFFF30
3FFFFFFF30
1666666610
ENDCHAR
STARTCHAR registered
ENCODING 174
SWIDTH 832 0
DWIDTH 23 0
BBX 21 20 1 0
BITMAP
00000028BEFEC940000000
00001AFFFFFFFFFC300000
0003EFE9410037DFF70000
003EFB2000000008FF7000
01DF909FFFFDA3005FF300
08FC009FFFFFFE3008FC00
0EF3009FFA6DFF9000DF40
4FB0009FF806FFC0007F90
7F70009FF807FFB0003FC0
9F50009FFCAEFF60001FE0
9F50009FFFFFF700001FE0
7F70009FFDEFF400003FC0
4FB0009FF85FFD00007F90
0EF2009FF80CFF8000DF40
08FB009FF803FFF308FC00
01DF909FF800AFFC5FF400
003EFB1000000008FF7000
0003EFE8300027DFF70000
00001AFFFFEFFFFC300000
00000028CEFEC940000000
ENDCHAR
STARTCHAR overscore
ENCODING 175
SWIDTH 500 0
DWIDTH 14 0
BBX 16 3 -1 21
BITMAP
1BBBBBBBBBBBBBB1
1FFFFFFFFFFFFFF1
1FFFFFFFFFFFFFF1
ENDCHAR
STARTCHAR degree
ENCODING 176
SWIDTH 428 0
DWIDTH 12 0
BBX 10 9 1 11
BITMAP
004BEEB400
07FFFFFF70
3FFFAAFFF3
9FF4004FF8
BFE0000EFA
9FF4004FF9
4FFFAAFFF3
08FFFFFF70
005CEEB400
ENDCHAR
STARTCHAR plusminus
ENCODING 177
SWIDTH 570 0
DWIDTH 16 0
BBX 14 18 1 0
BITMAP
00000255200000
000008FF700000
000008FF700000
000008FF700000
000008FF700000
000008FF700000
CFFFFFFFFFFFFC
CFFFFFFFFFFFFC
CFFFFFFFFFFFFC
000008FF700000
000008FF700000
000008FF700000
000008FF700000
000008FF700000
00000244200000
CFFFFFFFFFFFFC
CFFFFFFFFFFFFC
CFFFFFFFFFFFFC
ENDCHAR
STARTCHAR twosuperior
ENCODING 178
SWIDTH 378 0
DWIDTH 11 0
BBX 10 12 0 8
BITMAP
006BEEC710
2CFFFFFFB0
0BFEADFFF2
019101FFF3
000003FFF1
00001DFF80
0001CFFB00
001CFFB100
02DFF90000
2DFFFBBBB7
4FFFFFFFF9
4FFFFFFFF9
ENDCHAR
STARTCHAR threesuperior
ENCODING 179
SWIDTH 378 0
DWIDTH 11 0
BBX 10 12 0 8
BITMAP
007CEEC600
0DFFFFFF80
07FA68FFF1
003000DFF1
000015FFA0
005FFFE800
005FFFFB30
001336EFF2
1300009FF6
3FB757EFF5
3FFFFFFFC1
05ADFEC810
ENDCHAR
STARTCHAR acute
ENCODING 180
SWIDTH 606 0
DWIDTH 17 0
BBX 9 4 4 17
BITMAP
0009FFFE30
007FFFB200
05FFF70000
4FFD300000
ENDCHAR
STARTCHAR mu
ENCODING 181
SWIDTH 660 0
DWIDTH 18 0
BBX 15 22 2 -7
BITMAP
CFFF500000DFFF40
CFFF500000DFFF40
CFFF500000DFFF40
CFFF500000DFFF40
CFFF500000DFFF40
CFFF500000DFFF40
CFFF500000DFFF40
CFFF500000EFFF40
CFFF600000FFFF40
CFFF700003FFFF40
CFFFC0000AFFFF40
CFFFFB66BFFFFF40
CFFFFFFFFFDFFF40
CFFFFFFFFC4FFF40
CFFF6BEE910EFF40
CFFF400000000000
CFFF500000000000
CFFF500000000000
CFFF500000000000
CFFF500000000000
CFFF500000000000
CFFF500000000000
ENDCHAR
STARTCHAR paragraph
ENCODING 182
SWIDTH 654 0
DWIDTH 18 0
BBX 15 25 1 -4
BITMAP
0005BEFFFFFFFFE0
00AFFFFFFFFFFFE0
07FFFFFFFFDBCFE0
0DFFFFFFFF704FE0
3FFFFFFFFF704FE0
5FFFFFFFFF704FE0
6FFFFFFFFF704FE0
6FFFFFFFFF704FE0
6FFFFFFFFF704FE0
3FFFFFFFFF704FE0
0EFFFFFFFF704FE0
08FFFFFFFF704FE0
01CFFFFFFF704FE0
0007CEFDEF704FE0
00000000BF704FE0
00000000BF704FE0
00000000BF704FE0
00000000BF704FE0
00000000BF704FE0
00000000BF704FE0
00000000BF704FE0
00000000BF704FE0
00000000BF704FE0
00000000BF704FE0
00000000BF704FE0
ENDCHAR
STARTCHAR periodcentered
ENCODING 183
SWIDTH 285 0
DWIDTH 8 0
BBX 6 5 1 7
BITMAP
08EE80
4FFFF3
5FFFF5
2FFFE2
039930
ENDCHAR
STARTCHAR cedilla
ENCODING 184
SWIDTH 205 0
DWIDTH 6 0
BBX 7 7 -1 -7
BITMAP
01EFA000
07FFE700
04AFFF60
000AFFA0
465DFF90
8FFFFF40
6EFEB400
ENDCHAR
STARTCHAR onesuperior
ENCODING 185
SWIDTH 378 0
DWIDTH 11 0
BBX 7 12 1 8
BITMAP
0005EFF0
008FFFF0
1BFFFFF0
7FF9FFF0
0953FFF0
0004FFF0
0004FFF0
0004FFF0
0004FFF0
0004FFF0
0004FFF0
0004FFF0
ENDCHAR
STARTCHAR ordmasculine
ENCODING 186
SWIDTH 388 0
DWIDTH 11 0
BBX 11 10 0 10
BITMAP
002AEFD81000
02EFFFFFC100
0BFF84AFF800
1FFC000EFD00
3FF9000BFF10
3FF9000CFF10
1FFC000EFE00
0BFF84AFF900
02EFFFFFD100
0029EFD91000
ENDCHAR
STARTCHAR guillemotright
ENCODING 187
SWIDTH 615 0
DWIDTH 17 0
BBX 16 13 1 1
BITMAP
02A800003B600000
7FFF5008FFF40000
3FFFE204FFFE2000
06FFFD108FFFC000
00AFFFB00BFFF900
001CFFF801DFFF60
0004FFFF205FFFF1
001CFFF801DFFF70
00AFFFB00BFFFA00
06FFFD107FFFC100
3FFFE304FFFE2000
7FFF5008FFF40000
02A800003B600000
ENDCHAR
STARTCHAR onequarter
ENCODING 188
SWIDTH 880 0
DWIDTH 25 0
BBX 23 20 0 0
BITMAP
0002CFF50000000CFF700000
004EFFF50000005FFD000000
07FFFFF5000000DFF5000000
2EFCDFF5000007FFC0000000
04A1DFF500001EFF40000000
0000DFF500009FFA00000000
0000DFF50002FFF200000000
0000DFF5000AFF9000000000
0000DFF5004FFE1004FFF400
0000DFF500CFF7001DFFF400
0000DFF505FFD0008FFFF400
0000DFF50DFF5003FEEFF400
000000007FFC000CF7EFF400
00000001EFF4007FD1EFF400
00000009FFA002EF40EFF400
0000002FFF200BFA00EFF400
000000AFF9003FFFFFFFFFF0
000004FFE1003FFFFFFFFFF0
00000CFF7000144444FFF840
00005FFD0000000000EFF400
ENDCHAR
STARTCHAR onehalf
ENCODING 189
SWIDTH 880 0
DWIDTH 25 0
BBX 24 20 0 0
BITMAP
0002CFF50000000CFF700000
004EFFF50000005FFD000000
07FFFFF5000000DFF5000000
2EFCDFF5000007FFC0000000
04A1DFF500001EFF40000000
0000DFF500009FFA00000000
0000DFF50002FFF200000000
0000DFF5000AFF9000000000
0000DFF5004FFE117CEEC600
0000DFF500CFF73DFFFFFF80
0000DFF505FFD01DFEADFFF0
0000DFF50DFF50028103FFF1
000000007FFC00000005FFD0
00000001EFF40000002EFF60
00000009FFA0000002DFF900
0000002FFF2000002DFF9000
000000AFF9000003EFF80000
000004FFE100003EFFEBBBB5
00000CFF7000006FFFFFFFF7
00005FFD0000006FFFFFFFF7
ENDCHAR
STARTCHAR threequarters
ENCODING 190
SWIDTH 880 0
DWIDTH 25 0
BBX 23 20 1 0
BITMAP
03AEFD920000000CFF600000
7FFFFFFE1000006FFD000000
2ED76DFF700001EFF5000000
030007FF700008FFB0000000
00002CFE20002EFF30000000
00EFFFB300009FFA00000000
00EFFFD70003FFF200000000
00334BFF800BFF8000000000
400003FFD04FFE100CFFB000
CD856BFFC0CFF7007FFFB000
CFFFFFFF46FFD002FFFFB000
28CEFDA31DFF500CFDFFB000
000000007FFC006FD8FFB000
00000001EFF302EF58FFB000
00000009FFA00BFA08FFB000
0000003FFF205FE208FFB000
000000BFF800CFFFFFFFFF60
000004FFE100CFFFFFFFFF60
00000CFF700034444AFFC420
00006FFD0000000008FFB000
ENDCHAR
STARTCHAR questiondown
ENCODING 191
SWIDTH 477 0
DWIDTH 13 0
BBX 14 20 0 -5
BITMAP
000001AED50000
000007FFFF1000
000008FFFF2000
000005FFFD0000
00000059820000
00000000000000
00000000000000
000000DFFB0000
000001EFFA0000
00000AFFF60000
0002CFFFC00000
004EFFFA100000
04FFFF60000000
0CFFF400000000
1FFFD000000000
2FFFE000002820
0EFFFC768CFF90
09FFFFFFFFFFF1
00AFFFFFFFFFB2
0004ADEFEB7200
ENDCHAR
STARTCHAR Agrave
ENCODING 192
SWIDTH 689 0
DWIDTH 19 0
BBX 20 26 0 0
BITMAP
00002DFFFA0000000000
000001BFFF8000000000
00000007FFF600000000
000000003CFF40000000
00000000000000000000
00000000000000000000
0000002FFFFF60000000
0000007FFFFFB0000000
000000CFFFFFF2000000
000003FFFCFFF7000000
000008FFF5EFFC000000
00000DFFF1AFFF300000
00004FFFB06FFF800000
00009FFF601FFFD00000
0000EFFF200CFFF40000
0004FFFC0007FFF90000
000AFFF80002FFFE0000
001EFFF30000DFFF5000
005FFFFFFFFFFFFFA000
00BFFFFFFFFFFFFFE100
01FFFFFFFFFFFFFFF500
06FFFF8888888DFFFB00
0CFFFB00000006FFFF10
2FFFF600000001FFFF60
7FFFF100000000BFFFC0
CFFFB0000000006FFFF2
ENDCHAR
STARTCHAR Aacute
ENCODING 193
SWIDTH 689 0
DWIDTH 19 0
BBX 20 26 0 0
BITMAP
0000000000BFFFD20000
0000000009FFFA100000
000000007FFE60000000
00000006FFC200000000
00000000000000000000
00000000000000000000
0000002FFFFF60000000
0000007FFFFFB0000000
000000CFFFFFF2000000
000003FFFCFFF7000000
000008FFF5EFFC000000
00000DFFF1AFFF300000
00004FFFB06FFF800000
00009FFF601FFFD00000
0000EFFF200CFFF40000
0004FFFC0007FFF90000
000AFFF80002FFFE0000
001EFFF30000DFFF5000
005FFFFFFFFFFFFFA000
00BFFFFFFFFFFFFFE100
01FFFFFFFFFFFFFFF500
06FFFF8888888DFFFB00
0CFFFB00000006FFFF10
2FFFF600000001FFFF60
7FFFF100000000BFFFC0
CFFFB0000000006FFFF2
ENDCHAR
STARTCHAR Acircumflex
ENCODING 194
SWIDTH 689 0
DWIDTH 19 0
BBX 20 26 0 0
BITMAP
0000003FFFFF70000000
000002EFFFFFF5000000
00002DFFD4BFFF600000
0002EFE70005CFF50000
00000000000000000000
00000000000000000000
0000002FFFFF60000000
0000007FFFFFB0000000
000000CFFFFFF2000000
000003FFFCFFF7000000
000008FFF5EFFC000000
00000DFFF1AFFF300000
00004FFFB06FFF800000
00009FFF601FFFD00000
0000EFFF200CFFF40000
0004FFFC0007FFF90000
000AFFF80002FFFE0000
001EFFF30000DFFF5000
005FFFFFFFFFFFFFA000
00BFFFFFFFFFFFFFE100
01FFFFFFFFFFFFFFF500
06FFFF8888888DFFFB00
0CFFFB00000006FFFF10
2FFFF600000001FFFF60
7FFFF100000000BFFFC0
CFFFB0000000006FFFF2
ENDCHAR
STARTCHAR Atilde
ENCODING 195
SWIDTH 689 0
DWIDTH 19 0
BBX 20 26 0 0
BITMAP
000004CFD8201DF40000
00002FFFFFFDEFE10000
0000AFFCFFFFFF700000
0000DF5016CED7000000
00000000000000000000
00000000000000000000
0000002FFFFF60000000
0000007FFFFFB0000000
000000CFFFFFF2000000
000003FFFCFFF7000000
000008FFF5EFFC000000
00000DFFF1AFFF300000
00004FFFB06FFF800000
00009FFF601FFFD00000
0000EFFF200CFFF40000
0004FFFC0007FFF90000
000AFFF80002FFFE0000
001EFFF30000DFFF5000
005FFFFFFFFFFFFFA000
00BFFFFFFFFFFFFFE100
01FFFFFFFFFFFFFFF500
06FFFF8888888DFFFB00
0CFFFB00000006FFFF10
2FFFF600000001FFFF60
7FFFF100000000BFFFC0
CFFFB0000000006FFFF2
ENDCHAR
STARTCHAR Adieresis
ENCODING 196
SWIDTH 689 0
DWIDTH 19 0
BBX 20 26 0 0
BITMAP
00000398100795000000
00000DFFA05FFF300000
00000EFFB07FFF400000
000006ED401CEA000000
00000000000000000000
00000000000000000000
0000002FFFFF60000000
0000007FFFFFB0000000
000000CFFFFFF2000000
000003FFFCFFF7000000
000008FFF5EFFC000000
00000DFFF1AFFF300000
00004FFFB06FFF800000
00009FFF601FFFD00000
0000EFFF200CFFF40000
0004FFFC0007FFF90000
000AFFF80002FFFE0000
001EFFF30000DFFF5000
005FFFFFFFFFFFFFA000
00BFFFFFFFFFFFFFE100
01FFFFFFFFFFFFFFF500
06FFFF8888888DFFFB00
0CFFFB00000006FFFF10
2FFFF600000001FFFF60
7FFFF100000000BFFFC0
CFFFB0000000006FFFF2
ENDCHAR
STARTCHAR Aring
ENCODING 197
SWIDTH 689 0
DWIDTH 19 0
BBX 20 25 0 0
BITMAP
00000005DFE700000000
0000003FFEFF80000000
0000009F905FE0000000
000000BF501FF1000000
0000009FA17FE0000000
0000004FFFFFD0000000
0000007FFFFFC0000000
000000CFFFFFF2000000
000003FFFCFFF7000000
000008FFF5EFFC000000
00000DFFF1AFFF300000
00004FFFB06FFF800000
00009FFF601FFFD00000
0000EFFF200CFFF40000
0004FFFC0007FFF90000
000AFFF80002FFFE0000
001EFFF30000DFFF5000
005FFFFFFFFFFFFFA000
00BFFFFFFFFFFFFFE100
01FFFFFFFFFFFFFFF500
06FFFF8888888DFFFB00
0CFFFB00000006FFFF10
2FFFF600000001FFFF60
7FFFF100000000BFFFC0
CFFFB0000000006FFFF2
ENDCHAR
STARTCHAR AE
ENCODING 198
SWIDTH 952 0
DWIDTH 27 0
BBX 25 20 0 0
BITMAP
000000004FFFFFFFFFFFFFFFF0
00000000BFFFFFFFFFFFFFFFF0
00000003FFFFFFFFFFFFFFFFF0
00000009FFFB9FFFFA77777770
0000001FFFE00EFFF500000000
0000008FFF800EFFF500000000
000001EFFF200EFFF500000000
000006FFFB000EFFF500000000
00000DFFF5000EFFFFFFFFFF80
00005FFFE0000EFFFFFFFFFF80
0000BFFF80000EFFFFFFFFFF80
0003FFFF20000EFFFA77777740
000AFFFFFFFFFFFFF500000000
002FFFFFFFFFFFFFF500000000
008FFFFFFFFFFFFFF500000000
01EFFFA888888FFFF500000000
07FFFE0000000EFFFA88888880
0DFFF70000000EFFFFFFFFFFF0
5FFFE10000000EFFFFFFFFFFF0
CFFF800000000EFFFFFFFFFFF0
ENDCHAR
STARTCHAR Ccedilla
ENCODING 199
SWIDTH 637 0
DWIDTH 18 0
BBX 16 27 1 -7
BITMAP
0000016BDFFDB720
00006EFFFFFFFFF9
0009FFFFFFFFFFF6
007FFFFFB99BFFE1
02FFFFD300001780
09FFFF3000000000
0EFFF90000000000
2FFFF40000000000
4FFFF10000000000
5FFFF00000000000
5FFFF00000000000
4FFFF10000000000
3FFFF30000000000
0EFFF80000000000
0AFFFE1000000000
04FFFFC200000161
00BFFFFFB98ADFF2
001DFFFFFFFFFFF2
0001AFFFFFFFFFF2
0000038CEFEDB830
00000009FF100000
0000002FFFB10000
00000027EFFC0000
000000004FFF1000
000001759FFF0000
000002FFFFFA0000
000001DFFD810000
ENDCHAR
STARTCHAR Egrave
ENCODING 200
SWIDTH 560 0
DWIDTH 16 0
BBX 12 26 2 0
BITMAP
03EFFF900000
002CFFF60000
00008FFF5000
000003DFF300
000000000000
000000000000
7FFFFFFFFFFF
7FFFFFFFFFFF
7FFFFFFFFFFF
7FFFD7777777
7FFFB0000000
7FFFB0000000
7FFFB0000000
7FFFB0000000
7FFFFFFFFFF8
7FFFFFFFFFF8
7FFFFFFFFFF8
7FFFD7777774
7FFFB0000000
7FFFB0000000
7FFFB0000000
7FFFB0000000
7FFFD8888888
7FFFFFFFFFFF
7FFFFFFFFFFF
7FFFFFFFFFFF
ENDCHAR
STARTCHAR Eacute
ENCODING 201
SWIDTH 560 0
DWIDTH 16 0
BBX 12 26 2 0
BITMAP
0000005FFFF6
000003FFFD40
00002EFFA100
0001DFE60000
000000000000
000000000000
7FFFFFFFFFFF
7FFFFFFFFFFF
7FFFFFFFFFFF
7FFFD7777777
7FFFB0000000
7FFFB0000000
7FFFB0000000
7FFFB0000000
7FFFFFFFFFF8
7FFFFFFFFFF8
7FFFFFFFFFF8
7FFFD7777774
7FFFB0000000
7FFFB0000000
7FFFB0000000
7FFFB0000000
7FFFD8888888
7FFFFFFFFFFF
7FFFFFFFFFFF
7FFFFFFFFFFF
ENDCHAR
STARTCHAR Ecircumflex
ENCODING 202
SWIDTH 560 0
DWIDTH 16 0
BBX 13 26 2 0
BITMAP
0007FFFFE30000
006FFFFFFD2000
05FFFA5DFFD200
6FFC40017EFE20
00000000000000
00000000000000
7FFFFFFFFFFF00
7FFFFFFFFFFF00
7FFFFFFFFFFF00
7FFFD777777700
7FFFB000000000
7FFFB000000000
7FFFB000000000
7FFFB000000000
7FFFFFFFFFF800
7FFFFFFFFFF800
7FFFFFFFFFF800
7FFFD777777400
7FFFB000000000
7FFFB000000000
7FFFB000000000
7FFFB000000000
7FFFD888888800
7FFFFFFFFFFF00
7FFFFFFFFFFF00
7FFFFFFFFFFF00
ENDCHAR
STARTCHAR Edieresis
ENCODING 203
SWIDTH 560 0
DWIDTH 16 0
BBX 12 26 2 0
BITMAP
005970018930
02FFF609FFE0
03FFF70BFFF1
00AEC104DE70
000000000000
000000000000
7FFFFFFFFFFF
7FFFFFFFFFFF
7FFFFFFFFFFF
7FFFD7777777
7FFFB0000000
7FFFB0000000
7FFFB0000000
7FFFB0000000
7FFFFFFFFFF8
7FFFFFFFFFF8
7FFFFFFFFFF8
7FFFD7777774
7FFFB0000000
7FFFB0000000
7FFFB0000000
7FFFB0000000
7FFFD8888888
7FFFFFFFFFFF
7FFFFFFFFFFF
7FFFFFFFFFFF
ENDCHAR
STARTCHAR Igrave
ENCODING 204
SWIDTH 331 0
DWIDTH 9 0
BBX 9 26 -1 0
BITMAP
7FFFF40000
04EFFE2000
002BFFD200
00007EFD10
0000000000
0000000000
0007FFFB00
0007FFFB00
0007FFFB00
0007FFFB00
0007FFFB00
0007FFFB00
0007FFFB00
0007FFFB00
0007FFFB00
0007FFFB00
0007FFFB00
0007FFFB00
0007FFFB00
0007FFFB00
0007FFFB00
0007FFFB00
0007FFFB00
0007FFFB00
0007FFFB00
0007FFFB00
ENDCHAR
STARTCHAR Iacute
ENCODING 205
SWIDTH 331 0
DWIDTH 9 0
BBX 9 26 2 0
BITMAP
001DFFFC10
00AFFF9000
09FFE50000
7FFB200000
0000000000
0000000000
7FFFB00000
7FFFB00000
7FFFB00000
7FFFB00000
7FFFB00000
7FFFB00000
7FFFB00000
7FFFB00000
7FFFB00000
7FFFB00000
7FFFB00000
7FFFB00000
7FFFB00000
7FFFB00000
7FFFB00000
7FFFB00000
7FFFB00000
7FFFB00000
7FFFB00000
7FFFB00000
ENDCHAR
STARTCHAR Icircumflex
ENCODING 206
SWIDTH 331 0
DWIDTH 9 0
BBX 13 26 -2 0
BITMAP
0003FFFFF70000
002EFFFFFF5000
02EFFD4BFFF500
2EFE70005DFF50
00000000000000
00000000000000
00007FFFB00000
00007FFFB00000
00007FFFB00000
00007FFFB00000
00007FFFB00000
00007FFFB00000
00007FFFB00000
00007FFFB00000
00007FFFB00000
00007FFFB00000
00007FFFB00000
00007FFFB00000
00007FFFB00000
00007FFFB00000
00007FFFB00000
00007FFFB00000
00007FFFB00000
00007FFFB00000
00007FFFB00000
00007FFFB00000
ENDCHAR
STARTCHAR Idieresis
ENCODING 207
SWIDTH 331 0
DWIDTH 9 0
BBX 10 26 0 0
BITMAP
3981007950
DFF906FFF3
FFFB07FFF4
7ED402CEA0
0000000000
0000000000
007FFFB000
007FFFB000
007FFFB000
007FFFB000
007FFFB000
007FFFB000
007FFFB000
007FFFB000
007FFFB000
007FFFB000
007FFFB000
007FFFB000
007FFFB000
007FFFB000
007FFFB000
007FFFB000
007FFFB000
007FFFB000
007FFFB000
007FFFB000
ENDCHAR
STARTCHAR Eth
ENCODING 208
SWIDTH 740 0
DWIDTH 21 0
BBX 20 20 0 0
BITMAP
007FFFFFFEDB83000000
007FFFFFFFFFFFB20000
007FFFFFFFFFFFFE4000
007FFFD7789DFFFFE300
007FFFB000007FFFFC00
007FFFB0000007FFFF50
007FFFB0000000DFFF90
007FFFB00000009FFFD0
5FFFFFFFFF00006FFFF0
5FFFFFFFFF00005FFFF1
5FFFFFFFFF00005FFFF1
37BFFFD77700006FFFE0
007FFFB00000009FFFC0
007FFFB0000001EFFF80
007FFFB0000009FFFF30
007FFFB000019FFFFB00
007FFFD889BEFFFFE200
007FFFFFFFFFFFFD3000
007FFFFFFFFFFF910000
007FFFFFFEDA61000000
ENDCHAR
STARTCHAR Ntilde
ENCODING 209
SWIDTH 812 0
DWIDTH 23 0
BBX 19 26 2 0
BITMAP
000007DEC6104FE00000
00006FFFFFFCFFB00000
0000EFEDFFFFFF300000
0003FE1028DFC4000000
00000000000000000000
00000000000000000000
7FFFFF200000008FFF40
7FFFFFB00000008FFF40
7FFFFFF50000008FFF40
7FFFFFFD0000008FFF40
7FFFFFFF7000008FFF40
7FFF8FFFE100008FFF40
7FFF3DFFF900008FFF40
7FFF35FFFF30008FFF40
7FFF40BFFFC0008FFF40
7FFF403FFFF5008FFF40
7FFF4009FFFD108FFF40
7FFF4001EFFF808FFF40
7FFF40007FFFF27FFF40
7FFF40000DFFFA7FFF40
7FFF400005FFFFAFFF40
7FFF400000BFFFFFFF40
7FFF4000003FFFFFFF40
7FFF40000009FFFFFF40
7FFF40000001EFFFFF40
7FFF400000006FFFFF40
ENDCHAR
STARTCHAR Ograve
ENCODING 210
SWIDTH 795 0
DWIDTH 22 0
BBX 20 26 1 0
BITMAP
000008FFFF3000000000
0000005EFFE200000000
00000002CFFD10000000
0000000007FFC0000000
00000000000000000000
00000000000000000000
0000017BDEFDC8300000
00008FFFFFFFFFFB2000
001BFFFFFFFFFFFFE300
009FFFFFC98AEFFFFD10
03FFFFD300001AFFFF80
0AFFFF30000000CFFFE0
0EFFFA000000005FFFF3
3FFFF5000000001FFFF7
4FFFF3000000000DFFF8
5FFFF2000000000CFFF9
5FFFF2000000000CFFF9
4FFFF3000000000DFFF8
2FFFF5000000001FFFF7
0EFFFA000000005FFFF3
0AFFFF30000000CFFFE0
03FFFFD300001BFFFF70
009FFFFFC99BFFFFFC10
000BFFFFFFFFFFFFD200
00008FFFFFFFFFFB1000
0000017BDEFEC8300000
ENDCHAR
STARTCHAR Oacute
ENCODING 211
SWIDTH 795 0
DWIDTH 22 0
BBX 20 26 1 0
BITMAP
00000000003FFFF80000
0000000002DFFE500000
000000001CFFC2000000
00000000CFF800000000
00000000000000000000
00000000000000000000
0000017BDEFDC8300000
00008FFFFFFFFFFB2000
001BFFFFFFFFFFFFE300
009FFFFFC98AEFFFFD10
03FFFFD300001AFFFF80
0AFFFF30000000CFFFE0
0EFFFA000000005FFFF3
3FFFF5000000001FFFF7
4FFFF3000000000DFFF8
5FFFF2000000000CFFF9
5FFFF2000000000CFFF9
4FFFF3000000000DFFF8
2FFFF5000000001FFFF7
0EFFFA000000005FFFF3
0AFFFF30000000CFFFE0
03FFFFD300001BFFFF70
009FFFFFC99BFFFFFC10
000BFFFFFFFFFFFFD200
00008FFFFFFFFFFB1000
0000017BDEFEC8300000
ENDCHAR
STARTCHAR Ocircumflex
ENCODING 212
SWIDTH 795 0
DWIDTH 22 0
BBX 20 26 1 0
BITMAP
0000000AFFFFD1000000
0000008FFFFFFC100000
000008FFF86EFFC10000
00008FFB30019FFC0000
00000000000000000000
00000000000000000000
0000017BDEFDC8300000
00008FFFFFFFFFFB2000
001BFFFFFFFFFFFFE300
009FFFFFC98AEFFFFD10
03FFFFD300001AFFFF80
0AFFFF30000000CFFFE0
0EFFFA000000005FFFF3
3FFFF5000000001FFFF7
4FFFF3000000000DFFF8
5FFFF2000000000CFFF9
5FFFF2000000000CFFF9
4FFFF3000000000DFFF8
2FFFF5000000001FFFF7
0EFFFA000000005FFFF3
0AFFFF30000000CFFFE0
03FFFFD300001BFFFF70
009FFFFFC99BFFFFFC10
000BFFFFFFFFFFFFD200
00008FFFFFFFFFFB1000
0000017BDEFEC8300000
ENDCHAR
STARTCHAR Otilde
ENCODING 213
SWIDTH 795 0
DWIDTH 22 0
BBX 20 26 1 0
BITMAP
0000019EEB5007FB0000
00000AFFFFFECFF70000
00002FFDDFFFFFE10000
00006FC0039DEB300000
00000000000000000000
00000000000000000000
0000017BDEFDC8300000
00008FFFFFFFFFFB2000
001BFFFFFFFFFFFFE300
009FFFFFC98AEFFFFD10
03FFFFD300001AFFFF80
0AFFFF30000000CFFFE0
0EFFFA000000005FFFF3
3FFFF5000000001FFFF7
4FFFF3000000000DFFF8
5FFFF2000000000CFFF9
5FFFF2000000000CFFF9
4FFFF3000000000DFFF8
2FFFF5000000001FFFF7
0EFFFA000000005FFFF3
0AFFFF30000000CFFFE0
03FFFFD300001BFFFF70
009FFFFFC99BFFFFFC10
000BFFFFFFFFFFFFD200
00008FFFFFFFFFFB1000
0000017BDEFEC8300000
ENDCHAR
STARTCHAR Odieresis
ENCODING 214
SWIDTH 795 0
DWIDTH 22 0
BBX 20 26 1 0
BITMAP
00000079500398100000
000006FFF20DFFB00000
000007FFF40EFFC00000
000001CEA006ED400000
00000000000000000000
00000000000000000000
0000017BDEFDC8300000
00008FFFFFFFFFFB2000
001BFFFFFFFFFFFFE300
009FFFFFC98AEFFFFD10
03FFFFD300001AFFFF80
0AFFFF30000000CFFFE0
0EFFFA000000005FFFF3
3FFFF5000000001FFFF7
4FFFF3000000000DFFF8
5FFFF2000000000CFFF9
5FFFF2000000000CFFF9
4FFFF3000000000DFFF8
2FFFF5000000001FFFF7
0EFFFA000000005FFFF3
0AFFFF30000000CFFFE0
03FFFFD300001BFFFF70
009FFFFFC99BFFFFFC10
000BFFFFFFFFFFFFD200
00008FFFFFFFFFFB1000
0000017BDEFEC8300000
ENDCHAR
STARTCHAR multiply
ENCODING 215
SWIDTH 570 0
DWIDTH 16 0
BBX 14 13 1 3
BITMAP
00520000003500
06FE200003EF60
1EFFE2003EFFD1
03EFFE23EFFD20
003EFFEEFFD200
0003EFFFFD2000
00006FFFF40000
0003EFFFFD2000
003EFFEEFFD200
03EFFE23EFFD20
1EFFE2003EFFD0
05FD200003EF50
00520000003500
ENDCHAR
STARTCHAR Oslash
ENCODING 216
SWIDTH 795 0
DWIDTH 22 0
BBX 20 22 1 -1
BITMAP
00000000000000037000
0000017BDEFDC83CFC10
00008FFFFFFFFFFFF900
001BFFFFFFFFFFFFF300
009FFFFFC99BFFFFFD10
03FFFFD300008FFFFF70
0AFFFF300003FFFFFFE0
0EFFFA00001DFF9FFFF3
3FFFF500009FF81FFFF7
4FFFF30005FFC00EFFF8
5FFFF2001EFF300CFFF9
5FFFF200BFF7000CFFF9
4FFFF306FFB0000DFFF8
2FFFF52EFE20001FFFF7
0EFFFACFF600005FFFF3
0AFFFFFFA00000DFFFE0
03FFFFFE10001BFFFF70
00AFFFFFC99BFFFFFC10
000DFFFFFFFFFFFFD200
003FFFFFFFFFFFFB1000
009FF67BDEFEC8300000
00069000000000000000
ENDCHAR
STARTCHAR Ugrave
ENCODING 217
SWIDTH 755 0
DWIDTH 21 0
BBX 17 26 2 0
BITMAP
0008FFFF3000000000
00005EFFE200000000
000002CFFD10000000
00000007FFC0000000
000000000000000000
000000000000000000
9FFF900000007FFFC0
9FFF900000007FFFC0
9FFF900000007FFFC0
9FFF900000007FFFC0
9FFF900000007FFFC0
9FFF900000007FFFC0
9FFF900000007FFFC0
9FFF900000007FFFC0
9FFF900000007FFFC0
9FFF900000007FFFC0
9FFF900000007FFFC0
9FFF900000007FFFC0
9FFF900000007FFFC0
8FFFB00000009FFFA0
6FFFE1000000DFFF80
2FFFFA100008FFFF40
0AFFFFEA9ADFFFFC00
01DFFFFFFFFFFFE200
002BFFFFFFFFFB2000
000049CEFEC9400000
ENDCHAR
STARTCHAR Uacute
ENCODING 218
SWIDTH 755 0
DWIDTH 21 0
BBX 17 26 2 0
BITMAP
000000001DFFFB0000
00000000BFFF800000
0000000AFFE4000000
0000008FFA10000000
000000000000000000
000000000000000000
9FFF900000007FFFC0
9FFF900000007FFFC0
9FFF900000007FFFC0
9FFF900000007FFFC0
9FFF900000007FFFC0
9FFF900000007FFFC0
9FFF900000007FFFC0
9FFF900000007FFFC0
9FFF900000007FFFC0
9FFF900000007FFFC0
9FFF900000007FFFC0
9FFF900000007FFFC0
9FFF900000007FFFC0
8FFFB00000009FFFA0
6FFFE1000000DFFF80
2FFFFA100008FFFF40
0AFFFFEA9ADFFFFC00
01DFFFFFFFFFFFE200
002BFFFFFFFFFB2000
000049CEFEC9400000
ENDCHAR
STARTCHAR Ucircumflex
ENCODING 219
SWIDTH 755 0
DWIDTH 21 0
BBX 17 26 2 0
BITMAP
000004FFFFF6000000
00003EFFFFFF500000
0003EFFC4BFFF50000
002EFE60005DFF5000
000000000000000000
000000000000000000
9FFF900000007FFFC0
9FFF900000007FFFC0
9FFF900000007FFFC0
9FFF900000007FFFC0
9FFF900000007FFFC0
9FFF900000007FFFC0
9FFF900000007FFFC0
9FFF900000007FFFC0
9FFF900000007FFFC0
9FFF900000007FFFC0
9FFF900000007FFFC0
9FFF900000007FFFC0
9FFF900000007FFFC0
8FFFB00000009FFFA0
6FFFE1000000DFFF80
2FFFFA100008FFFF40
0AFFFFEA9ADFFFFC00
01DFFFFFFFFFFFE200
002BFFFFFFFFFB2000
000049CEFEC9400000
ENDCHAR
STARTCHAR Udieresis
ENCODING 220
SWIDTH 755 0
DWIDTH 21 0
BBX 17 26 2 0
BITMAP
000039810079500000
0000EFF906FFF20000
0000FFFA08FFF30000
00007ED302CEA00000
000000000000000000
000000000000000000
9FFF900000007FFFC0
9FFF900000007FFFC0
9FFF900000007FFFC0
9FFF900000007FFFC0
9FFF900000007FFFC0
9FFF900000007FFFC0
9FFF900000007FFFC0
9FFF900000007FFFC0
9FFF900000007FFFC0
9FFF900000007FFFC0
9FFF900000007FFFC0
9FFF900000007FFFC0
9FFF900000007FFFC0
8FFFB00000009FFFA0
6FFFE1000000DFFF80
2FFFFA100008FFFF40
0AFFFFEA9ADFFFFC00
01DFFFFFFFFFFFE200
002BFFFFFFFFFB2000
000049CEFEC9400000
ENDCHAR
STARTCHAR Yacute
ENCODING 221
SWIDTH 624 0
DWIDTH 17 0
BBX 18 26 0 0
BITMAP
000000001CFFFC1000
00000000AFFF900000
00000009FFE5000000
0000007FFB20000000
000000000000000000
000000000000000000
BFFFD00000005FFFF3
3FFFF5000000DFFFA0
0AFFFD000005FFFF20
02FFFF50000DFFF900
009FFFD0006FFFE100
001EFFF500DFFF7000
0008FFFD06FFFE1000
0001EFFF6DFFF60000
00007FFFFFFFD00000
00000DFFFFFF500000
000006FFFFFC000000
000000CFFFF3000000
0000006FFFD0000000
0000006FFFD0000000
0000006FFFD0000000
0000006FFFD0000000
0000006FFFD0000000
0000006FFFD0000000
0000006FFFD0000000
0000006FFFD0000000
ENDCHAR
STARTCHAR Thorn
ENCODING 222
SWIDTH 627 0
DWIDTH 18 0
BBX 15 20 2 0
BITMAP
7FFFB00000000000
7FFFB00000000000
7FFFB00000000000
7FFFFFFFEB710000
7FFFFFFFFFFE4000
7FFFFFFFFFFFF300
7FFFD779DFFFFB00
7FFFB00009FFFF10
7FFFB00002FFFF40
7FFFB00000FFFF50
7FFFB00002FFFF40
7FFFB0000AFFFF10
7FFFD678DFFFFA00
7FFFFFFFFFFFE200
7FFFFFFFFFFD3000
7FFFFFFEDA600000
7FFFB00000000000
7FFFB00000000000
7FFFB00000000000
7FFFB00000000000
ENDCHAR
STARTCHAR germandbls
ENCODING 223
SWIDTH 710 0
DWIDTH 20 0
BBX 17 21 2 0
BITMAP
00039CEFEDB7200000
01AFFFFFFFFFF70000
0BFFFFFFFFFFFF7000
5FFFFC6459FFFFE000
AFFFC000006FFFF100
CFFF7000004FFFD000
CFFF500001CFFF6000
CFFF50003DFFF80000
CFFF5004FFFE500000
CFFF500CFFF4000000
CFFF500EFFFA100000
CFFF500AFFFFD50000
CFFF5002DFFFFFA100
CFFF500018FFFFFC10
CFFF5000002BFFFF80
CFFF50000000AFFFC0
CFFF500000006FFFD0
CFFF508A5103CFFFC0
CFFF508FFFFFFFFF60
CFFF508FFFFFFFFA00
CFFF5029DEFEDA4000
ENDCHAR
STARTCHAR agrave
ENCODING 224
SWIDTH 604 0
DWIDTH 17 0
BBX 14 21 1 0
BITMAP
006FFFF5000000
0004EFFE300000
00001BFFE20000
0000006EFD1000
00000000000000
00000000000000
0016ADEFEC8200
03EFFFFFFFFF60
00DFFFFFFFFFF3
005E95225EFFF9
0001000007FFFB
0000000005FFFC
0016ACDEEFFFFC
07EFFFFFFFFFFC
5FFFFEA879FFFC
AFFFC10005FFFC
CFFF800009FFFC
BFFFD3139FFFFC
7FFFFFFFFEEFFC
1CFFFFFFE39FFC
018DFED9204FFC
ENDCHAR
STARTCHAR aacute
ENCODING 225
SWIDTH 604 0
DWIDTH 17 0
BBX 14 21 1 0
BITMAP
00000003EFFF90
0000001DFFE600
000001CFFC2000
00000BFF800000
00000000000000
00000000000000
0016ADEFEC8200
03EFFFFFFFFF60
00DFFFFFFFFFF3
005E95225EFFF9
0001000007FFFB
0000000005FFFC
0016ACDEEFFFFC
07EFFFFFFFFFFC
5FFFFEA879FFFC
AFFFC10005FFFC
CFFF800009FFFC
BFFFD3139FFFFC
7FFFFFFFFEEFFC
1CFFFFFFE39FFC
018DFED9204FFC
ENDCHAR
STARTCHAR acircumflex
ENCODING 226
SWIDTH 604 0
DWIDTH 17 0
BBX 14 21 1 0
BITMAP
00007FFFFF3000
0005FFFFFFE200
005FFFA4DFFE20
05FFC40017EFE2
00000000000000
00000000000000
0016ADEFEC8200
03EFFFFFFFFF60
00DFFFFFFFFFF3
005E95225EFFF9
0001000007FFFB
0000000005FFFC
0016ACDEEFFFFC
07EFFFFFFFFFFC
5FFFFEA879FFFC
AFFFC10005FFFC
CFFF800009FFFC
BFFFD3139FFFFC
7FFFFFFFFEEFFC
1CFFFFFFE39FFC
018DFED9204FFC
ENDCHAR
STARTCHAR atilde
ENCODING 227
SWIDTH 604 0
DWIDTH 17 0
BBX 14 21 1 0
BITMAP
0004CFD8201EF3
003FFFFFFDEFE0
00AFFCFFFFFF70
00EF4016CED700
00000000000000
00000000000000
0016ADEFEC8200
03EFFFFFFFFF60
00DFFFFFFFFFF3
005E95225EFFF9
0001000007FFFB
0000000005FFFC
0016ACDEEFFFFC
07EFFFFFFFFFFC
5FFFFEA879FFFC
AFFFC10005FFFC
CFFF800009FFFC
BFFFD3139FFFFC
7FFFFFFFFEEFFC
1CFFFFFFE39FFC
018DFED9204FFC
ENDCHAR
STARTCHAR adieresis
ENCODING 228
SWIDTH 604 0
DWIDTH 17 0
BBX 14 21 1 0
BITMAP
00039810079400
000EFF807FFF20
001FFFA08FFF30
0008ED302CE900
00000000000000
00000000000000
0016ADEFEC8200
03EFFFFFFFFF60
00DFFFFFFFFFF3
005E95225EFFF9
0001000007FFFB
0000000005FFFC
0016ACDEEFFFFC
07EFFFFFFFFFFC
5FFFFEA879FFFC
AFFFC10005FFFC
CFFF800009FFFC
BFFFD3139FFFFC
7FFFFFFFFEEFFC
1CFFFFFFE39FFC
018DFED9204FFC
ENDCHAR
STARTCHAR aring
ENCODING 229
SWIDTH 604 0
DWIDTH 17 0
BBX 14 24 1 0
BITMAP
000004CED60000
00003FFFFF7000
00009F906FE000
0000BF502FF000
00009F906FE000
00003FFFFF7000
000004CED60000
00000000000000
00000000000000
0016ADEFEC8200
03EFFFFFFFFF60
00DFFFFFFFFFF3
005E95225EFFF9
0001000007FFFB
0000000005FFFC
0016ACDEEFFFFC
07EFFFFFFFFFFC
5FFFFEA879FFFC
AFFFC10005FFFC
CFFF800009FFFC
BFFFD3139FFFFC
7FFFFFFFFEEFFC
1CFFFFFFE39FFC
018DFED9204FFC
ENDCHAR
STARTCHAR ae
ENCODING 230
SWIDTH 916 0
DWIDTH 26 0
BBX 24 15 1 0
BITMAP
0016ADEFEB6004ADFED82000
03EFFFFFFFFBAFFFFFFFF500
00DFFFFFFFFFFFFFFFFFFF30
006E84226FFFFFC4019FFFC0
000000000AFFFF20000CFFF2
0000000009FFFC000008FFF5
0027ACDEFFFFFFFFFFFFFFF7
07FFFFFFFFFFFFFFFFFFFFF7
5FFFFEA87CFFFECCCCCCCCC5
AFFFC1000AFFFB0000000000
CFFF80000DFFFF3000000000
BFFFC313BFFFFFE732357C90
6FFFFFFFFFDAFFFFFFFFFF90
0BFFFFFFFC209FFFFFFFFF90
007CFFDB6000039DEFEDA510
ENDCHAR
STARTCHAR ccedilla
ENCODING 231
SWIDTH 514 0
DWIDTH 14 0
BBX 13 22 1 -7
BITMAP
00017BEFEDA610
004EFFFFFFFF50
04FFFFFFFFFE00
0DFFFF967AE900
4FFFF500000100
8FFFC000000000
AFFF9000000000
BFFF8000000000
AFFF9000000000
9FFFC000000000
5FFFF400000600
1EFFFF9669DF10
07FFFFFFFFFF10
008FFFFFFFFF10
00039CEFED9300
00000BFE100000
00003FFFA10000
000028EFFA0000
0000006FFF0000
000275AFFE0000
0003FFFFF80000
0002DFFC700000
ENDCHAR
STARTCHAR egrave
ENCODING 232
SWIDTH 590 0
DWIDTH 17 0
BBX 15 21 1 0
BITMAP
005FFFF600000000
0003DFFF40000000
00001AFFE3000000
0000005EFE200000
0000000000000000
0000000000000000
00017CEFEC710000
004EFFFFFFFE3000
03FFFFFFFFFFE200
0DFFFB302BFFFA00
4FFFE10001DFFF10
8FFFA00000AFFF40
AFFFFFFFFFFFFF50
BFFFFFFFFFFFFF50
AFFFDCCCCCCCCC40
8FFFA00000000000
4FFFE20000000000
0CFFFE732357B700
03EFFFFFFFFFF700
003DFFFFFFFFF700
00006ADEFEDA5000
ENDCHAR
STARTCHAR eacute
ENCODING 233
SWIDTH 590 0
DWIDTH 17 0
BBX 15 21 1 0
BITMAP
00000002EFFFA000
0000001CFFF70000
000000BFFD300000
00000AFF91000000
0000000000000000
0000000000000000
00017CEFEC710000
004EFFFFFFFE3000
03FFFFFFFFFFE200
0DFFFB302BFFFA00
4FFFE10001DFFF10
8FFFA00000AFFF40
AFFFFFFFFFFFFF50
BFFFFFFFFFFFFF50
AFFFDCCCCCCCCC40
8FFFA00000000000
4FFFE20000000000
0CFFFE732357B700
03EFFFFFFFFFF700
003DFFFFFFFFF700
00006ADEFEDA5000
ENDCHAR
STARTCHAR ecircumflex
ENCODING 234
SWIDTH 590 0
DWIDTH 17 0
BBX 15 21 1 0
BITMAP
00004FFFFF600000
0003EFFFFFF50000
003EFFC4BFFF5000
02EFE60005DFF500
0000000000000000
0000000000000000
00017CEFEC710000
004EFFFFFFFE3000
03FFFFFFFFFFE200
0DFFFB302BFFFA00
4FFFE10001DFFF10
8FFFA00000AFFF40
AFFFFFFFFFFFFF50
BFFFFFFFFFFFFF50
AFFFDCCCCCCCCC40
8FFFA00000000000
4FFFE20000000000
0CFFFE732357B700
03EFFFFFFFFFF700
003DFFFFFFFFF700
00006ADEFEDA5000
ENDCHAR
STARTCHAR edieresis
ENCODING 235
SWIDTH 590 0
DWIDTH 17 0
BBX 15 21 1 0
BITMAP
0002992006960000
000CFFB04FFF4000
000DFFC05FFF6000
0006EE501BEB1000
0000000000000000
0000000000000000
00017CEFEC710000
004EFFFFFFFE3000
03FFFFFFFFFFE200
0DFFFB302BFFFA00
4FFFE10001DFFF10
8FFFA00000AFFF40
AFFFFFFFFFFFFF50
BFFFFFFFFFFFFF50
AFFFDCCCCCCCCC40
8FFFA00000000000
4FFFE20000000000
0CFFFE732357B700
03EFFFFFFFFFF700
003DFFFFFFFFF700
00006ADEFEDA5000
ENDCHAR
STARTCHAR igrave
ENCODING 236
SWIDTH 305 0
DWIDTH 9 0
BBX 9 21 -2 0
BITMAP
2DFFFA0000
01BFFF8000
0007FFF600
00003CFF40
0000000000
0000000000
0000CFFF50
0000CFFF50
0000CFFF50
0000CFFF50
0000CFFF50
0000CFFF50
0000CFFF50
0000CFFF50
0000CFFF50
0000CFFF50
0000CFFF50
0000CFFF50
0000CFFF50
0000CFFF50
0000CFFF50
ENDCHAR
STARTCHAR iacute
ENCODING 237
SWIDTH 305 0
DWIDTH 9 0
BBX 8 21 2 0
BITMAP
003FFFF8
02EFFE50
1DFFC200
CFF80000
00000000
00000000
CFFF5000
CFFF5000
CFFF5000
CFFF5000
CFFF5000
CFFF5000
CFFF5000
CFFF5000
CFFF5000
CFFF5000
CFFF5000
CFFF5000
CFFF5000
CFFF5000
CFFF5000
ENDCHAR
STARTCHAR icircumflex
ENCODING 238
SWIDTH 305 0
DWIDTH 9 0
BBX 13 21 -2 0
BITMAP
0008FFFFE20000
006FFFFFFD1000
06FFF95EFFD200
6FFC40018EFD10
00000000000000
00000000000000
0000CFFF500000
0000CFFF500000
0000CFFF500000
0000CFFF500000
0000CFFF500000
0000CFFF500000
0000CFFF500000
0000CFFF500000
0000CFFF500000
0000CFFF500000
0000CFFF500000
0000CFFF500000
0000CFFF500000
0000CFFF500000
0000CFFF500000
ENDCHAR
STARTCHAR idieresis
ENCODING 239
SWIDTH 305 0
DWIDTH 9 0
BBX 10 21 -1 0
BITMAP
0696002992
4FFF40BFFC
5FFF50CFFE
1BEB105EE6
0000000000
0000000000
000CFFF500
000CFFF500
000CFFF500
000CFFF500
000CFFF500
000CFFF500
000CFFF500
000CFFF500
000CFFF500
000CFFF500
000CFFF500
000CFFF500
000CFFF500
000CFFF500
000CFFF500
ENDCHAR
STARTCHAR eth
ENCODING 240
SWIDTH 619 0
DWIDTH 17 0
BBX 16 21 1 0
BITMAP
00001C60002B3000
00009FFC47EFC000
0000BFFFFFFF9100
000007FFFFF40000
00006EFFFFFB0000
0003FFFBCFFF9000
00009E501DFFF400
0000110004FFFC00
0004ADFEC7BFFF40
009FFFFFFFEFFF90
08FFFFFFFFFFFFC0
2FFFFB4239FFFFE0
7FFFE100009FFFF1
AFFFA000004FFFF1
BFFF8000004FFFF0
AFFFA000006FFFD0
7FFFE10000BFFF80
1EFFFC4239FFFF20
06FFFFFFFFFFF700
006EFFFFFFFF7000
00017CEFEC820000
ENDCHAR
STARTCHAR ntilde
ENCODING 241
SWIDTH 657 0
DWIDTH 18 0
BBX 15 21 2 0
BITMAP
0008EEB5006FC000
009FFFFFECFF8000
02FFDDFFFFFE1000
05FC0039DFB30000
0000000000000000
0000000000000000
CFF8028DEEC81000
CFFB3EFFFFFFD100
CFFFEFFFFFFFFA00
CFFFFE868EFFFF10
CFFFF30005FFFF30
CFFFA00000FFFF40
CFFF700000DFFF40
CFFF600000DFFF40
CFFF500000DFFF40
CFFF500000DFFF40
CFFF500000DFFF40
CFFF500000DFFF40
CFFF500000DFFF40
CFFF500000DFFF40
CFFF500000DFFF40
ENDCHAR
STARTCHAR ograve
ENCODING 242
SWIDTH 619 0
DWIDTH 17 0
BBX 16 21 1 0
BITMAP
006FFFF500000000
0004EFFE30000000
00001BFFD2000000
0000006EFD100000
0000000000000000
0000000000000000
00017BEFEC820000
004EFFFFFFFF6000
03FFFFFFFFFFF700
0DFFFE867DFFFF20
4FFFF30001DFFF80
8FFFB000007FFFD0
AFFF9000004FFFF0
BFFF8000003FFFF1
9FFF9000004FFFF0
8FFFC000007FFFD0
3FFFF40001DFFF90
0CFFFE857CFFFF30
02EFFFFFFFFFF800
003DFFFFFFFF8000
00016BDFEC820000
ENDCHAR
STARTCHAR oacute
ENCODING 243
SWIDTH 619 0
DWIDTH 17 0
BBX 16 21 1 0
BITMAP
00000000CFFFD100
00000009FFFA1000
0000008FFE600000
000006FFB2000000
0000000000000000
0000000000000000
00017BEFEC820000
004EFFFFFFFF6000
03FFFFFFFFFFF700
0DFFFE867DFFFF20
4FFFF30001DFFF80
8FFFB000007FFFD0
AFFF9000004FFFF0
BFFF8000003FFFF1
9FFF9000004FFFF0
8FFFC000007FFFD0
3FFFF40001DFFF90
0CFFFE857CFFFF30
02EFFFFFFFFFF800
003DFFFFFFFF8000
00016BDFEC820000
ENDCHAR
STARTCHAR ocircumflex
ENCODING 244
SWIDTH 619 0
DWIDTH 17 0
BBX 16 21 1 0
BITMAP
00003FFFFF700000
0002EFFFFFF50000
002DFFD4BFFF6000
02EFE70005CFF500
0000000000000000
0000000000000000
00017BEFEC820000
004EFFFFFFFF6000
03FFFFFFFFFFF700
0DFFFE867DFFFF20
4FFFF30001DFFF80
8FFFB000007FFFD0
AFFF9000004FFFF0
BFFF8000003FFFF1
9FFF9000004FFFF0
8FFFC000007FFFD0
3FFFF40001DFFF90
0CFFFE857CFFFF30
02EFFFFFFFFFF800
003DFFFFFFFF8000
00016BDFEC820000
ENDCHAR
STARTCHAR otilde
ENCODING 245
SWIDTH 619 0
DWIDTH 17 0
BBX 16 21 1 0
BITMAP
0004CFD8201DF400
002FFFFFFDEFE100
00AFFCFFFFFF7000
00DF5016CED70000
0000000000000000
0000000000000000
00017BEFEC820000
004EFFFFFFFF6000
03FFFFFFFFFFF700
0DFFFE867DFFFF20
4FFFF30001DFFF80
8FFFB000007FFFD0
AFFF9000004FFFF0
BFFF8000003FFFF1
9FFF9000004FFFF0
8FFFC000007FFFD0
3FFFF40001DFFF90
0CFFFE857CFFFF30
02EFFFFFFFFFF800
003DFFFFFFFF8000
00016BDFEC820000
ENDCHAR
STARTCHAR odieresis
ENCODING 246
SWIDTH 619 0
DWIDTH 17 0
BBX 16 21 1 0
BITMAP
0003981007950000
000DFFA05FFF3000
000EFFB07FFF4000
0006ED401CEA0000
0000000000000000
0000000000000000
00017BEFEC820000
004EFFFFFFFF6000
03FFFFFFFFFFF700
0DFFFE867DFFFF20
4FFFF30001DFFF80
8FFFB000007FFFD0
AFFF9000004FFFF0
BFFF8000003FFFF1
9FFF9000004FFFF0
8FFFC000007FFFD0
3FFFF40001DFFF90
0CFFFE857CFFFF30
02EFFFFFFFFFF800
003DFFFFFFFF8000
00016BDFEC820000
ENDCHAR
STARTCHAR divide
ENCODING 247
SWIDTH 570 0
DWIDTH 16 0
BBX 14 14 1 2
BITMAP
000005EE400000
00000DFFC00000
00000DFFC00000
000006FF600000
00000011000000
CFFFFFFFFFFFFC
CFFFFFFFFFFFFC
CFFFFFFFFFFFFC
00000000000000
000005EE400000
00000DFFC00000
00000DFFC00000
000006FF600000
00000011000000
ENDCHAR
STARTCHAR oslash
ENCODING 248
SWIDTH 619 0
DWIDTH 17 0
BBX 16 17 1 -1
BITMAP
0000000000021000
00017BEFEC8CD400
004EFFFFFFFFF900
03FFFFFFFFFFF700
0DFFFE867FFFFF20
4FFFF3008FFFFF90
8FFFB004FFFFFFD0
AFFF901EFE6FFFF0
BFFF80BFF53FFFF1
AFFF97FF904FFFF0
8FFFDFFC107FFFD0
4FFFFFE301DFFF90
0CFFFFC67CFFFF30
03EFFFFFFFFFF800
01DFFFFFFFFF8000
04EF9BEFEC820000
0028000000000000
ENDCHAR
STARTCHAR ugrave
ENCODING 249
SWIDTH 657 0
DWIDTH 18 0
BBX 15 21 2 0
BITMAP
05FFFF6000000000
003DFFF400000000
0001AFFE30000000
000005EFE2000000
0000000000000000
0000000000000000
DFFF400000EFFF30
DFFF400000EFFF30
DFFF400000EFFF30
DFFF400000EFFF30
DFFF400000EFFF30
DFFF400000EFFF30
DFFF400000EFFF30
DFFF400000FFFF30
DFFF400001FFFF30
DFFF600004FFFF30
CFFFA0000BFFFF30
AFFFFA66CFFFFF30
4FFFFFFFFFEFFF30
09FFFFFFF95FFF30
005BEFEA402FFF30
ENDCHAR
STARTCHAR uacute
ENCODING 250
SWIDTH 657 0
DWIDTH 18 0
BBX 15 21 2 0
BITMAP
00000005FFFF6000
0000003FFFD40000
000002EFFA100000
00001DFE60000000
0000000000000000
0000000000000000
DFFF400000EFFF30
DFFF400000EFFF30
DFFF400000EFFF30
DFFF400000EFFF30
DFFF400000EFFF30
DFFF400000EFFF30
DFFF400000EFFF30
DFFF400000FFFF30
DFFF400001FFFF30
DFFF600004FFFF30
CFFFA0000BFFFF30
AFFFFA66CFFFFF30
4FFFFFFFFFEFFF30
09FFFFFFF95FFF30
005BEFEA402FFF30
ENDCHAR
STARTCHAR ucircumflex
ENCODING 251
SWIDTH 657 0
DWIDTH 18 0
BBX 15 21 2 0
BITMAP
0000AFFFFD100000
0008FFFFFFC10000
008FFF86EFFC1000
08FFB30019FFC000
0000000000000000
0000000000000000
DFFF400000EFFF30
DFFF400000EFFF30
DFFF400000EFFF30
DFFF400000EFFF30
DFFF400000EFFF30
DFFF400000EFFF30
DFFF400000EFFF30
DFFF400000FFFF30
DFFF400001FFFF30
DFFF600004FFFF30
CFFFA0000BFFFF30
AFFFFA66CFFFFF30
4FFFFFFFFFEFFF30
09FFFFFFF95FFF30
005BEFEA402FFF30
ENDCHAR
STARTCHAR udieresis
ENCODING 252
SWIDTH 657 0
DWIDTH 18 0
BBX 15 21 2 0
BITMAP
0007950039810000
006FFF20DFFA0000
007FFF30FFFB0000
002CEA007ED40000
0000000000000000
0000000000000000
DFFF400000EFFF30
DFFF400000EFFF30
DFFF400000EFFF30
DFFF400000EFFF30
DFFF400000EFFF30
DFFF400000EFFF30
DFFF400000EFFF30
DFFF400000FFFF30
DFFF400001FFFF30
DFFF600004FFFF30
CFFFA0000BFFFF30
AFFFFA66CFFFFF30
4FFFFFFFFFEFFF30
09FFFFFFF95FFF30
005BEFEA402FFF30
ENDCHAR
STARTCHAR yacute
ENCODING 253
SWIDTH 568 0
DWIDTH 16 0
BBX 16 28 0 -7
BITMAP
00000000CFFFC100
00000009FFFA1000
0000008FFE600000
000006FFB2000000
0000000000000000
0000000000000000
CFFFB000000BFFFB
6FFFF100001FFFF5
1EFFF600006FFFE1
09FFFB0000BFFF90
03FFFF2001FFFF30
00CFFF7006FFFD00
006FFFC00BFFF700
000EFFF21FFFF200
0008FFF76FFFB000
0002FFFBAFFF5000
0000BFFDDFFE0000
00005FFFFFF90000
00000EFFFFF30000
000008FFFFD00000
000002FFFF700000
000001FFFF200000
000007FFFB000000
00002EFFF5000000
0768EFFFC0000000
1FFFFFFF30000000
1FFFFFE400000000
1CEFD82000000000
ENDCHAR
STARTCHAR thorn
ENCODING 254
SWIDTH 632 0
DWIDTH 18 0
BBX 15 28 2 -7
BITMAP
CFFF500000000000
CFFF500000000000
CFFF500000000000
CFFF500000000000
CFFF500000000000
CFFF500000000000
CFFF519DFEB40000
CFFF6EFFFFFF7000
CFFFFFFFFFFFF400
CFFFFD769FFFFB00
CFFFD10007FFFF20
CFFF800001FFFF50
CFFF600000DFFF60
CFFF500000CFFF70
CFFF600000DFFF60
CFFF900001FFFF50
CFFFE20007FFFF20
CFFFFE869FFFFB00
CFFFFFFFFFFFF400
CFFF9FFFFFFF7000
CFFF43ADFEB40000
CFFF500000000000
CFFF500000000000
CFFF500000000000
CFFF500000000000
CFFF500000000000
CFFF500000000000
CFFF500000000000
ENDCHAR
STARTCHAR ydieresis
ENCODING 255
SWIDTH 568 0
DWIDTH 16 0
BBX 16 28 0 -7
BITMAP
0001893004981000
0008FFE01FFF8000
0009FFF12FFF9000
0003DE8009ED3000
0000000000000000
0000000000000000
CFFFB000000BFFFB
6FFFF100001FFFF5
1EFFF600006FFFE1
09FFFB0000BFFF90
03FFFF2001FFFF30
00CFFF7006FFFD00
006FFFC00BFFF700
000EFFF21FFFF200
0008FFF76FFFB000
0002FFFBAFFF5000
0000BFFDDFFE0000
00005FFFFFF90000
00000EFFFFF30000
000008FFFFD00000
000002FFFF700000
000001FFFF200000
000007FFFB000000
00002EFFF5000000
0768EFFFC0000000
1FFFFFFF30000000
1FFFFFE400000000
1CEFD82000000000
ENDCHAR
STARTCHAR Amacron
ENCODING 256
SWIDTH 689 0
DWIDTH 19 0
BBX 20 25 0 0
BITMAP
00000CDDDDDDDD500000
00000EFFFFFFFF500000
00000EFFFFFFFF500000
00000000000000000000
00000000000000000000
0000002FFFFF60000000
0000007FFFFFB0000000
000000CFFFFFF2000000
000003FFFCFFF7000000
000008FFF5EFFC000000
00000DFFF1AFFF300000
00004FFFB06FFF800000
00009FFF601FFFD00000
0000EFFF200CFFF40000
0004FFFC0007FFF90000
000AFFF80002FFFE0000
001EFFF30000DFFF5000
005FFFFFFFFFFFFFA000
00BFFFFFFFFFFFFFE100
01FFFFFFFFFFFFFFF500
06FFFF8888888DFFFB00
0CFFFB00000006FFFF10
2FFFF600000001FFFF60
7FFFF100000000BFFFC0
CFFFB0000000006FFFF2
ENDCHAR
STARTCHAR amacron
ENCODING 257
SWIDTH 604 0
DWIDTH 17 0
BBX 14 20 1 0
BITMAP
000DDDDDDDDD40
000FFFFFFFFF40
000FFFFFFFFF40
00000000000000
00000000000000
0016ADEFEC8200
03EFFFFFFFFF60
00DFFFFFFFFFF3
005E95225EFFF9
0001000007FFFB
0000000005FFFC
0016ACDEEFFFFC
07EFFFFFFFFFFC
5FFFFEA879FFFC
AFFFC10005FFFC
CFFF800009FFFC
BFFFD3139FFFFC
7FFFFFFFFEEFFC
1CFFFFFFE39FFC
018DFED9204FFC
ENDCHAR
STARTCHAR Abreve
ENCODING 258
SWIDTH 689 0
DWIDTH 19 0
BBX 20 27 0 0
BITMAP
0000AFA000007FE00000
00007FF60005EFB00000
00001EFFFEFFFF400000
000005FFFFFFF7000000
0000003AEFEA40000000
00000000000000000000
00000000000000000000
0000002FFFFF60000000
0000007FFFFFB0000000
000000CFFFFFF2000000
000003FFFCFFF7000000
000008FFF5EFFC000000
00000DFFF1AFFF300000
00004FFFB06FFF800000
00009FFF601FFFD00000
0000EFFF200CFFF40000
0004FFFC0007FFF90000
000AFFF80002FFFE0000
001EFFF30000DFFF5000
005FFFFFFFFFFFFFA000
00BFFFFFFFFFFFFFE100
01FFFFFFFFFFFFFFF500
06FFFF8888888DFFFB00
0CFFFB00000006FFFF10
2FFFF600000001FFFF60
7FFFF100000000BFFFC0
CFFFB0000000006FFFF2
ENDCHAR
STARTCHAR abreve
ENCODING 259
SWIDTH 604 0
DWIDTH 17 0
BBX 14 22 1 0
BITMAP
00AFA000007FE0
007FF60005EFB0
001EFFFEFFFF40
0005FFFFFFF700
00003AEFEA4000
00000000000000
00000000000000
0016ADEFEC8200
03EFFFFFFFFF60
00DFFFFFFFFFF3
005E95225EFFF9
0001000007FFFB
0000000005FFFC
0016ACDEEFFFFC
07EFFFFFFFFFFC
5FFFFEA879FFFC
AFFFC10005FFFC
CFFF800009FFFC
BFFFD3139FFFFC
7FFFFFFFFEEFFC
1CFFFFFFE39FFC
018DFED9204FFC
ENDCHAR
STARTCHAR Aogonek
ENCODING 260
SWIDTH 689 0
DWIDTH 19 0
BBX 20 27 0 -7
BITMAP
0000002FFFFF60000000
0000007FFFFFB0000000
000000CFFFFFF2000000
000003FFFCFFF7000000
000008FFF5EFFC000000
00000DFFF1AFFF300000
00004FFFB06FFF800000
00009FFF601FFFD00000
0000EFFF200CFFF40000
0004FFFC0007FFF90000
000AFFF80002FFFE0000
001EFFF30000DFFF5000
005FFFFFFFFFFFFFA000
00BFFFFFFFFFFFFFE100
01FFFFFFFFFFFFFFF500
06FFFF8888888DFFFB00
0CFFFB00000006FFFF10
2FFFF600000001FFFF60
7FFFF100000000BFFFC0
CFFFB0000000006FFFF2
00000000000001BFB000
0000000000000CFD1000
0000000000006FF60000
0000000000009FF40000
0000000000008FFC8900
0000000000002FFFFD00
00000000000004CEEA00
ENDCHAR
STARTCHAR aogonek
ENCODING 261
SWIDTH 604 0
DWIDTH 17 0
BBX 15 22 1 -7
BITMAP
0016ADEFEC820000
03EFFFFFFFFF6000
00DFFFFFFFFFF300
005E95225EFFF900
0001000007FFFB00
0000000005FFFC00
0016ACDEEFFFFC00
07EFFFFFFFFFFC00
5FFFFEA879FFFC00
AFFFC10005FFFC00
CFFF800009FFFC00
BFFFD3139FFFFC00
7FFFFFFFFEEFFC00
1CFFFFFFE39FFC00
018DFED9204FFC00
00000000009FD100
0000000009FE2000
000000003FF80000
000000007FF60000
000000005FFD8A00
000000001DFFFF10
0000000002BEEC00
ENDCHAR
STARTCHAR Cacute
ENCODING 262
SWIDTH 637 0
DWIDTH 18 0
BBX 16 26 1 0
BITMAP
0000000001EFFFB0
000000001CFFF800
00000000AFFD4000
00000009FFA10000
0000000000000000
0000000000000000
0000016BDFFDB720
00006EFFFFFFFFF9
0009FFFFFFFFFFF6
007FFFFFB99BFFE1
02FFFFD300001780
09FFFF3000000000
0EFFF90000000000
2FFFF40000000000
4FFFF10000000000
5FFFF00000000000
5FFFF00000000000
4FFFF10000000000
3FFFF30000000000
0EFFF80000000000
0AFFFE1000000000
04FFFFC200000161
00BFFFFFB98ADFF2
001DFFFFFFFFFFF2
0001AFFFFFFFFFF2
0000038CEFEDB830
ENDCHAR
STARTCHAR cacute
ENCODING 263
SWIDTH 514 0
DWIDTH 14 0
BBX 13 21 1 0
BITMAP
00000002EFFF90
0000001DFFF600
000001CFFC3000
00000BFF800000
00000000000000
00000000000000
00017BEFEDA610
004EFFFFFFFF50
04FFFFFFFFFE00
0DFFFF967AE900
4FFFF500000100
8FFFC000000000
AFFF9000000000
BFFF8000000000
AFFF9000000000
9FFFC000000000
5FFFF400000600
1EFFFF9669DF10
07FFFFFFFFFF10
008FFFFFFFFF10
00039CEFED9300
ENDCHAR
STARTCHAR Ccircumflex
ENCODING 264
SWIDTH 637 0
DWIDTH 18 0
BBX 16 26 1 0
BITMAP
0000002EFFFFA000
000001CFFFFFF800
00001CFFE59FFF80
0001CFF81004BFF8
0000000000000000
0000000000000000
0000016BDFFDB720
00006EFFFFFFFFF9
0009FFFFFFFFFFF6
007FFFFFB99BFFE1
02FFFFD300001780
09FFFF3000000000
0EFFF90000000000
2FFFF40000000000
4FFFF10000000000
5FFFF00000000000
5FFFF00000000000
4FFFF10000000000
3FFFF30000000000
0EFFF80000000000
0AFFFE1000000000
04FFFFC200000161
00BFFFFFB98ADFF2
001DFFFFFFFFFFF2
0001AFFFFFFFFFF2
0000038CEFEDB830
ENDCHAR
STARTCHAR ccircumflex
ENCODING 265
SWIDTH 514 0
DWIDTH 14 0
BBX 14 21 1 0
BITMAP
00009FFFFE2000
0007FFFFFFD100
007FFF95EFFD20
07FFC40018EFD1
00000000000000
00000000000000
00017BEFEDA610
004EFFFFFFFF50
04FFFFFFFFFE00
0DFFFF967AE900
4FFFF500000100
8FFFC000000000
AFFF9000000000
BFFF8000000000
AFFF9000000000
9FFFC000000000
5FFFF400000600
1EFFFF9669DF10
07FFFFFFFFFF10
008FFFFFFFFF10
00039CEFED9300
ENDCHAR
STARTCHAR Cdot
ENCODING 266
SWIDTH 637 0
DWIDTH 18 0
BBX 16 27 1 0
BITMAP
0000000001000000
00000001CFF60000
00000007FFFE0000
00000006FFFE0000
00000001BED50000
0000000000000000
0000000000000000
0000016BDFFDB720
00006EFFFFFFFFF9
0009FFFFFFFFFFF6
007FFFFFB99BFFE1
02FFFFD300001780
09FFFF3000000000
0EFFF90000000000
2FFFF40000000000
4FFFF10000000000
5FFFF00000000000
5FFFF00000000000
4FFFF10000000000
3FFFF30000000000
0EFFF80000000000
0AFFFE1000000000
04FFFFC200000161
00BFFFFFB98ADFF2
001DFFFFFFFFFFF2
0001AFFFFFFFFFF2
0000038CEFEDB830
ENDCHAR
STARTCHAR cdot
ENCODING 267
SWIDTH 514 0
DWIDTH 14 0
BBX 13 22 1 0
BITMAP
00000001000000
000003DFE50000
000009FFFC0000
000009FFFB0000
000002CFD30000
00000000000000
00000000000000
00017BEFEDA610
004EFFFFFFFF50
04FFFFFFFFFE00
0DFFFF967AE900
4FFFF500000100
8FFFC000000000
AFFF9000000000
BFFF8000000000
AFFF9000000000
9FFFC000000000
5FFFF400000600
1EFFFF9669DF10
07FFFFFFFFFF10
008FFFFFFFFF10
00039CEFED9300
ENDCHAR
STARTCHAR Ccaron
ENCODING 268
SWIDTH 637 0
DWIDTH 18 0
BBX 16 26 1 0
BITMAP
0000CFF81003BFF8
00001CFFE58FFF90
000001CFFFFFF800
0000001DFFFFA000
0000000000000000
0000000000000000
0000016BDFFDB720
00006EFFFFFFFFF9
0009FFFFFFFFFFF6
007FFFFFB99BFFE1
02FFFFD300001780
09FFFF3000000000
0EFFF90000000000
2FFFF40000000000
4FFFF10000000000
5FFFF00000000000
5FFFF00000000000
4FFFF10000000000
3FFFF30000000000
0EFFF80000000000
0AFFFE1000000000
04FFFFC200000161
00BFFFFFB98ADFF2
001DFFFFFFFFFFF2
0001AFFFFFFFFFF2
0000038CEFEDB830
ENDCHAR
STARTCHAR ccaron
ENCODING 269
SWIDTH 514 0
DWIDTH 14 0
BBX 14 21 1 0
BITMAP
04FFD50006DFE3
004EFFB4CFFE40
0004FFFFFFE400
00005FFFFF5000
00000000000000
00000000000000
00017BEFEDA610
004EFFFFFFFF50
04FFFFFFFFFE00
0DFFFF967AE900
4FFFF500000100
8FFFC000000000
AFFF9000000000
BFFF8000000000
AFFF9000000000
9FFFC000000000
5FFFF400000600
1EFFFF9669DF10
07FFFFFFFFFF10
008FFFFFFFFF10
00039CEFED9300
ENDCHAR
STARTCHAR Dcaron
ENCODING 270
SWIDTH 740 0
DWIDTH 21 0
BBX 18 26 2 0
BITMAP
00CFF91003AFF90000
001BFFE58FFF900000
0001BFFFFFF9000000
00001DFFFFB0000000
000000000000000000
000000000000000000
7FFFFFFEDB83000000
7FFFFFFFFFFFB20000
7FFFFFFFFFFFFE4000
7FFFD7789DFFFFE300
7FFFB000007FFFFC00
7FFFB0000007FFFF50
7FFFB0000000DFFF90
7FFFB00000009FFFD0
7FFFB00000006FFFF0
7FFFB00000005FFFF1
7FFFB00000005FFFF1
7FFFB00000006FFFE0
7FFFB00000009FFFC0
7FFFB0000001EFFF80
7FFFB0000009FFFF30
7FFFB000019FFFFB00
7FFFD888BEFFFFE200
7FFFFFFFFFFFFD3000
7FFFFFFFFFFF910000
7FFFFFFEDA61000000
ENDCHAR
STARTCHAR dcaron
ENCODING 271
SWIDTH 632 0
DWIDTH 18 0
BBX 21 21 1 0
BITMAP
0000000000AFFF806FFF50
0000000000AFFF809FFD00
0000000000AFFF80CFF600
0000000000AFFF81FFC000
0000000000AFFF81773000
00000000009FFF80000000
0006BEED818FFF80000000
00AFFFFFFD8FFF80000000
07FFFFFFFFFFFF80000000
1EFFFF869EFFFF80000000
5FFFF40002EFFF80000000
9FFFC000009FFF80000000
AFFF9000006FFF80000000
BFFF8000005FFF80000000
AFFF8000006FFF80000000
9FFFB000008FFF80000000
6FFFF30001DFFF80000000
1FFFFE857DFFFF80000000
08FFFFFFFFEFFF80000000
00BFFFFFFC4FFF80000000
0006CEEC700CFF80000000
ENDCHAR
STARTCHAR Dcroat
ENCODING 272
SWIDTH 740 0
DWIDTH 21 0
BBX 20 20 0 0
BITMAP
007FFFFFFEDB83000000
007FFFFFFFFFFFB20000
007FFFFFFFFFFFFE4000
007FFFD7789DFFFFE300
007FFFB000007FFFFC00
007FFFB0000007FFFF50
007FFFB0000000DFFF90
007FFFB00000009FFFD0
5FFFFFFFFF00006FFFF0
5FFFFFFFFF00005FFFF1
5FFFFFFFFF00005FFFF1
37BFFFD77700006FFFE0
007FFFB00000009FFFC0
007FFFB0000001EFFF80
007FFFB0000009FFFF30
007FFFB000019FFFFB00
007FFFD889BEFFFFE200
007FFFFFFFFFFFFD3000
007FFFFFFFFFFF910000
007FFFFFFEDA61000000
ENDCHAR
STARTCHAR dcroat
ENCODING 273
SWIDTH 648 0
DWIDTH 18 0
BBX 17 21 1 0
BITMAP
0000000000AFFF8000
0000000000AFFF8000
000000EFFFFFFFFFA0
000000EFFFFFFFFFA0
000000ABBBEFFFDB70
00000000009FFF8000
0018DEEC709FFF8000
02EFFFFFFC8FFF8000
0BFFFFFFFFEFFF8000
3FFFFF968DFFFF8000
7FFFF50001DFFF8000
9FFFE000008FFF8000
AFFFD000006FFF8000
BFFFC000005FFF8000
AFFFD000006FFF8000
9FFFF100008FFF8000
6FFFF60001DFFF8000
1FFFFF857DFFFF8000
08FFFFFFFFEFFF8000
01BFFFFFF76FFF8000
0007CEEB501FFF8000
ENDCHAR
STARTCHAR Emacron
ENCODING 274
SWIDTH 560 0
DWIDTH 16 0
BBX 12 25 2 0
BITMAP
03DDDDDDDDD0
04FFFFFFFFF0
04FFFFFFFFF0
000000000000
000000000000
7FFFFFFFFFFF
7FFFFFFFFFFF
7FFFFFFFFFFF
7FFFD7777777
7FFFB0000000
7FFFB0000000
7FFFB0000000
7FFFB0000000
7FFFFFFFFFF8
7FFFFFFFFFF8
7FFFFFFFFFF8
7FFFD7777774
7FFFB0000000
7FFFB0000000
7FFFB0000000
7FFFB0000000
7FFFD8888888
7FFFFFFFFFFF
7FFFFFFFFFFF
7FFFFFFFFFFF
ENDCHAR
STARTCHAR emacron
ENCODING 275
SWIDTH 590 0
DWIDTH 17 0
BBX 15 20 1 0
BITMAP
002DDDDDDDDD1000
003FFFFFFFFF1000
003FFFFFFFFF1000
0000000000000000
0000000000000000
00017CEFEC710000
004EFFFFFFFE3000
03FFFFFFFFFFE200
0DFFFB302BFFFA00
4FFFE10001DFFF10
8FFFA00000AFFF40
AFFFFFFFFFFFFF50
BFFFFFFFFFFFFF50
AFFFDCCCCCCCCC40
8FFFA00000000000
4FFFE20000000000
0CFFFE732357B700
03EFFFFFFFFFF700
003DFFFFFFFFF700
00006ADEFEDA5000
ENDCHAR
STARTCHAR Ebreve
ENCODING 276
SWIDTH 560 0
DWIDTH 16 0
BBX 12 27 2 0
BITMAP
2FF300000EF7
0EFC2002AFF4
08FFFEEFFFC0
00BFFFFFFD20
0007CEFD8100
000000000000
000000000000
7FFFFFFFFFFF
7FFFFFFFFFFF
7FFFFFFFFFFF
7FFFD7777777
7FFFB0000000
7FFFB0000000
7FFFB0000000
7FFFB0000000
7FFFFFFFFFF8
7FFFFFFFFFF8
7FFFFFFFFFF8
7FFFD7777774
7FFFB0000000
7FFFB0000000
7FFFB0000000
7FFFB0000000
7FFFD8888888
7FFFFFFFFFFF
7FFFFFFFFFFF
7FFFFFFFFFFF
ENDCHAR
STARTCHAR ebreve
ENCODING 277
SWIDTH 590 0
DWIDTH 17 0
BBX 15 22 1 0
BITMAP
00DF800000AFC000
00AFE40016FF8000
003FFFEEFFFF2000
0007FFFFFFF50000
00004BEFD9200000
0000000000000000
0000000000000000
00017CEFEC710000
004EFFFFFFFE3000
03FFFFFFFFFFE200
0DFFFB302BFFFA00
4FFFE10001DFFF10
8FFFA00000AFFF40
AFFFFFFFFFFFFF50
BFFFFFFFFFFFFF50
AFFFDCCCCCCCCC40
8FFFA00000000000
4FFFE20000000000
0CFFFE732357B700
03EFFFFFFFFFF700
003DFFFFFFFFF700
00006ADEFEDA5000
ENDCHAR
STARTCHAR Edotaccent
ENCODING 278
SWIDTH 560 0
DWIDTH 16 0
BBX 12 27 2 0
BITMAP
000000100000
00004EFD3000
0000CFFF9000
0000BFFF9000
00004DFC2000
000000000000
000000000000
7FFFFFFFFFFF
7FFFFFFFFFFF
7FFFFFFFFFFF
7FFFD7777777
7FFFB0000000
7FFFB0000000
7FFFB0000000
7FFFB0000000
7FFFFFFFFFF8
7FFFFFFFFFF8
7FFFFFFFFFF8
7FFFD7777774
7FFFB0000000
7FFFB0000000
7FFFB0000000
7FFFB0000000
7FFFD8888888
7FFFFFFFFFFF
7FFFFFFFFFFF
7FFFFFFFFFFF
ENDCHAR
STARTCHAR edotaccent
ENCODING 279
SWIDTH 590 0
DWIDTH 17 0
BBX 15 22 1 0
BITMAP
0000000100000000
000002DFE5000000
000008FFFC000000
000008FFFC000000
000002CFD4000000
0000000000000000
0000000000000000
00017CEFEC710000
004EFFFFFFFE3000
03FFFFFFFFFFE200
0DFFFB302BFFFA00
4FFFE10001DFFF10
8FFFA00000AFFF40
AFFFFFFFFFFFFF50
BFFFFFFFFFFFFF50
AFFFDCCCCCCCCC40
8FFFA00000000000
4FFFE20000000000
0CFFFE732357B700
03EFFFFFFFFFF700
003DFFFFFFFFF700
00006ADEFEDA5000
ENDCHAR
STARTCHAR Eogonek
ENCODING 280
SWIDTH 560 0
DWIDTH 16 0
BBX 12 27 2 -7
BITMAP
7FFFFFFFFFFF
7FFFFFFFFFFF
7FFFFFFFFFFF
7FFFD7777777
7FFFB0000000
7FFFB0000000
7FFFB0000000
7FFFB0000000
7FFFFFFFFFF8
7FFFFFFFFFF8
7FFFFFFFFFF8
7FFFD7777774
7FFFB0000000
7FFFB0000000
7FFFB0000000
7FFFB0000000
7FFFD8888888
7FFFFFFFFFFF
7FFFFFFFFFFF
7FFFFFFFFFFF
00000005EF50
0000004FF700
000000DFE000
000001FFC000
000000FFF994
0000009FFFF6
00000018DFD4
ENDCHAR
STARTCHAR eogonek
ENCODING 281
SWIDTH 590 0
DWIDTH 17 0
BBX 15 22 1 -7
BITMAP
00017CEFEC710000
004EFFFFFFFE3000
03FFFFFFFFFFE200
0DFFFB302BFFFA00
4FFFE10001DFFF10
8FFFA00000AFFF40
AFFFFFFFFFFFFF50
BFFFFFFFFFFFFF50
AFFFDCCCCCCCCC40
8FFFA00000000000
4FFFE20000000000
0CFFFE732357B700
03EFFFFFFFFFF700
003DFFFFFFFFF700
00006ADEFEDA5000
000000003EF70000
00000003EF900000
0000000BFF100000
0000000EFE000000
0000000DFFA96000
00000007FFFF8000
000000007DFD6000
ENDCHAR
STARTCHAR Ecaron
ENCODING 282
SWIDTH 560 0
DWIDTH 16 0
BBX 13 26 2 0
BITMAP
6FFC40017EFE20
06FFF94DFFD200
006FFFFFFE2000
0007FFFFF30000
00000000000000
00000000000000
7FFFFFFFFFFF00
7FFFFFFFFFFF00
7FFFFFFFFFFF00
7FFFD777777700
7FFFB000000000
7FFFB000000000
7FFFB000000000
7FFFB000000000
7FFFFFFFFFF800
7FFFFFFFFFF800
7FFFFFFFFFF800
7FFFD777777400
7FFFB000000000
7FFFB000000000
7FFFB000000000
7FFFB000000000
7FFFD888888800
7FFFFFFFFFFF00
7FFFFFFFFFFF00
7FFFFFFFFFFF00
ENDCHAR
STARTCHAR ecaron
ENCODING 283
SWIDTH 590 0
DWIDTH 17 0
BBX 15 21 1 0
BITMAP
03EFD50006DFF400
004EFFB4CFFE4000
0003EFFFFFF40000
00005FFFFF500000
0000000000000000
0000000000000000
00017CEFEC710000
004EFFFFFFFE3000
03FFFFFFFFFFE200
0DFFFB302BFFFA00
4FFFE10001DFFF10
8FFFA00000AFFF40
AFFFFFFFFFFFFF50
BFFFFFFFFFFFFF50
AFFFDCCCCCCCCC40
8FFFA00000000000
4FFFE20000000000
0CFFFE732357B700
03EFFFFFFFFFF700
003DFFFFFFFFF700
00006ADEFEDA5000
ENDCHAR
STARTCHAR Gcircumflex
ENCODING 284
SWIDTH 724 0
DWIDTH 20 0
BBX 17 26 1 0
BITMAP
0000000CFFFFC00000
000000AFFFFFFA0000
00000AFFE67FFFA000
0000AFFA2002AFFB00
000000000000000000
000000000000000000
00000048CDEFEC9500
00003CFFFFFFFFFFC0
0006FFFFFFFFFFFF70
005FFFFFEB98ADFF10
01EFFFF91000003600
08FFFF800000000000
0DFFFC000000000000
2FFFF6000000000000
4FFFF2000000000000
5FFFF0000DFFFFFFF0
5FFFF0000DFFFFFFF0
4FFFF1000DFFFFFFF0
3FFFF40007889FFFF0
0EFFF90000002FFFF0
0AFFFE2000002FFFF0
04FFFFD300002FFFF0
00AFFFFFC989CFFFF0
001CFFFFFFFFFFFFF0
00019FFFFFFFFFFFF0
0000028BDFEDCB8410
ENDCHAR
STARTCHAR gcircumflex
ENCODING 285
SWIDTH 564 0
DWIDTH 16 0
BBX 16 28 0 -7
BITMAP
00001CFFFFC00000
0000AFFFFFFA0000
000AFFE67FFFA000
00BFFA2002AFFA00
0000000000000000
0000000000000000
00028CEFFFFFFFF7
005FFFFFFFFFFFF7
02FFFFB9BFFFFA61
08FFF90009FFF600
0BFFF40004FFFA00
0BFFF40004FFFB00
08FFF90009FFF800
02EFFFC9BFFFE200
003DFFFFFFFE4000
001AFFEFEC710000
00CFF60000000000
01FFFC6555531000
00CFFFFFFFFFE800
002DFFFFFFFFFF90
06EFFFFFFFFFFFF1
5FFFA200014DFFF4
BFFD00000007FFF4
DFFC00000009FFF2
CFFF5000028FFFB0
6FFFFDBCDFFFFE20
09FFFFFFFFFFC200
0039CEFEEB840000
ENDCHAR
STARTCHAR Gbreve
ENCODING 286
SWIDTH 724 0
DWIDTH 20 0
BBX 17 27 1 0
BITMAP
00004FF200001FF600
00001FFB1002BFF200
000009FFFEEFFFA000
000001CFFFFFFC1000
00000017CFEC700000
000000000000000000
000000000000000000
00000048CDEFEC9500
00003CFFFFFFFFFFC0
0006FFFFFFFFFFFF70
005FFFFFEB98ADFF10
01EFFFF91000003600
08FFFF800000000000
0DFFFC000000000000
2FFFF6000000000000
4FFFF2000000000000
5FFFF0000DFFFFFFF0
5FFFF0000DFFFFFFF0
4FFFF1000DFFFFFFF0
3FFFF40007889FFFF0
0EFFF90000002FFFF0
0AFFFE2000002FFFF0
04FFFFD300002FFFF0
00AFFFFFC989CFFFF0
001CFFFFFFFFFFFFF0
00019FFFFFFFFFFFF0
0000028BDFEDCB8410
ENDCHAR
STARTCHAR gbreve
ENCODING 287
SWIDTH 564 0
DWIDTH 16 0
BBX 16 29 0 -7
BITMAP
004FF200001FF600
001FFB1002BFF200
0009FFFEEFFFA000
0001CFFFFFFC1000
000017CFEC700000
0000000000000000
0000000000000000
00028CEFFFFFFFF7
005FFFFFFFFFFFF7
02FFFFB9BFFFFA61
08FFF90009FFF600
0BFFF40004FFFA00
0BFFF40004FFFB00
08FFF90009FFF800
02EFFFC9BFFFE200
003DFFFFFFFE4000
001AFFEFEC710000
00CFF60000000000
01FFFC6555531000
00CFFFFFFFFFE800
002DFFFFFFFFFF90
06EFFFFFFFFFFFF1
5FFFA200014DFFF4
BFFD00000007FFF4
DFFC00000009FFF2
CFFF5000028FFFB0
6FFFFDBCDFFFFE20
09FFFFFFFFFFC200
0039CEFEEB840000
ENDCHAR
STARTCHAR Gdot
ENCODING 288
SWIDTH 724 0
DWIDTH 20 0
BBX 17 27 1 0
BITMAP
000000000010000000
000000007FFC100000
00000000EFFF600000
00000000EFFF600000
000000005DEA100000
000000000000000000
000000000000000000
00000048CDEFEC9500
00003CFFFFFFFFFFC0
0006FFFFFFFFFFFF70
005FFFFFEB98ADFF10
01EFFFF91000003600
08FFFF800000000000
0DFFFC000000000000
2FFFF6000000000000
4FFFF2000000000000
5FFFF0000DFFFFFFF0
5FFFF0000DFFFFFFF0
4FFFF1000DFFFFFFF0
3FFFF40007889FFFF0
0EFFF90000002FFFF0
0AFFFE2000002FFFF0
04FFFFD300002FFFF0
00AFFFFFC989CFFFF0
001CFFFFFFFFFFFFF0
00019FFFFFFFFFFFF0
0000028BDFEDCB8410
ENDCHAR
STARTCHAR gdot
ENCODING 289
SWIDTH 564 0
DWIDTH 16 0
BBX 16 29 0 -7
BITMAP
0000000100000000
000000BFF8000000
000005FFFF100000
000004FFFF100000
000000AEE7000000
0000000000000000
0000000000000000
00028CEFFFFFFFF7
005FFFFFFFFFFFF7
02FFFFB9BFFFFA61
08FFF90009FFF600
0BFFF40004FFFA00
0BFFF40004FFFB00
08FFF90009FFF800
02EFFFC9BFFFE200
003DFFFFFFFE4000
001AFFEFEC710000
00CFF60000000000
01FFFC6555531000
00CFFFFFFFFFE800
002DFFFFFFFFFF90
06EFFFFFFFFFFFF1
5FFFA200014DFFF4
BFFD00000007FFF4
DFFC00000009FFF2
CFFF5000028FFFB0
6FFFFDBCDFFFFE20
09FFFFFFFFFFC200
0039CEFEEB840000
ENDCHAR
STARTCHAR Gcommaaccent
ENCODING 290
SWIDTH 724 0
DWIDTH 20 0
BBX 17 26 1 -6
BITMAP
00000048CDEFEC9500
00003CFFFFFFFFFFC0
0006FFFFFFFFFFFF70
005FFFFFEB98ADFF10
01EFFFF91000003600
08FFFF800000000000
0DFFFC000000000000
2FFFF6000000000000
4FFFF2000000000000
5FFFF0000DFFFFFFF0
5FFFF0000DFFFFFFF0
4FFFF1000DFFFFFFF0
3FFFF40007889FFFF0
0EFFF90000002FFFF0
0AFFFE2000002FFFF0
04FFFFD300002FFFF0
00AFFFFFC989CFFFF0
001CFFFFFFFFFFFFF0
00019FFFFFFFFFFFF0
0000028BDFEDCB8410
000000000000000000
000000000000000000
00000000AFFF200000
00000000DFF9000000
00000001FFE1000000
00000005FF50000000
ENDCHAR
STARTCHAR gcommaaccent
ENCODING 291
SWIDTH 564 0
DWIDTH 16 0
BBX 16 28 0 -7
BITMAP
00000004FF600000
0000001DFF300000
0000008FFE000000
000001EFFB000000
0000000000000000
0000000000000000
00028CEFFFFFFFF7
005FFFFFFFFFFFF7
02FFFFB9BFFFFA61
08FFF90009FFF600
0BFFF40004FFFA00
0BFFF40004FFFB00
08FFF90009FFF800
02EFFFC9BFFFE200
003DFFFFFFFE4000
001AFFEFEC710000
00CFF60000000000
01FFFC6555531000
00CFFFFFFFFFE800
002DFFFFFFFFFF90
06EFFFFFFFFFFFF1
5FFFA200014DFFF4
BFFD00000007FFF4
DFFC00000009FFF2
CFFF5000028FFFB0
6FFFFDBCDFFFFE20
09FFFFFFFFFFC200
0039CEFEEB840000
ENDCHAR
STARTCHAR Hcircumflex
ENCODING 292
SWIDTH 765 0
DWIDTH 21 0
BBX 17 26 2 0
BITMAP
000003EFFFF7000000
00002DFFFFFF600000
0002DFFD4BFFF60000
002EFE70005CFF6000
000000000000000000
000000000000000000
7FFFB00000005FFFD0
7FFFB00000005FFFD0
7FFFB00000005FFFD0
7FFFB00000005FFFD0
7FFFB00000005FFFD0
7FFFB00000005FFFD0
7FFFB00000005FFFD0
7FFFB00000005FFFD0
7FFFFFFFFFFFFFFFD0
7FFFFFFFFFFFFFFFD0
7FFFFFFFFFFFFFFFD0
7FFFD8888888AFFFD0
7FFFB00000005FFFD0
7FFFB00000005FFFD0
7FFFB00000005FFFD0
7FFFB00000005FFFD0
7FFFB00000005FFFD0
7FFFB00000005FFFD0
7FFFB00000005FFFD0
7FFFB00000005FFFD0
ENDCHAR
STARTCHAR hcircumflex
ENCODING 293
SWIDTH 657 0
DWIDTH 18 0
BBX 15 26 2 0
BITMAP
00009FFFFE200000
0007FFFFFFC10000
007FFF95EFFC1000
07FFB30018FFD100
0000000000000000
CFFF500000000000
CFFF500000000000
CFFF500000000000
CFFF500000000000
CFFF500000000000
CFFF500000000000
CFFF418DFEC71000
CFFF5DFFFFFFD100
CFFFEFFFFFFFFA00
CFFFFE868EFFFF10
CFFFF30005FFFF30
CFFFA00000FFFF40
CFFF700000DFFF40
CFFF600000DFFF40
CFFF500000DFFF40
CFFF500000DFFF40
CFFF500000DFFF40
CFFF500000DFFF40
CFFF500000DFFF40
CFFF500000DFFF40
CFFF500000DFFF40
ENDCHAR
STARTCHAR Hbar
ENCODING 294
SWIDTH 765 0
DWIDTH 21 0
BBX 22 20 0 0
BITMAP
007FFFB00000005FFFD000
007FFFB00000005FFFD000
007FFFB00000005FFFD000
FFFFFFFFFFFFFFFFFFFFF6
FFFFFFFFFFFFFFFFFFFFF6
BBDFFFEBBBBBBBCFFFFBB5
007FFFB00000005FFFD000
007FFFB00000005FFFD000
007FFFFFFFFFFFFFFFD000
007FFFFFFFFFFFFFFFD000
007FFFFFFFFFFFFFFFD000
007FFFD8888888AFFFD000
007FFFB00000005FFFD000
007FFFB00000005FFFD000
007FFFB00000005FFFD000
007FFFB00000005FFFD000
007FFFB00000005FFFD000
007FFFB00000005FFFD000
007FFFB00000005FFFD000
007FFFB00000005FFFD000
ENDCHAR
STARTCHAR hbar
ENCODING 295
SWIDTH 657 0
DWIDTH 18 0
BBX 17 21 0 0
BITMAP
00CFFF500000000000
00CFFF500000000000
EFFFFFFFFFA0000000
EFFFFFFFFFA0000000
ABEFFFCBBB70000000
00CFFF500000000000
00CFFF418DEEC71000
00CFFF5DFFFFFFC100
00CFFFEFFFFFFFF900
00CFFFFE858EFFFF00
00CFFFF30005FFFF30
00CFFFB00000FFFF40
00CFFF800000EFFF40
00CFFF600000DFFF40
00CFFF500000DFFF40
00CFFF500000DFFF40
00CFFF500000DFFF40
00CFFF500000DFFF40
00CFFF500000DFFF40
00CFFF500000DFFF40
00CFFF500000DFFF40
ENDCHAR
STARTCHAR Itilde
ENCODING 296
SWIDTH 331 0
DWIDTH 9 0
BBX 12 26 -1 0
BITMAP
04CFD8201EF3
3FFFFFFDEFE0
AFFCFFFFFF70
EF4016CED700
000000000000
000000000000
0007FFFB0000
0007FFFB0000
0007FFFB0000
0007FFFB0000
0007FFFB0000
0007FFFB0000
0007FFFB0000
0007FFFB0000
0007FFFB0000
0007FFFB0000
0007FFFB0000
0007FFFB0000
0007FFFB0000
0007FFFB0000
0007FFFB0000
0007FFFB0000
0007FFFB0000
0007FFFB0000
0007FFFB0000
0007FFFB0000
ENDCHAR
STARTCHAR itilde
ENCODING 297
SWIDTH 305 0
DWIDTH 9 0
BBX 12 21 -2 0
BITMAP
008DEB6105FD
08FFFFFECFF9
1FFEDFFFFFE2
4FD1028DFC30
000000000000
000000000000
0000CFFF5000
0000CFFF5000
0000CFFF5000
0000CFFF5000
0000CFFF5000
0000CFFF5000
0000CFFF5000
0000CFFF5000
0000CFFF5000
0000CFFF5000
0000CFFF5000
0000CFFF5000
0000CFFF5000
0000CFFF5000
0000CFFF5000
ENDCHAR
STARTCHAR Imacron
ENCODING 298
SWIDTH 331 0
DWIDTH 9 0
BBX 10 25 0 0
BITMAP
DDDDDDDDD4
EFFFFFFFF5
EFFFFFFFF5
0000000000
0000000000
007FFFB000
007FFFB000
007FFFB000
007FFFB000
007FFFB000
007FFFB000
007FFFB000
007FFFB000
007FFFB000
007FFFB000
007FFFB000
007FFFB000
007FFFB000
007FFFB000
007FFFB000
007FFFB000
007FFFB000
007FFFB000
007FFFB000
007FFFB000
ENDCHAR
STARTCHAR imacron
ENCODING 299
SWIDTH 305 0
DWIDTH 9 0
BBX 10 20 -1 0
BITMAP
4DDDDDDDDD
5FFFFFFFFE
5FFFFFFFFE
0000000000
0000000000
000CFFF500
000CFFF500
000CFFF500
000CFFF500
000CFFF500
000CFFF500
000CFFF500
000CFFF500
000CFFF500
000CFFF500
000CFFF500
000CFFF500
000CFFF500
000CFFF500
000CFFF500
ENDCHAR
STARTCHAR Ibreve
ENCODING 300
SWIDTH 331 0
DWIDTH 9 0
BBX 11 27 -1 0
BITMAP
AFA000007FE0
7FF60005EFB0
1EFFFEFFFF40
05FFFFFFF700
003AEFEA4000
000000000000
000000000000
0007FFFB0000
0007FFFB0000
0007FFFB0000
0007FFFB0000
0007FFFB0000
0007FFFB0000
0007FFFB0000
0007FFFB0000
0007FFFB0000
0007FFFB0000
0007FFFB0000
0007FFFB0000
0007FFFB0000
0007FFFB0000
0007FFFB0000
0007FFFB0000
0007FFFB0000
0007FFFB0000
0007FFFB0000
0007FFFB0000
ENDCHAR
STARTCHAR ibreve
ENCODING 301
SWIDTH 305 0
DWIDTH 9 0
BBX 12 22 -2 0
BITMAP
1FF500000DF8
0DFC20019FF5
07FFFEEFFFD0
00AFFFFFFE30
0006CEFD8100
000000000000
000000000000
0000CFFF5000
0000CFFF5000
0000CFFF5000
0000CFFF5000
0000CFFF5000
0000CFFF5000
0000CFFF5000
0000CFFF5000
0000CFFF5000
0000CFFF5000
0000CFFF5000
0000CFFF5000
0000CFFF5000
0000CFFF5000
0000CFFF5000
ENDCHAR
STARTCHAR Iogonek
ENCODING 302
SWIDTH 331 0
DWIDTH 9 0
BBX 7 27 1 -7
BITMAP
07FFFB00
07FFFB00
07FFFB00
07FFFB00
07FFFB00
07FFFB00
07FFFB00
07FFFB00
07FFFB00
07FFFB00
07FFFB00
07FFFB00
07FFFB00
07FFFB00
07FFFB00
07FFFB00
07FFFB00
07FFFB00
07FFFB00
07FFFB00
009FD100
09FE2000
3FF90000
7FF70000
5FFE8A10
1DFFFF10
02BEEC10
ENDCHAR
STARTCHAR iogonek
ENCODING 303
SWIDTH 305 0
DWIDTH 9 0
BBX 7 28 0 -7
BITMAP
005DEB10
00DFFF70
00EFFF70
006EFC10
00001000
00000000
00CFFF50
00CFFF50
00CFFF50
00CFFF50
00CFFF50
00CFFF50
00CFFF50
00CFFF50
00CFFF50
00CFFF50
00CFFF50
00CFFF50
00CFFF50
00CFFF50
00CFFF50
008FE200
08FF3000
2FFA0000
5FF80000
4FFE8A20
0DFFFF20
02AEEC10
ENDCHAR
STARTCHAR Idotaccent
ENCODING 304
SWIDTH 331 0
DWIDTH 9 0
BBX 5 27 2 0
BITMAP
001000
2DFE50
9FFFC0
8FFFC0
2CFD40
000000
000000
7FFFB0
7FFFB0
7FFFB0
7FFFB0
7FFFB0
7FFFB0
7FFFB0
7FFFB0
7FFFB0
7FFFB0
7FFFB0
7FFFB0
7FFFB0
7FFFB0
7FFFB0
7FFFB0
7FFFB0
7FFFB0
7FFFB0
7FFFB0
ENDCHAR
STARTCHAR dotlessi
ENCODING 305
SWIDTH 305 0
DWIDTH 9 0
BBX 5 15 2 0
BITMAP
CFFF50
CFFF50
CFFF50
CFFF50
CFFF50
CFFF50
CFFF50
CFFF50
CFFF50
CFFF50
CFFF50
CFFF50
CFFF50
CFFF50
CFFF50
ENDCHAR
STARTCHAR IJ
ENCODING 306
SWIDTH 720 0
DWIDTH 20 0
BBX 16 26 2 -6
BITMAP
7FFFB0000009FFFA
7FFFB0000009FFFA
7FFFB0000009FFFA
7FFFB0000009FFFA
7FFFB0000009FFFA
7FFFB0000009FFFA
7FFFB0000009FFFA
7FFFB0000009FFFA
7FFFB0000009FFFA
7FFFB0000009FFFA
7FFFB0000009FFFA
7FFFB0000009FFFA
7FFFB0000009FFFA
7FFFB0000009FFFA
7FFFB0000009FFFA
7FFFB0000009FFFA
7FFFB0000009FFFA
7FFFB0000009FFFA
7FFFB0000009FFFA
7FFFB000000AFFF9
00000000000CFFF8
00000000004FFFF5
0000002B9AFFFFE1
0000003FFFFFFF70
0000003FFFFFFA00
0000002DEFEA5000
ENDCHAR
STARTCHAR ij
ENCODING 307
SWIDTH 590 0
DWIDTH 17 0
BBX 13 28 2 -7
BITMAP
5DEB10005DEB10
DFFF7000DFFF70
EFFF7000DFFF70
6EFC10006EFC10
00100000001000
00000000000000
CFFF5000CFFF60
CFFF5000CFFF60
CFFF5000CFFF60
CFFF5000CFFF60
CFFF5000CFFF60
CFFF5000CFFF60
CFFF5000CFFF60
CFFF5000CFFF60
CFFF5000CFFF60
CFFF5000CFFF60
CFFF5000CFFF60
CFFF5000CFFF60
CFFF5000CFFF60
CFFF5000CFFF60
CFFF5000CFFF60
00000000CFFF60
00000000CFFF60
00000001EFFF50
0000776CFFFF30
0000CFFFFFFC00
0000CFFFFFE300
00009EFFD82000
ENDCHAR
STARTCHAR Jcircumflex
ENCODING 308
SWIDTH 331 0
DWIDTH 9 0
BBX 14 32 -3 -6
BITMAP
00003EFFFF8000
0002DFFFFFF600
002DFFD4AFFF60
02DFE71005CFF6
00000000000000
00000000000000
000007FFFB0000
000007FFFB0000
000007FFFB0000
000007FFFB0000
000007FFFB0000
000007FFFB0000
000007FFFB0000
000007FFFB0000
000007FFFB0000
000007FFFB0000
000007FFFB0000
000007FFFB0000
000007FFFB0000
000007FFFB0000
000007FFFB0000
000007FFFB0000
000007FFFB0000
000007FFFB0000
000007FFFB0000
000008FFFB0000
00000AFFF90000
00003FFFF60000
1B9AEFFFF20000
1FFFFFFF900000
1FFFFFFB100000
1CEFEB50000000
ENDCHAR
STARTCHAR jcircumflex
ENCODING 309
SWIDTH 305 0
DWIDTH 9 0
BBX 13 28 -2 -7
BITMAP
0009FFFFE20000
007FFFFFFD1000
07FFF95EFFC100
7FFB30018EFD10
00000000000000
00000000000000
0000CFFF500000
0000CFFF500000
0000CFFF500000
0000CFFF500000
0000CFFF500000
0000CFFF500000
0000CFFF500000
0000CFFF500000
0000CFFF500000
0000CFFF500000
0000CFFF500000
0000CFFF500000
0000CFFF500000
0000CFFF500000
0000CFFF500000
0000CFFF500000
0000DFFF500000
0001FFFF500000
776CFFFF200000
CFFFFFFC000000
CFFFFFE2000000
9EFFD810000000
ENDCHAR
STARTCHAR Kcommaaccent
ENCODING 310
SWIDTH 664 0
DWIDTH 19 0
BBX 17 26 2 -6
BITMAP
7FFFB0000008FFFE30
7FFFB000005FFFF500
7FFFB00003EFFF9000
7FFFB0001DFFFB0000
7FFFB000BFFFE10000
7FFFB008FFFF300000
7FFFB05FFFF6000000
7FFFB2EFFF90000000
7FFFBCFFFC10000000
7FFFFFFFFE10000000
7FFFFFFFFF90000000
7FFFFFCFFFF3000000
7FFFE50DFFFD000000
7FFFB004FFFF700000
7FFFB000AFFFF20000
7FFFB0001EFFFB0000
7FFFB00006FFFF6000
7FFFB00000CFFFE100
7FFFB000003FFFFA00
7FFFB0000008FFFF40
000000000000000000
000000000000000000
000005FFF700000000
000008FFD100000000
00000BFF5000000000
00001FFA0000000000
ENDCHAR
STARTCHAR kcommaaccent
ENCODING 311
SWIDTH 620 0
DWIDTH 17 0
BBX 16 27 2 -6
BITMAP
CFFF500000000000
CFFF500000000000
CFFF500000000000
CFFF500000000000
CFFF500000000000
CFFF500000000000
CFFF500003EFFF80
CFFF50003EFFF900
CFFF5002EFFFA000
CFFF502DFFFB0000
CFFF41DFFFB10000
CFFF4BFFFC100000
CFFFAFFFF2000000
CFFFFFFFFA000000
CFFFFFFFFF700000
CFFFF77FFFF30000
CFFF700BFFFD1000
CFFF5001EFFFB000
CFFF50004FFFF700
CFFF500008FFFF40
CFFF500000CFFFD1
0000000000000000
0000000000000000
00000DFFD0000000
00001FFF60000000
00004FFC00000000
00008FF300000000
ENDCHAR
STARTCHAR kgreenlandic
ENCODING 312
SWIDTH 620 0
DWIDTH 17 0
BBX 16 15 2 0
BITMAP
CFFF500001CFFF80
CFFF50000BFFFA00
CFFF50009FFFC100
CFFF5008FFFD1000
CFFF506FFFE20000
CFFF54FFFE300000
CFFF7EFFF5000000
CFFFFFFFF7000000
CFFFFFFFFF400000
CFFFFCAFFFE20000
CFFF900CFFFC0000
CFFF5002EFFF9000
CFFF50004FFFF600
CFFF500008FFFF30
CFFF500000BFFFD1
ENDCHAR
STARTCHAR Lacute
ENCODING 313
SWIDTH 564 0
DWIDTH 16 0
BBX 13 26 2 0
BITMAP
00008FFFE40000
0005FFFC200000
004FFF90000000
03EFD400000000
00000000000000
00000000000000
7FFFB000000000
7FFFB000000000
7FFFB000000000
7FFFB000000000
7FFFB000000000
7FFFB000000000
7FFFB000000000
7FFFB000000000
7FFFB000000000
7FFFB000000000
7FFFB000000000
7FFFB000000000
7FFFB000000000
7FFFB000000000
7FFFB000000000
7FFFB000000000
7FFFD888888860
7FFFFFFFFFFFD0
7FFFFFFFFFFFD0
7FFFFFFFFFFFD0
ENDCHAR
STARTCHAR lacute
ENCODING 314
SWIDTH 305 0
DWIDTH 9 0
BBX 9 26 2 0
BITMAP
000BFFFD20
008FFFA100
07FFF60000
5FFC300000
0000000000
CFFF500000
CFFF500000
CFFF500000
CFFF500000
CFFF500000
CFFF500000
CFFF500000
CFFF500000
CFFF500000
CFFF500000
CFFF500000
CFFF500000
CFFF500000
CFFF500000
CFFF500000
CFFF500000
CFFF500000
CFFF500000
CFFF500000
CFFF500000
CFFF500000
ENDCHAR
STARTCHAR Lcommaaccent
ENCODING 315
SWIDTH 564 0
DWIDTH 16 0
BBX 13 26 2 -6
BITMAP
7FFFB000000000
7FFFB000000000
7FFFB000000000
7FFFB000000000
7FFFB000000000
7FFFB000000000
7FFFB000000000
7FFFB000000000
7FFFB000000000
7FFFB000000000
7FFFB000000000
7FFFB000000000
7FFFB000000000
7FFFB000000000
7FFFB000000000
7FFFB000000000
7FFFD888888860
7FFFFFFFFFFFD0
7FFFFFFFFFFFD0
7FFFFFFFFFFFD0
00000000000000
00000000000000
00006FFF500000
0000AFFC000000
0000DFF3000000
0002FF80000000
ENDCHAR
STARTCHAR lcommaaccent
ENCODING 316
SWIDTH 305 0
DWIDTH 9 0
BBX 6 27 1 -6
BITMAP
0CFFF5
0CFFF5
0CFFF5
0CFFF5
0CFFF5
0CFFF5
0CFFF5
0CFFF5
0CFFF5
0CFFF5
0CFFF5
0CFFF5
0CFFF5
0CFFF5
0CFFF5
0CFFF5
0CFFF5
0CFFF5
0CFFF5
0CFFF5
0CFFF5
000000
000000
0DFFD0
1FFF50
5FFB00
9FE200
ENDCHAR
STARTCHAR Lcaron
ENCODING 317
SWIDTH 564 0
DWIDTH 16 0
BBX 13 20 2 0
BITMAP
7FFFB0005FFF70
7FFFB0008FFE10
7FFFB000BFF700
7FFFB000EFD000
7FFFB001773000
7FFFB000000000
7FFFB000000000
7FFFB000000000
7FFFB000000000
7FFFB000000000
7FFFB000000000
7FFFB000000000
7FFFB000000000
7FFFB000000000
7FFFB000000000
7FFFB000000000
7FFFD888888860
7FFFFFFFFFFFD0
7FFFFFFFFFFFD0
7FFFFFFFFFFFD0
ENDCHAR
STARTCHAR lcaron
ENCODING 318
SWIDTH 305 0
DWIDTH 9 0
BBX 11 21 2 0
BITMAP
CFFF509FFF30
CFFF50CFFB00
CFFF50FFF300
CFFF53FF9000
CFFF53771000
CFFF50000000
CFFF50000000
CFFF50000000
CFFF50000000
CFFF50000000
CFFF50000000
CFFF50000000
CFFF50000000
CFFF50000000
CFFF50000000
CFFF50000000
CFFF50000000
CFFF50000000
CFFF50000000
CFFF50000000
CFFF50000000
ENDCHAR
STARTCHAR Ldot
ENCODING 319
SWIDTH 564 0
DWIDTH 16 0
BBX 13 20 2 0
BITMAP
7FFFB000000000
7FFFB000000000
7FFFB000000000
7FFFB000000000
7FFFB000000000
7FFFB000000000
7FFFB000000000
7FFFB000010000
7FFFB000BFF900
7FFFB004FFFF20
7FFFB004FFFF10
7FFFB0009EE700
7FFFB000000000
7FFFB000000000
7FFFB000000000
7FFFB000000000
7FFFD888888860
7FFFFFFFFFFFD0
7FFFFFFFFFFFD0
7FFFFFFFFFFFD0
ENDCHAR
STARTCHAR ldot
ENCODING 320
SWIDTH 428 0
DWIDTH 12 0
BBX 11 21 2 0
BITMAP
CFFF50000000
CFFF50000000
CFFF50000000
CFFF50000000
CFFF50000000
CFFF50000000
CFFF50000000
CFFF50000000
CFFF50000000
CFFF50001000
CFFF506EFD20
CFFF50DFFF70
CFFF50DFFF70
CFFF505DEB10
CFFF50000000
CFFF50000000
CFFF50000000
CFFF50000000
CFFF50000000
CFFF50000000
CFFF50000000
ENDCHAR
STARTCHAR Lslash
ENCODING 321
SWIDTH 564 0
DWIDTH 16 0
BBX 15 20 0 0
BITMAP
007FFFB000000000
007FFFB000000000
007FFFB000000000
007FFFB000000000
007FFFB000000000
007FFFB000000000
007FFFB6D2000000
007FFFFFFA000000
007FFFFFFE200000
009FFFFFA1000000
2BFFFFE400000000
BFFFFFB000000000
3FFFFFB000000000
07BFFFB000000000
007FFFB000000000
007FFFB000000000
007FFFD888888860
007FFFFFFFFFFFD0
007FFFFFFFFFFFD0
007FFFFFFFFFFFD0
ENDCHAR
STARTCHAR lslash
ENCODING 322
SWIDTH 330 0
DWIDTH 9 0
BBX 10 21 0 0
BITMAP
007FFFA000
007FFFA000
007FFFA000
007FFFA000
007FFFA000
007FFFA000
007FFFA000
007FFFA000
007FFFDC10
007FFFFF80
007FFFFFE1
18FFFFFA20
CFFFFFA000
5FFFFFA000
0ACFFFA000
007FFFA000
007FFFA000
007FFFA000
007FFFA000
007FFFA000
007FFFA000
ENDCHAR
STARTCHAR Nacute
ENCODING 323
SWIDTH 812 0
DWIDTH 23 0
BBX 19 26 2 0
BITMAP
0000000003FFFF800000
000000002EFFE5000000
00000001DFFC20000000
0000000CFF8000000000
00000000000000000000
00000000000000000000
7FFFFF200000008FFF40
7FFFFFB00000008FFF40
7FFFFFF50000008FFF40
7FFFFFFD0000008FFF40
7FFFFFFF7000008FFF40
7FFF8FFFE100008FFF40
7FFF3DFFF900008FFF40
7FFF35FFFF30008FFF40
7FFF40BFFFC0008FFF40
7FFF403FFFF5008FFF40
7FFF4009FFFD108FFF40
7FFF4001EFFF808FFF40
7FFF40007FFFF27FFF40
7FFF40000DFFFA7FFF40
7FFF400005FFFFAFFF40
7FFF400000BFFFFFFF40
7FFF4000003FFFFFFF40
7FFF40000009FFFFFF40
7FFF40000001EFFFFF40
7FFF400000006FFFFF40
ENDCHAR
STARTCHAR nacute
ENCODING 324
SWIDTH 657 0
DWIDTH 18 0
BBX 15 21 2 0
BITMAP
00000005FFFF6000
0000003EFFE40000
000002DFFB100000
00001DFE60000000
0000000000000000
0000000000000000
CFF8028DEEC81000
CFFB3EFFFFFFD100
CFFFEFFFFFFFFA00
CFFFFE868EFFFF10
CFFFF30005FFFF30
CFFFA00000FFFF40
CFFF700000DFFF40
CFFF600000DFFF40
CFFF500000DFFF40
CFFF500000DFFF40
CFFF500000DFFF40
CFFF500000DFFF40
CFFF500000DFFF40
CFFF500000DFFF40
CFFF500000DFFF40
ENDCHAR
STARTCHAR Ncommaaccent
ENCODING 325
SWIDTH 812 0
DWIDTH 23 0
BBX 19 26 2 -6
BITMAP
7FFFFF200000008FFF40
7FFFFFB00000008FFF40
7FFFFFF50000008FFF40
7FFFFFFD0000008FFF40
7FFFFFFF7000008FFF40
7FFF8FFFE100008FFF40
7FFF3DFFF900008FFF40
7FFF35FFFF30008FFF40
7FFF40BFFFC0008FFF40
7FFF403FFFF5008FFF40
7FFF4009FFFD108FFF40
7FFF4001EFFF808FFF40
7FFF40007FFFF27FFF40
7FFF40000DFFFA7FFF40
7FFF400005FFFFAFFF40
7FFF400000BFFFFFFF40
7FFF4000003FFFFFFF40
7FFF40000009FFFFFF40
7FFF40000001EFFFFF40
7FFF400000006FFFFF40
00000000000000000000
00000000000000000000
0000001FFFB000000000
0000004FFF3000000000
0000007FF90000000000
000000BFD10000000000
ENDCHAR
STARTCHAR ncommaaccent
ENCODING 326
SWIDTH 657 0
DWIDTH 18 0
BBX 15 21 2 -6
BITMAP
CFF8028DEEC81000
CFFB3EFFFFFFD100
CFFFEFFFFFFFFA00
CFFFFE868EFFFF10
CFFFF30005FFFF30
CFFFA00000FFFF40
CFFF700000DFFF40
CFFF600000DFFF40
CFFF500000DFFF40
CFFF500000DFFF40
CFFF500000DFFF40
CFFF500000DFFF40
CFFF500000DFFF40
CFFF500000DFFF40
CFFF500000DFFF40
0000000000000000
0000000000000000
00000DFFD0000000
00001FFF60000000
00004FFC00000000
00008FF300000000
ENDCHAR
STARTCHAR Ncaron
ENCODING 327
SWIDTH 812 0
DWIDTH 23 0
BBX 19 26 2 0
BITMAP
0001DFE71004CFF70000
00002DFFD49FFF700000
000002DFFFFFF7000000
0000002EFFFF90000000
00000000000000000000
00000000000000000000
7FFFFF200000008FFF40
7FFFFFB00000008FFF40
7FFFFFF50000008FFF40
7FFFFFFD0000008FFF40
7FFFFFFF7000008FFF40
7FFF8FFFE100008FFF40
7FFF3DFFF900008FFF40
7FFF35FFFF30008FFF40
7FFF40BFFFC0008FFF40
7FFF403FFFF5008FFF40
7FFF4009FFFD108FFF40
7FFF4001EFFF808FFF40
7FFF40007FFFF27FFF40
7FFF40000DFFFA7FFF40
7FFF400005FFFFAFFF40
7FFF400000BFFFFFFF40
7FFF4000003FFFFFFF40
7FFF40000009FFFFFF40
7FFF40000001EFFFFF40
7FFF400000006FFFFF40
ENDCHAR
STARTCHAR ncaron
ENCODING 328
SWIDTH 657 0
DWIDTH 18 0
BBX 15 21 2 0
BITMAP
03EFD60005DFF400
003EFFC4BFFF5000
0003EFFFFFF40000
00004FFFFF600000
0000000000000000
0000000000000000
CFF8028DEEC81000
CFFB3EFFFFFFD100
CFFFEFFFFFFFFA00
CFFFFE868EFFFF10
CFFFF30005FFFF30
CFFFA00000FFFF40
CFFF700000DFFF40
CFFF600000DFFF40
CFFF500000DFFF40
CFFF500000DFFF40
CFFF500000DFFF40
CFFF500000DFFF40
CFFF500000DFFF40
CFFF500000DFFF40
CFFF500000DFFF40
ENDCHAR
STARTCHAR napostrophe
ENCODING 329
SWIDTH 778 0
DWIDTH 22 0
BBX 20 20 0 0
BITMAP
0AFFF600000000000000
0CFFF200000000000000
0FFFC000000000000000
3FFF7000000000000000
6FFF2000000000000000
9FFB06FFE006BEFDA300
CFF406FFF3BFFFFFFF60
000006FFFEFFFFFFFFF2
000006FFFFFB66CFFFF7
000006FFFF90000DFFFA
000006FFFF200008FFFB
000006FFFD000007FFFB
000006FFFC000007FFFB
000006FFFC000007FFFB
000006FFFC000007FFFB
000006FFFC000007FFFB
000006FFFC000007FFFB
000006FFFC000007FFFB
000006FFFC000007FFFB
000006FFFC000007FFFB
ENDCHAR
STARTCHAR Eng
ENCODING 330
SWIDTH 812 0
DWIDTH 23 0
BBX 19 26 2 -6
BITMAP
7FFFFF300000008FFF40
7FFFFFD10000008FFF40
7FFFFFFA0000008FFF40
7FFFFFFF5000008FFF40
7FFFFFFFE200008FFF40
7FFF7FFFFB00008FFF40
7FFF2AFFFF70008FFF40
7FFF31EFFFF3008FFF40
7FFF405FFFFD108FFF40
7FFF4009FFFF907FFF40
7FFF4001DFFFF57FFF40
7FFF40003FFFFE8FFF40
7FFF400008FFFFFFFF40
7FFF400000CFFFFFFF40
7FFF4000002EFFFFFF40
7FFF40000006FFFFFF40
7FFF40000000BFFFFF40
7FFF400000001EFFFF40
7FFF4000000005FFFF40
7FFF40000000009FFF40
000000000000007FFF30
00000000000002EFFF10
0000000009A9BFFFFC00
000000000CFFFFFFF500
000000000CFFFFFF7000
0000000009EFED930000
ENDCHAR
STARTCHAR eng
ENCODING 331
SWIDTH 657 0
DWIDTH 18 0
BBX 15 22 2 -7
BITMAP
CFF8018DEEC71000
CFFB3EFFFFFFD100
CFFFEFFFFFFFFA00
CFFFFE868EFFFF10
CFFFF30004FFFF30
CFFFA00000FFFF40
CFFF700000DFFF40
CFFF600000DFFF40
CFFF500000DFFF40
CFFF500000DFFF40
CFFF500000DFFF40
CFFF500000DFFF40
CFFF500000DFFF40
CFFF500000DFFF40
CFFF500000DFFF40
0000000000DFFF40
0000000000DFFF40
0000000001FFFF40
000000286BFFFF20
0000003FFFFFFC00
0000003FFFFFE300
0000002CEFD92000
ENDCHAR
STARTCHAR Omacron
ENCODING 332
SWIDTH 795 0
DWIDTH 22 0
BBX 20 25 1 0
BITMAP
000006DDDDDDDDB00000
000007FFFFFFFFC00000
000007FFFFFFFFC00000
00000000000000000000
00000000000000000000
0000017BDEFDC8300000
00008FFFFFFFFFFB2000
001BFFFFFFFFFFFFE300
009FFFFFC98AEFFFFD10
03FFFFD300001AFFFF80
0AFFFF30000000CFFFE0
0EFFFA000000005FFFF3
3FFFF5000000001FFFF7
4FFFF3000000000DFFF8
5FFFF2000000000CFFF9
5FFFF2000000000CFFF9
4FFFF3000000000DFFF8
2FFFF5000000001FFFF7
0EFFFA000000005FFFF3
0AFFFF30000000CFFFE0
03FFFFD300001BFFFF70
009FFFFFC99BFFFFFC10
000BFFFFFFFFFFFFD200
00008FFFFFFFFFFB1000
0000017BDEFEC8300000
ENDCHAR
STARTCHAR omacron
ENCODING 333
SWIDTH 619 0
DWIDTH 17 0
BBX 16 20 1 0
BITMAP
000DDDDDDDDD4000
000EFFFFFFFF5000
000EFFFFFFFF5000
0000000000000000
0000000000000000
00017BEFEC820000
004EFFFFFFFF6000
03FFFFFFFFFFF700
0DFFFE867DFFFF20
4FFFF30001DFFF80
8FFFB000007FFFD0
AFFF9000004FFFF0
BFFF8000003FFFF1
9FFF9000004FFFF0
8FFFC000007FFFD0
3FFFF40001DFFF90
0CFFFE857CFFFF30
02EFFFFFFFFFF800
003DFFFFFFFF8000
00016BDFEC820000
ENDCHAR
STARTCHAR Obreve
ENCODING 334
SWIDTH 795 0
DWIDTH 22 0
BBX 20 27 1 0
BITMAP
00002FF300000EF70000
00000EFC2002AFF40000
000008FFFEEFFFC00000
000001BFFFFFFD200000
00000007CEFD81000000
00000000000000000000
00000000000000000000
0000017BDEFDC8300000
00008FFFFFFFFFFB2000
001BFFFFFFFFFFFFE300
009FFFFFC98AEFFFFD10
03FFFFD300001AFFFF80
0AFFFF30000000CFFFE0
0EFFFA000000005FFFF3
3FFFF5000000001FFFF7
4FFFF3000000000DFFF8
5FFFF2000000000CFFF9
5FFFF2000000000CFFF9
4FFFF3000000000DFFF8
2FFFF5000000001FFFF7
0EFFFA000000005FFFF3
0AFFFF30000000CFFFE0
03FFFFD300001BFFFF70
009FFFFFC99BFFFFFC10
000BFFFFFFFFFFFFD200
00008FFFFFFFFFFB1000
0000017BDEFEC8300000
ENDCHAR
STARTCHAR obreve
ENCODING 335
SWIDTH 619 0
DWIDTH 17 0
BBX 16 22 1 0
BITMAP
00AFA000007FE000
007FF60005EFB000
001EFFFEFFFF4000
0005FFFFFFF70000
00003AEFEA400000
0000000000000000
0000000000000000
00017BEFEC820000
004EFFFFFFFF6000
03FFFFFFFFFFF700
0DFFFE867DFFFF20
4FFFF30001DFFF80
8FFFB000007FFFD0
AFFF9000004FFFF0
BFFF8000003FFFF1
9FFF9000004FFFF0
8FFFC000007FFFD0
3FFFF40001DFFF90
0CFFFE857CFFFF30
02EFFFFFFFFFF800
003DFFFFFFFF8000
00016BDFEC820000
ENDCHAR
STARTCHAR Ohungarumlaut
ENCODING 336
SWIDTH 795 0
DWIDTH 22 0
BBX 20 26 1 0
BITMAP
00000002FFFE2AFFF800
0000000CFFD35FFF8000
0000008FFB12EFE40000
000004FF700DFB200000
00000000000000000000
00000000000000000000
0000017BDEFDC8300000
00008FFFFFFFFFFB2000
001BFFFFFFFFFFFFE300
009FFFFFC98AEFFFFD10
03FFFFD300001AFFFF80
0AFFFF30000000CFFFE0
0EFFFA000000005FFFF3
3FFFF5000000001FFFF7
4FFFF3000000000DFFF8
5FFFF2000000000CFFF9
5FFFF2000000000CFFF9
4FFFF3000000000DFFF8
2FFFF5000000001FFFF7
0EFFFA000000005FFFF3
0AFFFF30000000CFFFE0
03FFFFD300001BFFFF70
009FFFFFC99BFFFFFC10
000BFFFFFFFFFFFFD200
00008FFFFFFFFFFB1000
0000017BDEFEC8300000
ENDCHAR
STARTCHAR ohungarumlaut
ENCODING 337
SWIDTH 619 0
DWIDTH 17 0
BBX 16 21 1 0
BITMAP
00000CFFF56FFFC0
00008FFF62EFFB10
0004FFD30CFF8000
001EFA109FD40000
0000000000000000
0000000000000000
00017BEFEC820000
004EFFFFFFFF6000
03FFFFFFFFFFF700
0DFFFE867DFFFF20
4FFFF30001DFFF80
8FFFB000007FFFD0
AFFF9000004FFFF0
BFFF8000003FFFF1
9FFF9000004FFFF0
8FFFC000007FFFD0
3FFFF40001DFFF90
0CFFFE857CFFFF30
02EFFFFFFFFFF800
003DFFFFFFFF8000
00016BDFEC820000
ENDCHAR
STARTCHAR OE
ENCODING 338
SWIDTH 973 0
DWIDTH 27 0
BBX 25 20 1 0
BITMAP
0000038CEFFFFFFFFFFFFFFF90
0001AFFFFFFFFFFFFFFFFFFF90
001DFFFFFFFFFFFFFFFFFFFF90
00BFFFFEA89BEFFFE777777740
04FFFFB100005FFFD000000000
0BFFFE1000005FFFD000000000
0EFFF80000005FFFD000000000
3FFFF30000005FFFD000000000
4FFFF10000005FFFFFFFFFFF10
5FFFF00000005FFFFFFFFFFF10
5FFFF00000005FFFFFFFFFFF10
4FFFF10000005FFFE777777710
3FFFF30000005FFFD000000000
0EFFF80000005FFFD000000000
0AFFFE1000005FFFD000000000
04FFFFB100005FFFD000000000
00BFFFFEA9ABFFFFE888888840
001DFFFFFFFFFFFFFFFFFFFF90
0001AFFFFFFFFFFFFFFFFFFF90
0000038CEFFFFFFFFFFFFFFF90
ENDCHAR
STARTCHAR oe
ENCODING 339
SWIDTH 978 0
DWIDTH 27 0
BBX 26 15 1 0
BITMAP
00017BEFEC710029DEFDA50000
005EFFFFFFFE57FFFFFFFFC200
04FFFFFFFFFFFFFFFFFFFFFD10
0DFFFE867DFFFFFF7104CFFF70
4FFFF30001DFFFF800002FFFD0
8FFFB000007FFFF300000CFFF1
AFFF9000004FFFFFFFFFFFFFF2
BFFF8000003FFFFFFFFFFFFFF3
9FFF9000004FFFFCCCCCCCCCC2
8FFFC000007FFFF20000000000
3FFFF40001DFFFF90000000000
0CFFFE857CFFFFFFB522458C50
02EFFFFFFFFFFFFFFFFFFFFF50
003DFFFFFFFF76EFFFFFFFFF50
00016BDFEC820017BEFFEC8400
ENDCHAR
STARTCHAR Racute
ENCODING 340
SWIDTH 660 0
DWIDTH 18 0
BBX 17 26 2 0
BITMAP
0000000AFFFE300000
0000007FFFB1000000
000006FFF700000000
00004FFD3000000000
000000000000000000
000000000000000000
7FFFFFFEDA61000000
7FFFFFFFFFFE500000
7FFFFFFFFFFFF40000
7FFFD779DFFFFD0000
7FFFB00009FFFF2000
7FFFB00001FFFF4000
7FFFB00001FFFF4000
7FFFB00005FFFF2000
7FFFB0026EFFFB0000
7FFFFFFFFFFFE20000
7FFFFFFFFFFD300000
7FFFFFFFFFD0000000
7FFFD77DFFF5000000
7FFFB005FFFE100000
7FFFB000AFFFB00000
7FFFB0002EFFF60000
7FFFB00006FFFE2000
7FFFB00000CFFFB000
7FFFB000003FFFF700
7FFFB0000008FFFF20
ENDCHAR
STARTCHAR racute
ENCODING 341
SWIDTH 454 0
DWIDTH 13 0
BBX 11 21 2 0
BITMAP
000008FFFE30
00006FFFC200
0004FFF80000
003EFD400000
000000000000
000000000000
CFF7006CEE10
CFFA0AFFFF00
CFFD9FFFFE00
CFFFFFFFED00
CFFFFD510000
CFFFD1000000
CFFF80000000
CFFF60000000
CFFF50000000
CFFF50000000
CFFF50000000
CFFF50000000
CFFF50000000
CFFF50000000
CFFF50000000
ENDCHAR
STARTCHAR Rcommaaccent
ENCODING 342
SWIDTH 660 0
DWIDTH 18 0
BBX 17 26 2 -6
BITMAP
7FFFFFFEDA61000000
7FFFFFFFFFFE500000
7FFFFFFFFFFFF40000
7FFFD779DFFFFD0000
7FFFB00009FFFF2000
7FFFB00001FFFF4000
7FFFB00001FFFF4000
7FFFB00005FFFF2000
7FFFB0026EFFFB0000
7FFFFFFFFFFFE20000
7FFFFFFFFFFD300000
7FFFFFFFFFD0000000
7FFFD77DFFF5000000
7FFFB005FFFE100000
7FFFB000AFFFB00000
7FFFB0002EFFF60000
7FFFB00006FFFE2000
7FFFB00000CFFFB000
7FFFB000003FFFF700
7FFFB0000008FFFF20
000000000000000000
000000000000000000
000000FFFC00000000
000003FFF400000000
000006FFA000000000
00000AFE1000000000
ENDCHAR
STARTCHAR rcommaaccent
ENCODING 343
SWIDTH 454 0
DWIDTH 13 0
BBX 12 21 1 -6
BITMAP
0CFF7006CEE1
0CFFA0AFFFF0
0CFFD9FFFFE0
0CFFFFFFFED0
0CFFFFD51000
0CFFFD100000
0CFFF8000000
0CFFF6000000
0CFFF5000000
0CFFF5000000
0CFFF5000000
0CFFF5000000
0CFFF5000000
0CFFF5000000
0CFFF5000000
000000000000
000000000000
0DFFD0000000
1FFF50000000
5FFB00000000
9FE200000000
ENDCHAR
STARTCHAR Rcaron
ENCODING 344
SWIDTH 660 0
DWIDTH 18 0
BBX 17 26 2 0
BITMAP
08FFB30018FFD10000
008FFF85EFFC100000
0008FFFFFFD1000000
0000AFFFFE20000000
000000000000000000
000000000000000000
7FFFFFFEDA61000000
7FFFFFFFFFFE500000
7FFFFFFFFFFFF40000
7FFFD779DFFFFD0000
7FFFB00009FFFF2000
7FFFB00001FFFF4000
7FFFB00001FFFF4000
7FFFB00005FFFF2000
7FFFB0026EFFFB0000
7FFFFFFFFFFFE20000
7FFFFFFFFFFD300000
7FFFFFFFFFD0000000
7FFFD77DFFF5000000
7FFFB005FFFE100000
7FFFB000AFFFB00000
7FFFB0002EFFF60000
7FFFB00006FFFE2000
7FFFB00000CFFFB000
7FFFB000003FFFF700
7FFFB0000008FFFF20
ENDCHAR
STARTCHAR rcaron
ENCODING 345
SWIDTH 454 0
DWIDTH 13 0
BBX 12 21 1 0
BITMAP
9FFA20029FFC
09FFF76EFFB1
009FFFFFFB10
000BFFFFD100
000000000000
000000000000
0CFF7006CEE1
0CFFA0AFFFF0
0CFFD9FFFFE0
0CFFFFFFFED0
0CFFFFD51000
0CFFFD100000
0CFFF8000000
0CFFF6000000
0CFFF5000000
0CFFF5000000
0CFFF5000000
0CFFF5000000
0CFFF5000000
0CFFF5000000
0CFFF5000000
ENDCHAR
STARTCHAR Sacute
ENCODING 346
SWIDTH 550 0
DWIDTH 15 0
BBX 14 26 1 0
BITMAP
00000009FFFE30
0000006FFFC200
000005FFF80000
00003FFD400000
00000000000000
00000000000000
00039DEFEC8400
009FFFFFFFFFD1
09FFFFFFFFFFC0
2FFFFE98ADFF50
6FFFE100003800
7FFFB000000000
6FFFE200000000
2FFFFE60000000
09FFFFFD710000
00AFFFFFFE5000
0006DFFFFFF900
000006DFFFFF80
00000006EFFFE1
000000003FFFF4
000000000DFFF4
AA4000003FFFF2
BFFEA88AFFFFD0
BFFFFFFFFFFF40
AFFFFFFFFFE500
049CEFFEB71000
ENDCHAR
STARTCHAR sacute
ENCODING 347
SWIDTH 497 0
DWIDTH 14 0
BBX 12 21 1 0
BITMAP
0000007FFFE4
000005FFFD20
00004FFF9100
0002EFE50000
000000000000
000000000000
004ADEFEC940
09FFFFFFFFF8
5FFFFFFFFFF2
AFFFA3237DB0
BFFFA0000010
8FFFFD710000
1DFFFFFFA300
02AFFFFFFF80
00039EFFFFF6
0000017EFFFB
20000005FFFC
BD84212AFFFA
BFFFFFFFFFF5
BFFFFFFFFF80
27BEFFEC9300
ENDCHAR
STARTCHAR Scircumflex
ENCODING 348
SWIDTH 550 0
DWIDTH 15 0
BBX 14 26 1 0
BITMAP
0000AFFFFE2000
0008FFFFFFC100
007FFF85EFFC10
08FFB30019FFD1
00000000000000
00000000000000
00039DEFEC8400
009FFFFFFFFFD1
09FFFFFFFFFFC0
2FFFFE98ADFF50
6FFFE100003800
7FFFB000000000
6FFFE200000000
2FFFFE60000000
09FFFFFD710000
00AFFFFFFE5000
0006DFFFFFF900
000006DFFFFF80
00000006EFFFE1
000000003FFFF4
000000000DFFF4
AA4000003FFFF2
BFFEA88AFFFFD0
BFFFFFFFFFFF40
AFFFFFFFFFE500
049CEFFEB71000
ENDCHAR
STARTCHAR scircumflex
ENCODING 349
SWIDTH 497 0
DWIDTH 14 0
BBX 13 21 1 0
BITMAP
0009FFFFE20000
007FFFFFFD1000
07FFF95EFFC100
7FFB30018EFD10
00000000000000
00000000000000
004ADEFEC94000
09FFFFFFFFF800
5FFFFFFFFFF200
AFFFA3237DB000
BFFFA000001000
8FFFFD71000000
1DFFFFFFA30000
02AFFFFFFF8000
00039EFFFFF600
0000017EFFFB00
20000005FFFC00
BD84212AFFFA00
BFFFFFFFFFF500
BFFFFFFFFF8000
27BEFFEC930000
ENDCHAR
STARTCHAR Scedilla
ENCODING 350
SWIDTH 550 0
DWIDTH 15 0
BBX 14 27 1 -7
BITMAP
00039DEFEC8400
009FFFFFFFFFD1
09FFFFFFFFFFC0
2FFFFE98ADFF50
6FFFE100003800
7FFFB000000000
6FFFE200000000
2FFFFE60000000
09FFFFFD710000
00AFFFFFFE5000
0006DFFFFFF900
000006DFFFFF80
00000006EFFFE1
000000003FFFF4
000000000DFFF4
AA4000003FFFF2
BFFEA88AFFFFD0
BFFFFFFFFFFF40
AFFFFFFFFFE500
049CEFFEB71000
00002FF8000000
0000AFFE500000
00005BFFF30000
000000CFF80000
000566EFF70000
000AFFFFE20000
0008EFEB300000
ENDCHAR
STARTCHAR scedilla
ENCODING 351
SWIDTH 497 0
DWIDTH 14 0
BBX 12 22 1 -7
BITMAP
004ADEFEC940
09FFFFFFFFF8
5FFFFFFFFFF2
AFFFA3237DB0
BFFFA0000010
8FFFFD710000
1DFFFFFFA300
02AFFFFFFF80
00039EFFFFF6
0000017EFFFB
20000005FFFC
BD84212AFFFA
BFFFFFFFFFF5
BFFFFFFFFF80
27BEFFEC9300
0000DFC00000
0006FFE80000
00039FFF7000
000008FFC000
00365CFFB000
006FFFFF5000
004EFEC50000
ENDCHAR
STARTCHAR Scaron
ENCODING 352
SWIDTH 550 0
DWIDTH 15 0
BBX 14 26 1 0
BITMAP
08FFB30018FFD1
008FFF85EFFC10
0008FFFFFFD100
0000AFFFFE2000
00000000000000
00000000000000
00039DEFEC8400
009FFFFFFFFFD1
09FFFFFFFFFFC0
2FFFFE98ADFF50
6FFFE100003800
7FFFB000000000
6FFFE200000000
2FFFFE60000000
09FFFFFD710000
00AFFFFFFE5000
0006DFFFFFF900
000006DFFFFF80
00000006EFFFE1
000000003FFFF4
000000000DFFF4
AA4000003FFFF2
BFFEA88AFFFFD0
BFFFFFFFFFFF40
AFFFFFFFFFE500
049CEFFEB71000
ENDCHAR
STARTCHAR scaron
ENCODING 353
SWIDTH 497 0
DWIDTH 14 0
BBX 13 21 1 0
BITMAP
5FFC40017EFE20
06FFFA4DFFE200
006FFFFFFE2000
0007FFFFF30000
00000000000000
00000000000000
004ADEFEC94000
09FFFFFFFFF800
5FFFFFFFFFF200
AFFFA3237DB000
BFFFA000001000
8FFFFD71000000
1DFFFFFFA30000
02AFFFFFFF8000
00039EFFFFF600
0000017EFFFB00
20000005FFFC00
BD84212AFFFA00
BFFFFFFFFFF500
BFFFFFFFFF8000
27BEFFEC930000
ENDCHAR
STARTCHAR Tcedilla
ENCODING 354
SWIDTH 579 0
DWIDTH 16 0
BBX 16 27 0 -7
BITMAP
7FFFFFFFFFFFFFFA
7FFFFFFFFFFFFFFA
7FFFFFFFFFFFFFFA
388888FFFFA88885
000000FFFF400000
000000FFFF400000
000000FFFF400000
000000FFFF400000
000000FFFF400000
000000FFFF400000
000000FFFF400000
000000FFFF400000
000000FFFF400000
000000FFFF400000
000000FFFF400000
000000FFFF400000
000000FFFF400000
000000FFFF400000
000000FFFF400000
000000FFFF400000
0000005FF5000000
000000DFFC300000
0000016CFFE10000
00000001FFF50000
00000657FFF40000
00000DFFFFD00000
00000BEFD9200000
ENDCHAR
STARTCHAR tcedilla
ENCODING 355
SWIDTH 434 0
DWIDTH 12 0
BBX 12 26 0 -7
BITMAP
000034300000
0002FFC00000
0008FFC00000
000DFFC00000
03BFFFFFFFF1
4FFFFFFFFFF1
5FFFFFFFFFF1
127FFFD22220
005FFFC00000
005FFFC00000
005FFFC00000
005FFFC00000
005FFFC00000
005FFFC00000
005FFFD00000
004FFFFA5693
001EFFFFFFF4
0006FFFFFFF4
00005BEFEC81
000009FF2000
00002FFFB100
000027EFFC00
0000004FFF10
0001759FFF10
0001FFFFFA00
0001DFFD8100
ENDCHAR
STARTCHAR Tcaron
ENCODING 356
SWIDTH 579 0
DWIDTH 16 0
BBX 16 26 0 0
BITMAP
009FFA20019FFC00
0009FFF75EFFC100
00009FFFFFFC1000
00000AFFFFD10000
0000000000000000
0000000000000000
7FFFFFFFFFFFFFFA
7FFFFFFFFFFFFFFA
7FFFFFFFFFFFFFFA
388888FFFFA88885
000000FFFF400000
000000FFFF400000
000000FFFF400000
000000FFFF400000
000000FFFF400000
000000FFFF400000
000000FFFF400000
000000FFFF400000
000000FFFF400000
000000FFFF400000
000000FFFF400000
000000FFFF400000
000000FFFF400000
000000FFFF400000
000000FFFF400000
000000FFFF400000
ENDCHAR
STARTCHAR tcaron
ENCODING 357
SWIDTH 434 0
DWIDTH 12 0
BBX 14 21 0 0
BITMAP
000000000BFFE1
000000000EFF80
000034302FFE10
0002FFC06FF700
0008FFC0477000
000DFFC0000000
03BFFFFFFFF100
4FFFFFFFFFF100
5FFFFFFFFFF100
127FFFD2222000
005FFFC0000000
005FFFC0000000
005FFFC0000000
005FFFC0000000
005FFFC0000000
005FFFC0000000
005FFFD0000000
004FFFFA569300
001EFFFFFFF400
0006FFFFFFF400
00005BEFEC8100
ENDCHAR
STARTCHAR Tbar
ENCODING 358
SWIDTH 579 0
DWIDTH 16 0
BBX 16 20 0 0
BITMAP
7FFFFFFFFFFFFFFA
7FFFFFFFFFFFFFFA
7FFFFFFFFFFFFFFA
388888FFFFA88885
000000FFFF400000
000000FFFF400000
000000FFFF400000
000000FFFF400000
006FFFFFFFFFF900
006FFFFFFFFFF900
006FFFFFFFFFF900
003777FFFF977400
000000FFFF400000
000000FFFF400000
000000FFFF400000
000000FFFF400000
000000FFFF400000
000000FFFF400000
000000FFFF400000
000000FFFF400000
ENDCHAR
STARTCHAR tbar
ENCODING 359
SWIDTH 434 0
DWIDTH 12 0
BBX 12 19 0 0
BITMAP
000034300000
0002FFC00000
0008FFC00000
000DFFC00000
03BFFFFFFFF1
4FFFFFFFFFF1
5FFFFFFFFFF1
127FFFD22220
005FFFC00000
005FFFC00000
1FFFFFFFFF90
1FFFFFFFFF90
1BCFFFEBBB60
005FFFC00000
005FFFD00000
004FFFF95693
001FFFFFFFF4
0008FFFFFFF4
00005BEFEC91
ENDCHAR
STARTCHAR Utilde
ENCODING 360
SWIDTH 755 0
DWIDTH 21 0
BBX 17 26 2 0
BITMAP
00004CFD8201EF3000
0003FFFFFFDEFE0000
000AFFCFFFFFF70000
000EF4016CED700000
000000000000000000
000000000000000000
9FFF900000007FFFC0
9FFF900000007FFFC0
9FFF900000007FFFC0
9FFF900000007FFFC0
9FFF900000007FFFC0
9FFF900000007FFFC0
9FFF900000007FFFC0
9FFF900000007FFFC0
9FFF900000007FFFC0
9FFF900000007FFFC0
9FFF900000007FFFC0
9FFF900000007FFFC0
9FFF900000007FFFC0
8FFFB00000009FFFA0
6FFFE1000000DFFF80
2FFFFA100008FFFF40
0AFFFFEA9ADFFFFC00
01DFFFFFFFFFFFE200
002BFFFFFFFFFB2000
000049CEFEC9400000
ENDCHAR
STARTCHAR utilde
ENCODING 361
SWIDTH 657 0
DWIDTH 18 0
BBX 15 21 2 0
BITMAP
0019EEB5007FB000
00AFFFFFECFF7000
02FFDDFFFFFE1000
06FC0039DEB30000
0000000000000000
0000000000000000
DFFF400000EFFF30
DFFF400000EFFF30
DFFF400000EFFF30
DFFF400000EFFF30
DFFF400000EFFF30
DFFF400000EFFF30
DFFF400000EFFF30
DFFF400000FFFF30
DFFF400001FFFF30
DFFF600004FFFF30
CFFFA0000BFFFF30
AFFFFA66CFFFFF30
4FFFFFFFFFEFFF30
09FFFFFFF95FFF30
005BEFEA402FFF30
ENDCHAR
STARTCHAR Umacron
ENCODING 362
SWIDTH 755 0
DWIDTH 21 0
BBX 17 25 2 0
BITMAP
0000DDDDDDDDD30000
0000FFFFFFFFF40000
0000FFFFFFFFF40000
000000000000000000
000000000000000000
9FFF900000007FFFC0
9FFF900000007FFFC0
9FFF900000007FFFC0
9FFF900000007FFFC0
9FFF900000007FFFC0
9FFF900000007FFFC0
9FFF900000007FFFC0
9FFF900000007FFFC0
9FFF900000007FFFC0
9FFF900000007FFFC0
9FFF900000007FFFC0
9FFF900000007FFFC0
9FFF900000007FFFC0
8FFFB00000009FFFA0
6FFFE1000000DFFF80
2FFFFA100008FFFF40
0AFFFFEA9ADFFFFC00
01DFFFFFFFFFFFE200
002BFFFFFFFFFB2000
000049CEFEC9400000
ENDCHAR
STARTCHAR umacron
ENCODING 363
SWIDTH 657 0
DWIDTH 18 0
BBX 15 20 2 0
BITMAP
006DDDDDDDDA0000
007FFFFFFFFC0000
007FFFFFFFFC0000
0000000000000000
0000000000000000
DFFF400000EFFF30
DFFF400000EFFF30
DFFF400000EFFF30
DFFF400000EFFF30
DFFF400000EFFF30
DFFF400000EFFF30
DFFF400000EFFF30
DFFF400000FFFF30
DFFF400001FFFF30
DFFF600004FFFF30
CFFFA0000BFFFF30
AFFFFA66CFFFFF30
4FFFFFFFFFEFFF30
09FFFFFFF95FFF30
005BEFEA402FFF30
ENDCHAR
STARTCHAR Ubreve
ENCODING 364
SWIDTH 755 0
DWIDTH 21 0
BBX 17 27 2 0
BITMAP
000BFA000008FD0000
0008FE50005FFA0000
0002FFFFEFFFF30000
00006FFFFFFF600000
000003AEFEA3000000
000000000000000000
000000000000000000
9FFF900000007FFFC0
9FFF900000007FFFC0
9FFF900000007FFFC0
9FFF900000007FFFC0
9FFF900000007FFFC0
9FFF900000007FFFC0
9FFF900000007FFFC0
9FFF900000007FFFC0
9FFF900000007FFFC0
9FFF900000007FFFC0
9FFF900000007FFFC0
9FFF900000007FFFC0
9FFF900000007FFFC0
8FFFB00000009FFFA0
6FFFE1000000DFFF80
2FFFFA100008FFFF40
0AFFFFEA9ADFFFFC00
01DFFFFFFFFFFFE200
002BFFFFFFFFFB2000
000049CEFEC9400000
ENDCHAR
STARTCHAR ubreve
ENCODING 365
SWIDTH 657 0
DWIDTH 18 0
BBX 15 22 2 0
BITMAP
02FF300001EF7000
00EFB2002AFF3000
008FFFEEFFFC0000
001CFFFFFFD20000
00007CEFD8100000
0000000000000000
0000000000000000
DFFF400000EFFF30
DFFF400000EFFF30
DFFF400000EFFF30
DFFF400000EFFF30
DFFF400000EFFF30
DFFF400000EFFF30
DFFF400000EFFF30
DFFF400000FFFF30
DFFF400001FFFF30
DFFF600004FFFF30
CFFFA0000BFFFF30
AFFFFA66CFFFFF30
4FFFFFFFFFEFFF30
09FFFFFFF95FFF30
005BEFEA402FFF30
ENDCHAR
STARTCHAR Uring
ENCODING 366
SWIDTH 755 0
DWIDTH 21 0
BBX 17 29 2 0
BITMAP
0000005CED60000000
000004FFFFF6000000
00000AF907FD000000
00000CF402FF000000
00000AF807FD000000
000004FFFFF6000000
0000005CED60000000
000000000000000000
000000000000000000
9FFF900000007FFFC0
9FFF900000007FFFC0
9FFF900000007FFFC0
9FFF900000007FFFC0
9FFF900000007FFFC0
9FFF900000007FFFC0
9FFF900000007FFFC0
9FFF900000007FFFC0
9FFF900000007FFFC0
9FFF900000007FFFC0
9FFF900000007FFFC0
9FFF900000007FFFC0
9FFF900000007FFFC0
8FFFB00000009FFFA0
6FFFE1000000DFFF80
2FFFFA100008FFFF40
0AFFFFEA9ADFFFFC00
01DFFFFFFFFFFFE200
002BFFFFFFFFFB2000
000049CEFEC9400000
ENDCHAR
STARTCHAR uring
ENCODING 367
SWIDTH 657 0
DWIDTH 18 0
BBX 15 24 2 0
BITMAP
000019DEA2000000
0000BFFFFD100000
0002FF31DF600000
0004FC009F800000
0002FF21DF600000
0000BFFFFD100000
000019EEB2000000
0000000000000000
0000000000000000
DFFF400000EFFF30
DFFF400000EFFF30
DFFF400000EFFF30
DFFF400000EFFF30
DFFF400000EFFF30
DFFF400000EFFF30
DFFF400000EFFF30
DFFF400000FFFF30
DFFF400001FFFF30
DFFF600004FFFF30
CFFFA0000BFFFF30
AFFFFA66CFFFFF30
4FFFFFFFFFEFFF30
09FFFFFFF95FFF30
005BEFEA402FFF30
ENDCHAR
STARTCHAR Uhungarumlaut
ENCODING 368
SWIDTH 755 0
DWIDTH 21 0
BBX 17 26 2 0
BITMAP
000000AFFF83FFFE10
000005FFF81DFFD200
00002EFE509FFA1000
0000CFC206FE600000
000000000000000000
000000000000000000
9FFF900000007FFFC0
9FFF900000007FFFC0
9FFF900000007FFFC0
9FFF900000007FFFC0
9FFF900000007FFFC0
9FFF900000007FFFC0
9FFF900000007FFFC0
9FFF900000007FFFC0
9FFF900000007FFFC0
9FFF900000007FFFC0
9FFF900000007FFFC0
9FFF900000007FFFC0
9FFF900000007FFFC0
8FFFB00000009FFFA0
6FFFE1000000DFFF80
2FFFFA100008FFFF40
0AFFFFEA9ADFFFFC00
01DFFFFFFFFFFFE200
002BFFFFFFFFFB2000
000049CEFEC9400000
ENDCHAR
STARTCHAR uhungarumlaut
ENCODING 369
SWIDTH 657 0
DWIDTH 18 0
BBX 15 21 2 0
BITMAP
00001DFFF48FFFA0
0000AFFE43FFFA00
0006FFC21DFF6000
002FF910AFD30000
0000000000000000
0000000000000000
DFFF400000EFFF30
DFFF400000EFFF30
DFFF400000EFFF30
DFFF400000EFFF30
DFFF400000EFFF30
DFFF400000EFFF30
DFFF400000EFFF30
DFFF400000FFFF30
DFFF400001FFFF30
DFFF600004FFFF30
CFFFA0000BFFFF30
AFFFFA66CFFFFF30
4FFFFFFFFFEFFF30
09FFFFFFF95FFF30
005BEFEA402FFF30
ENDCHAR
STARTCHAR Uogonek
ENCODING 370
SWIDTH 755 0
DWIDTH 21 0
BBX 17 27 2 -7
BITMAP
9FFF900000007FFFC0
9FFF900000007FFFC0
9FFF900000007FFFC0
9FFF900000007FFFC0
9FFF900000007FFFC0
9FFF900000007FFFC0
9FFF900000007FFFC0
9FFF900000007FFFC0
9FFF900000007FFFC0
9FFF900000007FFFC0
9FFF900000007FFFC0
9FFF900000007FFFC0
9FFF900000007FFFC0
8FFFB00000009FFFA0
6FFFE1000000DFFF80
2FFFFA100008FFFF40
0AFFFFEA9ADFFFFC00
01DFFFFFFFFFFFE200
002BFFFFFFFFFB2000
000049CEFEC9400000
00000002DF80000000
0000002DFB00000000
0000009FF300000000
000000CFF100000000
000000BFFB97000000
0000005FFFFA000000
00000005CFE8000000
ENDCHAR
STARTCHAR uogonek
ENCODING 371
SWIDTH 657 0
DWIDTH 18 0
BBX 15 22 2 -7
BITMAP
DFFF400000EFFF30
DFFF400000EFFF30
DFFF400000EFFF30
DFFF400000EFFF30
DFFF400000EFFF30
DFFF400000EFFF30
DFFF400000EFFF30
DFFF400000FFFF30
DFFF400001FFFF30
DFFF600004FFFF30
CFFFA0000BFFFF30
AFFFFA66CFFFFF30
4FFFFFFFFFEFFF30
09FFFFFFF95FFF30
005BEFEA402FFF30
00000000009FD200
0000000009FF3000
000000003FF90000
000000006FF70000
000000005FFE8A10
000000001DFFFF10
0000000002AEEC10
ENDCHAR
STARTCHAR Wcircumflex
ENCODING 372
SWIDTH 966 0
DWIDTH 27 0
BBX 27 26 0 0
BITMAP
00000000004FFFFF500000000000
0000000003EFFFFFF40000000000
000000003EFFC4CFFE4000000000
00000003EFD60006DFF400000000
0000000000000000000000000000
0000000000000000000000000000
DFFF40000009FFFA0000003FFFE0
9FFF8000000DFFFE0000007FFFA0
5FFFB000002FFFFF300000AFFF70
2FFFF000005FFFFF700000EFFF30
0DFFF300009FFFFFB00002FFFE00
09FFF70000DFFCFFE00006FFFA00
05FFFA0002FFF7FFF30009FFF600
01FFFE0006FFF1FFF7000DFFF200
00DFFF200AFFC0CFFB001FFFE000
009FFF600EFF908FFF105FFFA000
005FFFA03FFF504FFF408FFF6000
001FFFD07FFF101FFF80CFFF2000
000CFFF1AFFC000CFFB0FFFD0000
0008FFF4DFF90008FFE3FFFA0000
0005FFF7FFF50004FFF7FFF60000
0001FFFCFFF10000FFFCFFF20000
0000CFFFFFC00000BFFFFFD00000
00008FFFFF8000007FFFFF900000
00004FFFFF4000003FFFFF500000
00001FFFFF1000000EFFFF200000
ENDCHAR
STARTCHAR wcircumflex
ENCODING 373
SWIDTH 855 0
DWIDTH 24 0
BBX 24 21 0 0
BITMAP
000000001CFFFFC000000000
00000000AFFFFFFA00000000
0000000AFFE67FFFA0000000
000000BFFA2002AFFA000000
000000000000000000000000
000000000000000000000000
9FFF900006FFFF700008FFF8
4FFFD0000AFFFFA0000CFFF4
0EFFF2000EFFFFE0001FFFE0
0BFFF6003FFCEFF3005FFFA0
06FFFA007FF9AFF7009FFF60
02FFFD00BFF57FFA00EFFF10
00DFFF20EFF13FFE03FFFC00
008FFF63FFD00EFF26FFF700
004FFF96FF900BFF59FFF300
000EFFB9FF6007FF8CFFE000
000AFFEBFF2004FFAEFF9000
0006FFFEFE0001FFEFFF5000
0002FFFFFA0000CFFFFF1000
0000CFFFF700009FFFFB0000
00008FFFF300005FFFF70000
ENDCHAR
STARTCHAR Ycircumflex
ENCODING 374
SWIDTH 624 0
DWIDTH 17 0
BBX 18 26 0 0
BITMAP
000002EFFFF9000000
00001DFFFFFF700000
0001CFFD5AFFF70000
001DFE81004CFF7000
000000000000000000
000000000000000000
BFFFD00000005FFFF3
3FFFF5000000DFFFA0
0AFFFD000005FFFF20
02FFFF50000DFFF900
009FFFD0006FFFE100
001EFFF500DFFF7000
0008FFFD06FFFE1000
0001EFFF6DFFF60000
00007FFFFFFFD00000
00000DFFFFFF500000
000006FFFFFC000000
000000CFFFF3000000
0000006FFFD0000000
0000006FFFD0000000
0000006FFFD0000000
0000006FFFD0000000
0000006FFFD0000000
0000006FFFD0000000
0000006FFFD0000000
0000006FFFD0000000
ENDCHAR
STARTCHAR ycircumflex
ENCODING 375
SWIDTH 568 0
DWIDTH 16 0
BBX 16 28 0 -7
BITMAP
00001CFFFFC00000
0000AFFFFFFA0000
000AFFE67FFFA000
00BFFA2002AFFA00
0000000000000000
0000000000000000
CFFFB000000BFFFB
6FFFF100001FFFF5
1EFFF600006FFFE1
09FFFB0000BFFF90
03FFFF2001FFFF30
00CFFF7006FFFD00
006FFFC00BFFF700
000EFFF21FFFF200
0008FFF76FFFB000
0002FFFBAFFF5000
0000BFFDDFFE0000
00005FFFFFF90000
00000EFFFFF30000
000008FFFFD00000
000002FFFF700000
000001FFFF200000
000007FFFB000000
00002EFFF5000000
0768EFFFC0000000
1FFFFFFF30000000
1FFFFFE400000000
1CEFD82000000000
ENDCHAR
STARTCHAR Ydieresis
ENCODING 376
SWIDTH 624 0
DWIDTH 17 0
BBX 18 26 0 0
BITMAP
000029920069600000
0000CFFB04FFF40000
0000DFFC05FFF60000
00006EE501BEB10000
000000000000000000
000000000000000000
BFFFD00000005FFFF3
3FFFF5000000DFFFA0
0AFFFD000005FFFF20
02FFFF50000DFFF900
009FFFD0006FFFE100
001EFFF500DFFF7000
0008FFFD06FFFE1000
0001EFFF6DFFF60000
00007FFFFFFFD00000
00000DFFFFFF500000
000006FFFFFC000000
000000CFFFF3000000
0000006FFFD0000000
0000006FFFD0000000
0000006FFFD0000000
0000006FFFD0000000
0000006FFFD0000000
0000006FFFD0000000
0000006FFFD0000000
0000006FFFD0000000
ENDCHAR
STARTCHAR Zacute
ENCODING 377
SWIDTH 579 0
DWIDTH 16 0
BBX 16 26 0 0
BITMAP
000000009FFFE300
00000006FFFC2000
0000005FFF800000
000003FFD4000000
0000000000000000
0000000000000000
1FFFFFFFFFFFFFF4
1FFFFFFFFFFFFFF4
1FFFFFFFFFFFFFF4
0888888888EFFFB0
0000000007FFFE20
000000003FFFF500
00000000CFFFA000
00000008FFFD1000
0000004FFFF40000
000001DFFF900000
000009FFFD100000
00005FFFF3000000
0001EFFF70000000
000BFFFC00000000
006FFFE200000000
02EFFF6000000000
0CFFFE8888888884
5FFFFFFFFFFFFFF8
5FFFFFFFFFFFFFF8
5FFFFFFFFFFFFFF8
ENDCHAR
STARTCHAR zacute
ENCODING 378
SWIDTH 487 0
DWIDTH 14 0
BBX 13 21 0 0
BITMAP
00000005FFFF60
0000003EFFD400
000002EFFA1000
00001DFE600000
00000000000000
00000000000000
0CFFFFFFFFFF90
0CFFFFFFFFFF90
0CFFFFFFFFFF80
02333339FFFD10
0000003FFFF300
000001DFFF7000
00000AFFFA0000
00007FFFD10000
0003FFFF300000
001DFFF7000000
00BFFFA0000000
07FFFE43333320
2FFFFFFFFFFFC0
4FFFFFFFFFFFC0
4FFFFFFFFFFFC0
ENDCHAR
STARTCHAR Zdotaccent
ENCODING 379
SWIDTH 579 0
DWIDTH 16 0
BBX 16 27 0 0
BITMAP
0000000010000000
0000008FFB000000
000001FFFF400000
000001FFFF400000
0000007EE9000000
0000000000000000
0000000000000000
1FFFFFFFFFFFFFF4
1FFFFFFFFFFFFFF4
1FFFFFFFFFFFFFF4
0888888888EFFFB0
0000000007FFFE20
000000003FFFF500
00000000CFFFA000
00000008FFFD1000
0000004FFFF40000
000001DFFF900000
000009FFFD100000
00005FFFF3000000
0001EFFF70000000
000BFFFC00000000
006FFFE200000000
02EFFF6000000000
0CFFFE8888888884
5FFFFFFFFFFFFFF8
5FFFFFFFFFFFFFF8
5FFFFFFFFFFFFFF8
ENDCHAR
STARTCHAR zdotaccent
ENCODING 380
SWIDTH 487 0
DWIDTH 14 0
BBX 13 22 0 0
BITMAP
00000010000000
00001CFF700000
00006FFFE00000
00006FFFE00000
00001BED500000
00000000000000
00000000000000
0CFFFFFFFFFF90
0CFFFFFFFFFF90
0CFFFFFFFFFF80
02333339FFFD10
0000003FFFF300
000001DFFF7000
00000AFFFA0000
00007FFFD10000
0003FFFF300000
001DFFF7000000
00BFFFA0000000
07FFFE43333320
2FFFFFFFFFFFC0
4FFFFFFFFFFFC0
4FFFFFFFFFFFC0
ENDCHAR
STARTCHAR Zcaron
ENCODING 381
SWIDTH 579 0
DWIDTH 16 0
BBX 16 26 0 0
BITMAP
006FFC40017EFD10
0006FFF94DFFD200
00006FFFFFFD2000
000008FFFFE20000
0000000000000000
0000000000000000
1FFFFFFFFFFFFFF4
1FFFFFFFFFFFFFF4
1FFFFFFFFFFFFFF4
0888888888EFFFB0
0000000007FFFE20
000000003FFFF500
00000000CFFFA000
00000008FFFD1000
0000004FFFF40000
000001DFFF900000
000009FFFD100000
00005FFFF3000000
0001EFFF70000000
000BFFFC00000000
006FFFE200000000
02EFFF6000000000
0CFFFE8888888884
5FFFFFFFFFFFFFF8
5FFFFFFFFFFFFFF8
5FFFFFFFFFFFFFF8
ENDCHAR
STARTCHAR zcaron
ENCODING 382
SWIDTH 487 0
DWIDTH 14 0
BBX 13 21 0 0
BITMAP
09FFA20029FFC0
009FFF76EFFB10
0009FFFFFFB100
0000BFFFFD1000
00000000000000
00000000000000
0CFFFFFFFFFF90
0CFFFFFFFFFF90
0CFFFFFFFFFF80
02333339FFFD10
0000003FFFF300
000001DFFF7000
00000AFFFA0000
00007FFFD10000
0003FFFF300000
001DFFF7000000
00BFFFA0000000
07FFFE43333320
2FFFFFFFFFFFC0
4FFFFFFFFFFFC0
4FFFFFFFFFFFC0
ENDCHAR
STARTCHAR longs
ENCODING 383
SWIDTH 382 0
DWIDTH 11 0
BBX 10 21 2 0
BITMAP
007CEFEC92
0BFFFFFFF1
6FFFFFFFC0
AFFFE65750
CFFF700000
CFFF500000
CFFF500000
CFFF500000
CFFF500000
CFFF500000
CFFF500000
CFFF500000
CFFF500000
CFFF500000
CFFF500000
CFFF500000
CFFF500000
CFFF500000
CFFF500000
CFFF500000
CFFF500000
ENDCHAR
STARTCHAR florin
ENCODING 402
SWIDTH 570 0
DWIDTH 16 0
BBX 13 27 2 -7
BITMAP
0000029DFEDA40
00002EFFFFFF50
00009FFFFFFF10
0000DFFFC56700
0000EFFF400000
0000FFFF300000
004BFFFFFFF400
04FFFFFFFFF400
04FFFFFFFFF400
0122FFFF422100
0000FFFF300000
0000FFFF300000
0000FFFF300000
0000FFFF300000
0000FFFF300000
0000FFFF300000
0000FFFF300000
0000FFFF300000
0000FFFF300000
0000FFFF300000
0000FFFF300000
0000FFFF300000
0003FFFF200000
376CFFFF000000
5FFFFFFA000000
5FFFFFD2000000
3DEFD910000000
ENDCHAR
STARTCHAR Ohorn
ENCODING 416
SWIDTH 825 0
DWIDTH 23 0
BBX 23 21 1 0
BITMAP
0000000000000000006FFFD0
0000017BDEFEC830007FFFA0
00008EFFFFFFFFFB20CFFF40
000BFFFFFFFFFFFFE8FFFC00
009FFFFFC98AEFFFFFFFE200
03FFFFD300001AFFFFFB2000
0AFFFF30000000CFFFE00000
0EFFFA000000005FFFF30000
3FFFF5000000001FFFF70000
4FFFF3000000000DFFF80000
5FFFF2000000000CFFF90000
5FFFF2000000000CFFF90000
4FFFF3000000000DFFF80000
2FFFF5000000001FFFF70000
0EFFFA000000005FFFF30000
0AFFFF30000000CFFFE00000
03FFFFD300001BFFFF700000
009FFFFFC99BFFFFFC100000
000BFFFFFFFFFFFFD2000000
00008FFFFFFFFFFB10000000
0000017BDEFEC83000000000
ENDCHAR
STARTCHAR ohorn
ENCODING 417
SWIDTH 679 0
DWIDTH 19 0
BBX 20 17 1 0
BITMAP
000000000000001FFFF3
000000000000003FFFE0
00017BEFEC82008FFF90
004EFFFFFFFF88FFFE20
03FFFFFFFFFFFFFFE400
0DFFFE867DFFFFE92000
4FFFF30001DFFF800000
8FFFB000007FFFD00000
AFFF9000004FFFF00000
BFFF8000003FFFF10000
9FFF9000004FFFF00000
8FFFC000007FFFD00000
3FFFF40001DFFF900000
0CFFFE857CFFFF300000
02EFFFFFFFFFF8000000
003DFFFFFFFF80000000
00016BDFEC8200000000
ENDCHAR
STARTCHAR Uhorn
ENCODING 431
SWIDTH 884 0
DWIDTH 25 0
BBX 23 21 2 0
BITMAP
0000000000000000004FFFE0
9FFF900000007FFFC06FFFB0
9FFF900000007FFFC0BFFF60
9FFF900000007FFFC7FFFD00
9FFF900000007FFFFFFFE300
9FFF900000007FFFFFFA2000
9FFF900000007FFFD5200000
9FFF900000007FFFC0000000
9FFF900000007FFFC0000000
9FFF900000007FFFC0000000
9FFF900000007FFFC0000000
9FFF900000007FFFC0000000
9FFF900000007FFFC0000000
9FFF900000007FFFC0000000
8FFFB00000008FFFB0000000
6FFFE1000000CFFF90000000
2FFFFA000008FFFF50000000
0AFFFFEA9ADFFFFD00000000
01DFFFFFFFFFFFE200000000
002BFFFFFFFFFC3000000000
000049CEFEC9400000000000
ENDCHAR
STARTCHAR uhorn
ENCODING 432
SWIDTH 759 0
DWIDTH 21 0
BBX 21 17 2 0
BITMAP
0000000000000000CFFF70
0000000000000000EFFF40
DFFF400000EFFF34FFFE00
DFFF400000EFFF6DFFF700
DFFF400000EFFFFFFFA000
DFFF400000EFFFFFD60000
DFFF400000EFFF83000000
DFFF400000EFFF30000000
DFFF400000EFFF30000000
DFFF400000FFFF30000000
DFFF400001FFFF30000000
DFFF600004FFFF30000000
CFFFA0000BFFFF30000000
AFFFFA66CFFFFF30000000
4FFFFFFFFFEFFF30000000
09FFFFFFF85FFF30000000
005BEFEA402FFF30000000
ENDCHAR
STARTCHAR uni01F0
ENCODING 496
SWIDTH 305 0
DWIDTH 9 0
BBX 13 28 -2 -7
BITMAP
7FFB30018EFD10
07FFF95DFFD200
007FFFFFFD2000
0009FFFFE20000
00000000000000
00000000000000
0000CFFF500000
0000CFFF500000
0000CFFF500000
0000CFFF500000
0000CFFF500000
0000CFFF500000
0000CFFF500000
0000CFFF500000
0000CFFF500000
0000CFFF500000
0000CFFF500000
0000CFFF500000
0000CFFF500000
0000CFFF500000
0000CFFF500000
0000CFFF500000
0000DFFF500000
0001FFFF500000
776CFFFF200000
CFFFFFFC000000
CFFFFFE2000000
9EFFD810000000
ENDCHAR
STARTCHAR Aringacute
ENCODING 506
SWIDTH 689 0
DWIDTH 19 0
BBX 20 27 0 0
BITMAP
0000000001EFFFA00000
000000000BFFF7000000
000000009FFB20000000
00000000333000000000
00000003BDC600000000
0000002FFFFF70000000
0000009FA17FE0000000
000000BF501FF1000000
0000009F906FE0000000
0000004FFFFF90000000
0000007FFFFFC0000000
000000DFFEFFF3000000
000004FFF6FFF9000000
00000AFFE1AFFE000000
00001FFFA05FFF500000
00007FFF400DFFB00000
0000DFFD0008FFF20000
0004FFF80002FFF80000
000AFFF20000CFFE0000
001FFFFFFFFFFFFF5000
007FFFFFFFFFFFFFB000
00CFFFFFFFFFFFFFF200
03FFFF8888888CFFF800
09FFFB00000006FFFE00
1EFFF600000001FFFF50
6FFFF100000000BFFFB0
CFFFB0000000006FFFF2
ENDCHAR
STARTCHAR aringacute
ENCODING 507
SWIDTH 604 0
DWIDTH 17 0
BBX 14 27 1 0
BITMAP
00000009FFFE30
0000006FFFA100
000004EEC30000
00000000000000
000004BDB50000
00003FFFFF6000
0000AF917FD000
0000CF402FF000
0000AF917FD000
00003FFFFF6000
000004BDC50000
00000000000000
0016ADEFEC8200
03EFFFFFFFFF60
00DFFFFFFFFFF3
005E95225EFFF9
0001000007FFFB
0000000005FFFC
0016ACDEEFFFFC
07EFFFFFFFFFFC
5FFFFEA879FFFC
AFFFC10005FFFC
CFFF800009FFFC
BFFFD3139FFFFC
7FFFFFFFFEEFFC
1CFFFFFFE39FFC
018DFED9204FFC
ENDCHAR
STARTCHAR AEacute
ENCODING 508
SWIDTH 952 0
DWIDTH 27 0
BBX 25 26 0 0
BITMAP
00000000000000007FFFF50000
0000000000000004FFFD300000
000000000000003EFF91000000
00000000000002EFE500000000
00000000000000000000000000
00000000000000000000000000
000000004FFFFFFFFFFFFFFFF0
00000000BFFFFFFFFFFFFFFFF0
00000003FFFFFFFFFFFFFFFFF0
00000009FFFB9FFFFA77777770
0000001FFFE00EFFF500000000
0000008FFF800EFFF500000000
000001EFFF200EFFF500000000
000006FFFB000EFFF500000000
00000DFFF5000EFFFFFFFFFF80
00005FFFE0000EFFFFFFFFFF80
0000BFFF80000EFFFFFFFFFF80
0003FFFF20000EFFFA77777740
000AFFFFFFFFFFFFF500000000
002FFFFFFFFFFFFFF500000000
008FFFFFFFFFFFFFF500000000
01EFFFA888888FFFF500000000
07FFFE0000000EFFFA88888880
0DFFF70000000EFFFFFFFFFFF0
5FFFE10000000EFFFFFFFFFFF0
CFFF800000000EFFFFFFFFFFF0
ENDCHAR
STARTCHAR aeacute
ENCODING 509
SWIDTH 916 0
DWIDTH 26 0
BBX 24 21 1 0
BITMAP
0000000000004FFFF7000000
000000000002EFFE40000000
00000000002DFFB200000000
0000000001DFE70000000000
000000000000000000000000
000000000000000000000000
0016ADEFEB6004ADFED82000
03EFFFFFFFFBAFFFFFFFF500
00DFFFFFFFFFFFFFFFFFFF30
006E84226FFFFFC4019FFFC0
000000000AFFFF20000CFFF2
0000000009FFFC000008FFF5
0027ACDEFFFFFFFFFFFFFFF7
07FFFFFFFFFFFFFFFFFFFFF7
5FFFFEA87CFFFECCCCCCCCC5
AFFFC1000AFFFB0000000000
CFFF80000DFFFF3000000000
BFFFC313BFFFFFE732357C90
6FFFFFFFFFDAFFFFFFFFFF90
0BFFFFFFFC209FFFFFFFFF90
007CFFDB6000039DEFEDA510
ENDCHAR
STARTCHAR Oslashacute
ENCODING 510
SWIDTH 795 0
DWIDTH 22 0
BBX 20 27 1 -1
BITMAP
00000000007FFFE40000
0000000004FFFD300000
000000003EFF91000000
00000002EFE500000000
00000000000000000000
00000000000000037000
0000017BDEFDC83CFC10
00008FFFFFFFFFFFF900
001BFFFFFFFFFFFFF300
009FFFFFC99BFFFFFD10
03FFFFD300008FFFFF70
0AFFFF300003FFFFFFE0
0EFFFA00001DFF9FFFF3
3FFFF500009FF81FFFF7
4FFFF30005FFC00EFFF8
5FFFF2001EFF300CFFF9
5FFFF200BFF7000CFFF9
4FFFF306FFB0000DFFF8
2FFFF52EFE20001FFFF7
0EFFFACFF600005FFFF3
0AFFFFFFA00000DFFFE0
03FFFFFE10001BFFFF70
00AFFFFFC99BFFFFFC10
000DFFFFFFFFFFFFD200
003FFFFFFFFFFFFB1000
009FF67BDEFEC8300000
00069000000000000000
ENDCHAR
STARTCHAR oslashacute
ENCODING 511
SWIDTH 619 0
DWIDTH 17 0
BBX 16 22 1 -1
BITMAP
00000001DFFFB000
0000000BFFF80000
000000AFFE400000
000008FFA1000000
0000000000000000
0000000000021000
00017BEFEC8CD400
004EFFFFFFFFF900
03FFFFFFFFFFF700
0DFFFE867FFFFF20
4FFFF3008FFFFF90
8FFFB004FFFFFFD0
AFFF901EFE6FFFF0
BFFF80BFF53FFFF1
AFFF97FF904FFFF0
8FFFDFFC107FFFD0
4FFFFFE301DFFF90
0CFFFFC67CFFFF30
03EFFFFFFFFFF800
01DFFFFFFFFF8000
04EF9BEFEC820000
0028000000000000
ENDCHAR
STARTCHAR Scommaaccent
ENCODING 536
SWIDTH 550 0
DWIDTH 15 0
BBX 14 26 1 -6
BITMAP
00039DEFEC8400
009FFFFFFFFFD1
09FFFFFFFFFFC0
2FFFFE98ADFF50
6FFFE100003800
7FFFB000000000
6FFFE200000000
2FFFFE60000000
09FFFFFD710000
00AFFFFFFE5000
0006DFFFFFF900
000006DFFFFF80
00000006EFFFE1
000000003FFFF4
000000000DFFF4
AA4000003FFFF2
BFFEA88AFFFFD0
BFFFFFFFFFFF40
AFFFFFFFFFE500
049CEFFEB71000
00000000000000
00000000000000
00008FFF400000
0000BFFB000000
0000EFF3000000
0003FF70000000
ENDCHAR
STARTCHAR scommaaccent
ENCODING 537
SWIDTH 497 0
DWIDTH 14 0
BBX 12 21 1 -6
BITMAP
004ADEFEC940
09FFFFFFFFF8
5FFFFFFFFFF2
AFFFA3237DB0
BFFFA0000010
8FFFFD710000
1DFFFFFFA300
02AFFFFFFF80
00039EFFFFF6
0000017EFFFB
20000005FFFC
BD84212AFFFA
BFFFFFFFFFF5
BFFFFFFFFF80
27BEFFEC9300
000000000000
000000000000
0003FFF80000
0006FFE10000
000AFF700000
000EFC000000
ENDCHAR
STARTCHAR Tcommaaccent
ENCODING 538
SWIDTH 579 0
DWIDTH 16 0
BBX 16 26 0 -6
BITMAP
7FFFFFFFFFFFFFFA
7FFFFFFFFFFFFFFA
7FFFFFFFFFFFFFFA
388888FFFFA88885
000000FFFF400000
000000FFFF400000
000000FFFF400000
000000FFFF400000
000000FFFF400000
000000FFFF400000
000000FFFF400000
000000FFFF400000
000000FFFF400000
000000FFFF400000
000000FFFF400000
000000FFFF400000
000000FFFF400000
000000FFFF400000
000000FFFF400000
000000FFFF400000
0000000000000000
0000000000000000
000000DFFD000000
000001FFF5000000
000005FFB0000000
000009FE20000000
ENDCHAR
STARTCHAR tcommaaccent
ENCODING 539
SWIDTH 434 0
DWIDTH 12 0
BBX 12 25 0 -6
BITMAP
000034300000
0002FFC00000
0008FFC00000
000DFFC00000
03BFFFFFFFF1
4FFFFFFFFFF1
5FFFFFFFFFF1
127FFFD22220
005FFFC00000
005FFFC00000
005FFFC00000
005FFFC00000
005FFFC00000
005FFFC00000
005FFFD00000
004FFFFA5693
001EFFFFFFF4
0006FFFFFFF4
00005BEFEC81
000000000000
000000000000
00002FFFA000
00005FFF2000
00009FF80000
0000DFD00000
ENDCHAR
STARTCHAR dotlessj
ENCODING 567
SWIDTH 305 0
DWIDTH 9 0
BBX 9 22 -2 -7
BITMAP
0000CFFF50
0000CFFF50
0000CFFF50
0000CFFF50
0000CFFF50
0000CFFF50
0000CFFF50
0000CFFF50
0000CFFF50
0000CFFF50
0000CFFF50
0000CFFF50
0000CFFF50
0000CFFF50
0000CFFF50
0000CFFF50
0000DFFF50
0001FFFF50
776CFFFF20
CFFFFFFC00
CFFFFFE200
9EFFD81000
ENDCHAR
STARTCHAR uni02BC
ENCODING 700
SWIDTH 216 0
DWIDTH 6 0
BBX 6 7 0 13
BITMAP
06FFFA
08FFF6
0BFFF1
0EFFB0
2FFF60
5FFE10
8FF800
ENDCHAR
STARTCHAR circumflex
ENCODING 710
SWIDTH 606 0
DWIDTH 17 0
BBX 13 4 2 17
BITMAP
0005FFFFF50000
004FFFFFFE3000
04EFFB4CFFE400
4FFD60006DFE30
ENDCHAR
STARTCHAR caron
ENCODING 711
SWIDTH 606 0
DWIDTH 17 0
BBX 13 4 2 17
BITMAP
4FFD50006DFE30
04EFFB4CFFE400
004FFFFFFE4000
0005FFFFF50000
ENDCHAR
STARTCHAR macron
ENCODING 713
SWIDTH 606 0
DWIDTH 17 0
BBX 11 3 3 17
BITMAP
2DDDDDDDDD20
2FFFFFFFFF20
2FFFFFFFFF20
ENDCHAR
STARTCHAR breve
ENCODING 728
SWIDTH 606 0
DWIDTH 17 0
BBX 11 5 3 17
BITMAP
DF800000AFC0
AFE40016FF80
3FFFEEFFFF20
07FFFFFFF500
004BEFD92000
ENDCHAR
STARTCHAR dotaccent
ENCODING 729
SWIDTH 305 0
DWIDTH 9 0
BBX 5 5 2 17
BITMAP
001000
6EFC10
EFFF70
DFFF70
5DEB10
ENDCHAR
STARTCHAR ring
ENCODING 730
SWIDTH 577 0
DWIDTH 16 0
BBX 8 7 4 17
BITMAP
019EEA20
0BFFFFD0
3FE21DF5
5FC00AF7
3FE21EF5
0CFFFFD0
019EEA20
ENDCHAR
STARTCHAR ogonek
ENCODING 731
SWIDTH 206 0
DWIDTH 6 0
BBX 6 7 0 -7
BITMAP
02DF90
1DFB00
9FF300
CFF100
BFFB97
5FFFFA
05CFE8
ENDCHAR
STARTCHAR tilde
ENCODING 732
SWIDTH 606 0
DWIDTH 17 0
BBX 13 4 2 17
BITMAP
006DFC7102FF10
05FFFFFFDEFC00
0CFECFFFFFF400
1FF2017CFD5000
ENDCHAR
STARTCHAR hungarumlaut
ENCODING 733
SWIDTH 587 0
DWIDTH 16 0
BBX 13 4 2 17
BITMAP
008FFFA2EFFE20
03FFFA1BFFE300
1DFF608FFB1000
AFD304FF700000
ENDCHAR
STARTCHAR uni02F3
ENCODING 755
SWIDTH 333 0
DWIDTH 9 0
BBX 7 6 1 -8
BITMAP
06CED700
5FFFFF90
BF805FE0
BF705FE0
6FFEFF90
06DED800
ENDCHAR
STARTCHAR uni0300
ENCODING 768
SWIDTH 0 0
DWIDTH 0 0
BBX 9 4 -14 17
BITMAP
5FFFF50000
03DFFF3000
001AFFE200
00006EFD10
ENDCHAR
STARTCHAR uni0301
ENCODING 769
SWIDTH 0 0
DWIDTH 0 0
BBX 9 4 -12 17
BITMAP
0005FFFF60
003EFFE400
02EFFB1000
1DFE600000
ENDCHAR
STARTCHAR uni0303
ENCODING 771
SWIDTH 0 0
DWIDTH 0 0
BBX 12 4 -15 17
BITMAP
008EEB5006FC
09FFFFFECFF8
2FFDDFFFFFE1
5FD1039DFB30
ENDCHAR
STARTCHAR hook
ENCODING 777
SWIDTH 0 0
DWIDTH 0 0
BBX 7 7 -11 17
BITMAP
CEFD8100
FFFFFB00
759FFF10
002FFF20
04CFFD00
0BFFC200
09FE0000
ENDCHAR
STARTCHAR uni030F
ENCODING 783
SWIDTH 0 0
DWIDTH 0 0
BBX 13 4 -16 17
BITMAP
8FFFA2EFFE2000
08FFF33EFFA000
007FFD02DFF400
0004EF801AFE10
ENDCHAR
STARTCHAR dotbelow
ENCODING 803
SWIDTH 0 0
DWIDTH 0 0
BBX 5 5 -11 -7
BITMAP
5DEB10
EFFF60
EFFF60
7FFC10
001000
ENDCHAR
STARTCHAR tonos
ENCODING 900
SWIDTH 577 0
DWIDTH 16 0
BBX 6 5 6 17
BITMAP
08FFF5
0BFFD0
0EFF50
3FFC00
8FF300
ENDCHAR
STARTCHAR dieresistonos
ENCODING 901
SWIDTH 577 0
DWIDTH 16 0
BBX 12 6 2 17
BITMAP
000009FFE000
00000BFF6000
07940EFC3981
5FFE3FF3DFF7
6FFF3640EFF8
1CE800007ED2
ENDCHAR
STARTCHAR Alphatonos
ENCODING 902
SWIDTH 689 0
DWIDTH 19 0
BBX 21 21 -1 0
BITMAP
0BFFF20000000000000000
0EFFA002FFFFF600000000
2FFF2007FFFFFB00000000
6FF9000CFFFFFF20000000
BFE1003FFFCFFF70000000
0000008FFF5EFFC0000000
000000DFFF1AFFF3000000
000004FFFB06FFF8000000
000009FFF601FFFD000000
00000EFFF200CFFF400000
00004FFFC0007FFF900000
0000AFFF80002FFFE00000
0001EFFF30000DFFF50000
0005FFFFFFFFFFFFFA0000
000BFFFFFFFFFFFFFE1000
001FFFFFFFFFFFFFFF5000
006FFFF8888888DFFFB000
00CFFFB00000006FFFF100
02FFFF600000001FFFF600
07FFFF100000000BFFFC00
0CFFFB0000000006FFFF20
ENDCHAR
STARTCHAR anoteleia
ENCODING 903
SWIDTH 285 0
DWIDTH 8 0
BBX 6 5 1 8
BITMAP
049930
2FFFF2
5FFFF5
4FFFF3
08EE80
ENDCHAR
STARTCHAR Epsilontonos
ENCODING 904
SWIDTH 629 0
DWIDTH 18 0
BBX 18 21 -2 0
BITMAP
05FFF8000000000000
08FFE18FFFFFFFFFFF
0BFF808FFFFFFFFFFF
1FFE108FFFFFFFFFFF
5FF6008FFFD7777777
0000008FFFB0000000
0000008FFFB0000000
0000008FFFB0000000
0000008FFFB0000000
0000008FFFFFFFFFF7
0000008FFFFFFFFFF7
0000008FFFFFFFFFF7
0000008FFFD7777773
0000008FFFB0000000
0000008FFFB0000000
0000008FFFB0000000
0000008FFFB0000000
0000008FFFD8888887
0000008FFFFFFFFFFF
0000008FFFFFFFFFFF
0000008FFFFFFFFFFF
ENDCHAR
STARTCHAR Etatonos
ENCODING 905
SWIDTH 834 0
DWIDTH 23 0
BBX 23 21 -2 0
BITMAP
05FFF8000000000000000000
08FFE18FFFB00000006FFFD0
0BFF808FFFB00000006FFFD0
1FFE108FFFB00000006FFFD0
5FF6008FFFB00000006FFFD0
0000008FFFB00000006FFFD0
0000008FFFB00000006FFFD0
0000008FFFB00000006FFFD0
0000008FFFB00000006FFFD0
0000008FFFFFFFFFFFFFFFD0
0000008FFFFFFFFFFFFFFFD0
0000008FFFFFFFFFFFFFFFD0
0000008FFFD8888888BFFFD0
0000008FFFB00000006FFFD0
0000008FFFB00000006FFFD0
0000008FFFB00000006FFFD0
0000008FFFB00000006FFFD0
0000008FFFB00000006FFFD0
0000008FFFB00000006FFFD0
0000008FFFB00000006FFFD0
0000008FFFB00000006FFFD0
ENDCHAR
STARTCHAR Iotatonos
ENCODING 906
SWIDTH 512 0
DWIDTH 14 0
BBX 13 21 -2 0
BITMAP
05FFF800000000
08FFE100FFFF30
0BFF8000FFFF30
1FFE1000FFFF30
5FF60000FFFF30
00000000FFFF30
00000000FFFF30
00000000FFFF30
00000000FFFF30
00000000FFFF30
00000000FFFF30
00000000FFFF30
00000000FFFF30
00000000FFFF30
00000000FFFF30
00000000FFFF30
00000000FFFF30
00000000FFFF30
00000000FFFF30
00000000FFFF30
00000000FFFF30
ENDCHAR
STARTCHAR Omicrontonos
ENCODING 908
SWIDTH 835 0
DWIDTH 23 0
BBX 23 21 -1 0
BITMAP
0BFFF2000000000000000000
0EFF900016ADEFEC94000000
3FFF2007EFFFFFFFFFC30000
7FF800AFFFFFFFFFFFFE4000
BFD107FFFFFC98AEFFFFE200
00002FFFFE4000019FFFF900
00008FFFF40000000BFFFF10
0000CFFFC000000003FFFF50
0001FFFF7000000000EFFF90
0002FFFF4000000000BFFFA0
0003FFFF3000000000AFFFB0
0003FFFF3000000000AFFFB0
0002FFFF4000000000BFFFA0
0001FFFF7000000000EFFF80
0000CFFFC000000003FFFF50
00008FFFF40000000BFFFF10
00002FFFFE5000019FFFF900
000007FFFFFD99AEFFFFE100
000000AFFFFFFFFFFFFE3000
00000007EFFFFFFFFFB20000
0000000016ADEFEC94000000
ENDCHAR
STARTCHAR Upsilontonos
ENCODING 910
SWIDTH 764 0
DWIDTH 21 0
BBX 24 21 -2 0
BITMAP
09FFF4000000000000000000
0CFFC0CFFFB00000006FFFF2
1FFF404FFFF4000000EFFF90
5FFA000BFFFC000007FFFE10
9FF20003FFFF40001EFFF700
00000000AFFFC0007FFFE100
000000002FFFF401EFFF6000
0000000009FFFC07FFFD0000
0000000001EFFF5EFFF50000
00000000008FFFFFFFC00000
00000000001EFFFFFF400000
000000000007FFFFFA000000
000000000000DFFFF2000000
0000000000007FFFC0000000
0000000000007FFFC0000000
0000000000007FFFC0000000
0000000000007FFFC0000000
0000000000007FFFC0000000
0000000000007FFFC0000000
0000000000007FFFC0000000
0000000000007FFFC0000000
ENDCHAR
STARTCHAR Omegatonos
ENCODING 911
SWIDTH 786 0
DWIDTH 22 0
BBX 24 21 -1 0
BITMAP
0BFFF2000000000000000000
0EFF900027BDEFEC94000000
3FFF2008FFFFFFFFFFD30000
7FF801CFFFFFFFFFFFFF6000
BFD10BFFFFFC98AEFFFFF400
00006FFFFD3000018FFFFD00
0000DFFFE200000009FFFF40
0002FFFF8000000001FFFF80
0004FFFF4000000000CFFFA0
0004FFFF2000000000AFFFB0
0003FFFF2000000000AFFFA0
0001FFFF2000000000BFFF80
0000CFFF5000000000DFFF40
00006FFF9000000003FFFD00
00000CFFE100000008FFF400
000002EFFB0000003FFF8000
0000003DFFA10005EFF80000
0008888AFFFA004FFFD88884
000FFFFFFFFB005FFFFFFFF7
000FFFFFFFFB005FFFFFFFF7
000FFFFFFFFB005FFFFFFFF7
ENDCHAR
STARTCHAR iotadieresistonos
ENCODING 912
SWIDTH 407 0
DWIDTH 11 0
BBX 12 23 -1 0
BITMAP
00000DFFA000
00001FFF2000
19924FF86A60
9FFA7FD3FFF3
AFFB4623FFF4
4EE40000BEB0
000000000000
000000000000
000CFFF50000
000CFFF50000
000CFFF50000
000CFFF50000
000CFFF50000
000CFFF50000
000CFFF50000
000CFFF50000
000CFFF50000
000CFFF50000
000CFFF70000
000AFFFE7579
0006FFFFFFFC
0000CFFFFFFC
000017CEFDB5
ENDCHAR
STARTCHAR Alpha
ENCODING 913
SWIDTH 689 0
DWIDTH 19 0
BBX 20 20 0 0
BITMAP
0000002FFFFF60000000
0000007FFFFFB0000000
000000CFFFFFF2000000
000003FFFCFFF7000000
000008FFF5EFFC000000
00000DFFF1AFFF300000
00004FFFB06FFF800000
00009FFF601FFFD00000
0000EFFF200CFFF40000
0004FFFC0007FFF90000
000AFFF80002FFFE0000
001EFFF30000DFFF5000
005FFFFFFFFFFFFFA000
00BFFFFFFFFFFFFFE100
01FFFFFFFFFFFFFFF500
06FFFF8888888DFFFB00
0CFFFB00000006FFFF10
2FFFF600000001FFFF60
7FFFF100000000BFFFC0
CFFFB0000000006FFFF2
ENDCHAR
STARTCHAR Beta
ENCODING 914
SWIDTH 671 0
DWIDTH 19 0
BBX 16 20 2 0
BITMAP
7FFFFFFFECA61000
7FFFFFFFFFFFE400
7FFFFFFFFFFFFF20
7FFFD7789EFFFF90
7FFFB00001DFFFC0
7FFFB000009FFFC0
7FFFB00000AFFFA0
7FFFB00027FFFF40
7FFFFFFFFFFFF800
7FFFFFFFFFFE5000
7FFFFFFFFFFFFB10
7FFFD5567BFFFFA0
7FFFB000008FFFF1
7FFFB000002FFFF4
7FFFB000003FFFF5
7FFFB00000AFFFF3
7FFFD8889DFFFFD0
7FFFFFFFFFFFFF50
7FFFFFFFFFFFE500
7FFFFFFFFEB71000
ENDCHAR
STARTCHAR Gamma
ENCODING 915
SWIDTH 561 0
DWIDTH 16 0
BBX 14 20 2 0
BITMAP
7FFFFFFFFFFFF2
7FFFFFFFFFFFF2
7FFFFFFFFFFFF2
7FFFD888888881
7FFFB000000000
7FFFB000000000
7FFFB000000000
7FFFB000000000
7FFFB000000000
7FFFB000000000
7FFFB000000000
7FFFB000000000
7FFFB000000000
7FFFB000000000
7FFFB000000000
7FFFB000000000
7FFFB000000000
7FFFB000000000
7FFFB000000000
7FFFB000000000
ENDCHAR
STARTCHAR uni0394
ENCODING 916
SWIDTH 658 0
DWIDTH 18 0
BBX 18 20 0 0
BITMAP
0000005FFFFC000000
000000AFFFFF200000
000001FFFFFF700000
000005FFFEFFC00000
00000BFFE8FFF20000
00001FFFB4FFF80000
00006FFF60EFFD0000
0000BFFF109FFF3000
0001FFFB004FFF8000
0007FFF6000EFFD000
000CFFF1000AFFF300
002FFFB00005FFF800
007FFF600000EFFD00
00CFFF100000AFFF40
02FFFB0000005FFF90
08FFF60000001EFFE0
0DFFF98888888DFFF4
2FFFFFFFFFFFFFFFF9
3FFFFFFFFFFFFFFFFA
3FFFFFFFFFFFFFFFFA
ENDCHAR
STARTCHAR Epsilon
ENCODING 917
SWIDTH 560 0
DWIDTH 16 0
BBX 12 20 2 0
BITMAP
7FFFFFFFFFFF
7FFFFFFFFFFF
7FFFFFFFFFFF
7FFFD7777777
7FFFB0000000
7FFFB0000000
7FFFB0000000
7FFFB0000000
7FFFFFFFFFF8
7FFFFFFFFFF8
7FFFFFFFFFF8
7FFFD7777774
7FFFB0000000
7FFFB0000000
7FFFB0000000
7FFFB0000000
7FFFD8888888
7FFFFFFFFFFF
7FFFFFFFFFFF
7FFFFFFFFFFF
ENDCHAR
STARTCHAR Zeta
ENCODING 918
SWIDTH 579 0
DWIDTH 16 0
BBX 16 20 0 0
BITMAP
1FFFFFFFFFFFFFF4
1FFFFFFFFFFFFFF4
1FFFFFFFFFFFFFF4
0888888888EFFFB0
0000000007FFFE20
000000003FFFF500
00000000CFFFA000
00000008FFFD1000
0000004FFFF40000
000001DFFF900000
000009FFFD100000
00005FFFF3000000
0001EFFF70000000
000BFFFC00000000
006FFFE200000000
02EFFF6000000000
0CFFFE8888888884
5FFFFFFFFFFFFFF8
5FFFFFFFFFFFFFF8
5FFFFFFFFFFFFFF8
ENDCHAR
STARTCHAR Eta
ENCODING 919
SWIDTH 765 0
DWIDTH 21 0
BBX 17 20 2 0
BITMAP
7FFFB00000005FFFD0
7FFFB00000005FFFD0
7FFFB00000005FFFD0
7FFFB00000005FFFD0
7FFFB00000005FFFD0
7FFFB00000005FFFD0
7FFFB00000005FFFD0
7FFFB00000005FFFD0
7FFFFFFFFFFFFFFFD0
7FFFFFFFFFFFFFFFD0
7FFFFFFFFFFFFFFFD0
7FFFD8888888AFFFD0
7FFFB00000005FFFD0
7FFFB00000005FFFD0
7FFFB00000005FFFD0
7FFFB00000005FFFD0
7FFFB00000005FFFD0
7FFFB00000005FFFD0
7FFFB00000005FFFD0
7FFFB00000005FFFD0
ENDCHAR
STARTCHAR Theta
ENCODING 920
SWIDTH 795 0
DWIDTH 22 0
BBX 20 20 1 0
BITMAP
0000017BDEFDC8300000
00008FFFFFFFFFFB2000
001BFFFFFFFFFFFFE300
009FFFFFC98AEFFFFD10
03FFFFD300001AFFFF80
0AFFFE20000000CFFFE0
0EFFF9000000004FFFF3
3FFFF4000000000EFFF7
4FFFF16FFFFFFB0CFFF8
5FFFF06FFFFFFB0BFFF9
5FFFF06FFFFFFB0BFFF9
4FFFF1377777750CFFF8
2FFFF4000000000EFFF7
0EFFF9000000004FFFF3
0AFFFE20000000CFFFE0
03FFFFD300001BFFFF70
009FFFFFC99BFFFFFC10
000BFFFFFFFFFFFFD200
00008FFFFFFFFFFB1000
0000017BDEFEC8300000
ENDCHAR
STARTCHAR Iota
ENCODING 921
SWIDTH 331 0
DWIDTH 9 0
BBX 5 20 2 0
BITMAP
7FFFB0
7FFFB0
7FFFB0
7FFFB0
7FFFB0
7FFFB0
7FFFB0
7FFFB0
7FFFB0
7FFFB0
7FFFB0
7FFFB0
7FFFB0
7FFFB0
7FFFB0
7FFFB0
7FFFB0
7FFFB0
7FFFB0
7FFFB0
ENDCHAR
STARTCHAR Kappa
ENCODING 922
SWIDTH 664 0
DWIDTH 19 0
BBX 17 20 2 0
BITMAP
7FFFB0000008FFFE30
7FFFB000005FFFF500
7FFFB00003EFFF9000
7FFFB0001DFFFB0000
7FFFB000BFFFE10000
7FFFB008FFFF300000
7FFFB05FFFF6000000
7FFFB2EFFF90000000
7FFFBCFFFC10000000
7FFFFFFFFE10000000
7FFFFFFFFF90000000
7FFFFFCFFFF3000000
7FFFE50DFFFD000000
7FFFB004FFFF700000
7FFFB000AFFFF20000
7FFFB0001EFFFB0000
7FFFB00006FFFF6000
7FFFB00000CFFFE100
7FFFB000003FFFFA00
7FFFB0000008FFFF40
ENDCHAR
STARTCHAR Lambda
ENCODING 923
SWIDTH 649 0
DWIDTH 18 0
BBX 19 20 0 0
BITMAP
0000006FFFF900000000
000000BFFFFE00000000
000001FFFFFF40000000
000006FFFEFF90000000
00000BFFEAFFE0000000
00001FFFA7FFF4000000
00006FFF73FFF9000000
0000BFFF30EFFE000000
0002FFFD00AFFF400000
0007FFF9005FFFA00000
000CFFF4001FFFE00000
002FFFE0000BFFF50000
007FFFA00006FFFA0000
00CFFF500002FFFE1000
02FFFF100000CFFF5000
07FFFA0000007FFFA000
0CFFF60000003FFFE100
2FFFF10000000DFFF500
7FFFB000000008FFFA00
DFFF7000000004FFFF10
ENDCHAR
STARTCHAR Mu
ENCODING 924
SWIDTH 942 0
DWIDTH 26 0
BBX 22 20 2 0
BITMAP
7FFFFF7000000001FFFFFD
7FFFFFB000000006FFFFFD
7FFFFFF10000000BFFFFFD
7FFFFFF50000001FFFFFFD
7FFFDFFA0000006FFEEFFD
7FFF9FFE000000AFFAEFFD
7FFF5FFF400001FFF5EFFD
7FFF3DFF900005FFE0FFFD
7FFF48FFE0000AFFA0FFFD
7FFF44FFF3001EFF51FFFD
7FFF40EFF8005FFE01FFFD
7FFF409FFD00AFFA01FFFD
7FFF405FFF21EFF501FFFD
7FFF401FFF75FFE101FFFD
7FFF400BFFCAFFA001FFFD
7FFF4006FFFEFF5001FFFD
7FFF4001FFFFFE1001FFFD
7FFF4000CFFFFA0001FFFD
7FFF40007FFFF50001FFFD
7FFF40003FFFF10001FFFD
ENDCHAR
STARTCHAR Nu
ENCODING 925
SWIDTH 812 0
DWIDTH 23 0
BBX 19 20 2 0
BITMAP
7FFFFF200000008FFF40
7FFFFFB00000008FFF40
7FFFFFF50000008FFF40
7FFFFFFD0000008FFF40
7FFFFFFF7000008FFF40
7FFF8FFFE100008FFF40
7FFF3DFFF900008FFF40
7FFF35FFFF30008FFF40
7FFF40BFFFC0008FFF40
7FFF403FFFF5008FFF40
7FFF4009FFFD108FFF40
7FFF4001EFFF808FFF40
7FFF40007FFFF27FFF40
7FFF40000DFFFA7FFF40
7FFF400005FFFFAFFF40
7FFF400000BFFFFFFF40
7FFF4000003FFFFFFF40
7FFF40000009FFFFFF40
7FFF40000001EFFFFF40
7FFF400000006FFFFF40
ENDCHAR
STARTCHAR Xi
ENCODING 926
SWIDTH 570 0
DWIDTH 16 0
BBX 14 20 1 0
BITMAP
5FFFFFFFFFFFF5
5FFFFFFFFFFFF5
5FFFFFFFFFFFF5
27777777777772
00000000000000
00000000000000
00000000000000
00000000000000
03FFFFFFFFFF30
03FFFFFFFFFF30
03FFFFFFFFFF30
01777777777710
00000000000000
00000000000000
00000000000000
00000000000000
78888888888886
DFFFFFFFFFFFFD
DFFFFFFFFFFFFD
DFFFFFFFFFFFFD
ENDCHAR
STARTCHAR Omicron
ENCODING 927
SWIDTH 795 0
DWIDTH 22 0
BBX 20 20 1 0
BITMAP
0000017BDEFDC8300000
00008FFFFFFFFFFB2000
001BFFFFFFFFFFFFE300
009FFFFFC98AEFFFFD10
03FFFFD300001AFFFF80
0AFFFF30000000CFFFE0
0EFFFA000000005FFFF3
3FFFF5000000001FFFF7
4FFFF3000000000DFFF8
5FFFF2000000000CFFF9
5FFFF2000000000CFFF9
4FFFF3000000000DFFF8
2FFFF5000000001FFFF7
0EFFFA000000005FFFF3
0AFFFF30000000CFFFE0
03FFFFD300001BFFFF70
009FFFFFC99BFFFFFC10
000BFFFFFFFFFFFFD200
00008FFFFFFFFFFB1000
0000017BDEFEC8300000
ENDCHAR
STARTCHAR Pi
ENCODING 928
SWIDTH 745 0
DWIDTH 21 0
BBX 17 20 2 0
BITMAP
7FFFFFFFFFFFFFFF50
7FFFFFFFFFFFFFFF50
7FFFFFFFFFFFFFFF50
7FFFD8888888EFFF50
7FFFB0000000DFFF50
7FFFB0000000DFFF50
7FFFB0000000DFFF50
7FFFB0000000DFFF50
7FFFB0000000DFFF50
7FFFB0000000DFFF50
7FFFB0000000DFFF50
7FFFB0000000DFFF50
7FFFB0000000DFFF50
7FFFB0000000DFFF50
7FFFB0000000DFFF50
7FFFB0000000DFFF50
7FFFB0000000DFFF50
7FFFB0000000DFFF50
7FFFB0000000DFFF50
7FFFB0000000DFFF50
ENDCHAR
STARTCHAR Rho
ENCODING 929
SWIDTH 627 0
DWIDTH 18 0
BBX 15 20 2 0
BITMAP
7FFFFFFEDB710000
7FFFFFFFFFFE5000
7FFFFFFFFFFFF400
7FFFD779CFFFFC00
7FFFB00009FFFF20
7FFFB00002FFFF40
7FFFB00000FFFF50
7FFFB00002FFFF30
7FFFB0001BFFFF10
7FFFD789EFFFFA00
7FFFFFFFFFFFD200
7FFFFFFFFFFC2000
7FFFFFFEDA500000
7FFFB00000000000
7FFFB00000000000
7FFFB00000000000
7FFFB00000000000
7FFFB00000000000
7FFFB00000000000
7FFFB00000000000
ENDCHAR
STARTCHAR Sigma
ENCODING 931
SWIDTH 592 0
DWIDTH 17 0
BBX 15 20 1 0
BITMAP
CFFFFFFFFFFFFC00
CFFFFFFFFFFFFC00
CFFFFFFFFFFFFC00
7FFFF76777777600
08FFFD1000000000
008FFFD100000000
0008FFFD20000000
00008FFFD2000000
000008FFFD200000
000000BFFFB00000
000006FFFE200000
00005FFFE3000000
0003EFFF40000000
002EFFF500000000
02DFFF6000000000
1CFFF70000000000
BFFFC66778888850
EFFFFFFFFFFFFFA0
EFFFFFFFFFFFFFA0
EFFFFFFFFFFFFFA0
ENDCHAR
STARTCHAR Tau
ENCODING 932
SWIDTH 579 0
DWIDTH 16 0
BBX 16 20 0 0
BITMAP
7FFFFFFFFFFFFFFA
7FFFFFFFFFFFFFFA
7FFFFFFFFFFFFFFA
388888FFFFA88885
000000FFFF400000
000000FFFF400000
000000FFFF400000
000000FFFF400000
000000FFFF400000
000000FFFF400000
000000FFFF400000
000000FFFF400000
000000FFFF400000
000000FFFF400000
000000FFFF400000
000000FFFF400000
000000FFFF400000
000000FFFF400000
000000FFFF400000
000000FFFF400000
ENDCHAR
STARTCHAR Upsilon
ENCODING 933
SWIDTH 624 0
DWIDTH 17 0
BBX 18 20 0 0
BITMAP
BFFFD00000005FFFF3
3FFFF5000000DFFFA0
0AFFFD000005FFFF20
02FFFF50000DFFF900
009FFFD0006FFFE100
001EFFF500DFFF7000
0008FFFD06FFFE1000
0001EFFF6DFFF60000
00007FFFFFFFD00000
00000DFFFFFF500000
000006FFFFFC000000
000000CFFFF3000000
0000006FFFD0000000
0000006FFFD0000000
0000006FFFD0000000
0000006FFFD0000000
0000006FFFD0000000
0000006FFFD0000000
0000006FFFD0000000
0000006FFFD0000000
ENDCHAR
STARTCHAR Phi
ENCODING 934
SWIDTH 859 0
DWIDTH 24 0
BBX 22 20 1 0
BITMAP
000000000DFFE000000000
000000000DFFE000000000
000038CEFFFFFFEC930000
001AFFFFFFFFFFFFFFA100
01CFFFFFFFFFFFFFFFFD10
0AFFFFB65EFFF56BFFFFB0
2FFFF6000DFFE0005FFFF3
7FFFA0000DFFE00009FFF8
9FFF50000DFFE00004FFFA
BFFF40000DFFE00003FFFC
AFFF50000DFFE00004FFFB
7FFFB0000DFFE00009FFF8
2FFFF7000DFFE0006FFFF3
08FFFFB64EFFF46BFFFF90
00BFFFFFFFFFFFFFFFFC00
0008FFFFFFFFFFFFFF9100
000027BDFFFFFFDC820000
000000000DFFE000000000
000000000DFFE000000000
000000000DFFE000000000
ENDCHAR
STARTCHAR Chi
ENCODING 935
SWIDTH 666 0
DWIDTH 19 0
BBX 19 20 0 0
BITMAP
4FFFF60000000AFFFD00
09FFFE1000004FFFF400
01EFFF900000CFFF9000
005FFFF30006FFFE1000
000AFFFC001EFFF50000
0002EFFF609FFFB00000
00006FFFE4FFFE200000
00000CFFFFFFF7000000
000002FFFFFFC0000000
0000008FFFFF30000000
000001DFFFFF50000000
000008FFFFFFE1000000
00003FFFFCFFFA000000
0000CFFF83FFFF500000
0007FFFD108FFFE10000
002FFFF5001DFFFA0000
00BFFFA00005FFFF5000
06FFFE200000AFFFE100
1EFFF70000002EFFFA00
AFFFD000000007FFFF50
ENDCHAR
STARTCHAR Psi
ENCODING 936
SWIDTH 875 0
DWIDTH 25 0
BBX 23 20 1 0
BITMAP
8FFF70000AFFF30000EFFF10
8FFF70000AFFF30000EFFF10
8FFF70000AFFF30000EFFF10
8FFF70000AFFF30000EFFF10
8FFF70000AFFF30000EFFF10
8FFF70000AFFF30000EFFF10
8FFF70000AFFF30000EFFF10
7FFF70000AFFF30000FFFF00
6FFFA0000AFFF30002FFFE00
3FFFF2000AFFF3000AFFFA00
0DFFFD620AFFF314AFFFF600
05FFFFFFFFFFFFFFFFFFD000
008FFFFFFFFFFFFFFFFD2000
0004BFFFFFFFFFFFFE810000
000001456CFFF86520000000
000000000AFFF30000000000
000000000AFFF30000000000
000000000AFFF30000000000
000000000AFFF30000000000
000000000AFFF30000000000
ENDCHAR
STARTCHAR uni03A9
ENCODING 937
SWIDTH 786 0
DWIDTH 22 0
BBX 22 20 0 0
BITMAP
00000038CEFFDB83000000
00001AFFFFFFFFFFB20000
0003EFFFFFFFFFFFFE3000
002DFFFFFB99BFFFFFE200
00AFFFFB100001BFFFFA00
01FFFFC00000000CFFFF10
05FFFF5000000004FFFF50
07FFFF1000000000FFFF70
07FFFE0000000000DFFF70
07FFFD0000000000DFFF70
04FFFE0000000000FFFF40
01FFFF1000000001FFFF10
00AFFF5000000006FFF900
002EFFB00000000CFFE200
0005FFF70000007FFF5000
00006FFF800007FFE50000
28888BFFF7008FFFB88882
4FFFFFFFF7008FFFFFFFF4
4FFFFFFFF7008FFFFFFFF4
4FFFFFFFF7008FFFFFFFF4
ENDCHAR
STARTCHAR Iotadieresis
ENCODING 938
SWIDTH 331 0
DWIDTH 9 0
BBX 10 26 0 0
BITMAP
3981007950
DFF906FFF3
FFFB07FFF4
7ED402CEA0
0000000000
0000000000
007FFFB000
007FFFB000
007FFFB000
007FFFB000
007FFFB000
007FFFB000
007FFFB000
007FFFB000
007FFFB000
007FFFB000
007FFFB000
007FFFB000
007FFFB000
007FFFB000
007FFFB000
007FFFB000
007FFFB000
007FFFB000
007FFFB000
007FFFB000
ENDCHAR
STARTCHAR Upsilondieresis
ENCODING 939
SWIDTH 624 0
DWIDTH 17 0
BBX 18 26 0 0
BITMAP
000029920069600000
0000BFFB04FFF50000
0000DFFD05FFF60000
00005EE501BEB10000
000000000000000000
000000000000000000
BFFFD00000005FFFF3
3FFFF5000000DFFFA0
0AFFFD000005FFFF20
02FFFF50000DFFF900
009FFFD0006FFFE100
001EFFF500DFFF7000
0008FFFD06FFFE1000
0001EFFF6DFFF60000
00007FFFFFFFD00000
00000DFFFFFF500000
000006FFFFFC000000
000000CFFFF3000000
0000006FFFD0000000
0000006FFFD0000000
0000006FFFD0000000
0000006FFFD0000000
0000006FFFD0000000
0000006FFFD0000000
0000006FFFD0000000
0000006FFFD0000000
ENDCHAR
STARTCHAR alphatonos
ENCODING 940
SWIDTH 646 0
DWIDTH 18 0
BBX 17 22 1 0
BITMAP
0000000DFFE1000000
0000001FFF80000000
0000004FFE10000000
0000008FF700000000
000000DFC000000000
000000000000000000
000000000000000000
0004AEFEA303FFF600
009FFFFFFF59FFF100
07FFFFFFFFEEFFD000
1EFFFE868EFFFFB000
5FFFF30002EFFF9000
8FFFC000009FFF8000
AFFF9000006FFF8000
BFFF8000005FFF8000
AFFF9000006FFF8000
9FFFB000009FFF8000
5FFFF30001EFFF9000
1EFFFE757DFFFFF840
07FFFFFFFFDFFFFF80
00AFFFFFFE29FFFF80
0005BEFD81008DFE60
ENDCHAR
STARTCHAR epsilontonos
ENCODING 941
SWIDTH 555 0
DWIDTH 16 0
BBX 14 22 1 0
BITMAP
0000001FFFC000
0000003FFF5000
0000007FFD0000
000000BFF40000
000000FFA00000
00000000000000
00000000000000
0006ADEFEDB730
02DFFFFFFFFFF5
0CFFFFFFFFFFD0
1FFFE632348D70
1FFFA000000000
0CFFE620000000
02DFFFFFFF7000
003BFFFFFF7000
1AFFFFFEDD6000
9FFFB300000000
DFFF4000000002
DFFFD744457AE7
8FFFFFFFFFFFF7
09FFFFFFFFFFF7
0038BDEFFEC950
ENDCHAR
STARTCHAR etatonos
ENCODING 942
SWIDTH 657 0
DWIDTH 18 0
BBX 15 29 2 -7
BITMAP
0000000EFFE00000
0000001FFF700000
0000005FFE100000
0000009FF6000000
000000DFC0000000
0000000000000000
0000000000000000
CFF8028DEEC71000
CFFB3EFFFFFFD100
CFFFEFFFFFFFFA00
CFFFFE868EFFFF10
CFFFF30005FFFF30
CFFFA00000FFFF40
CFFF700000DFFF40
CFFF600000DFFF40
CFFF500000DFFF40
CFFF500000DFFF40
CFFF500000DFFF40
CFFF500000DFFF40
CFFF500000DFFF40
CFFF500000DFFF40
CFFF500000DFFF40
0000000000DFFF40
0000000000DFFF40
0000000000DFFF40
0000000000DFFF40
0000000000DFFF40
0000000000DFFF40
0000000000DFFF40
ENDCHAR
STARTCHAR iotatonos
ENCODING 943
SWIDTH 407 0
DWIDTH 11 0
BBX 9 22 2 0
BITMAP
00DFFE1000
01FFF80000
04FFE10000
08FF700000
0DFC000000
0000000000
0000000000
CFFF500000
CFFF500000
CFFF500000
CFFF500000
CFFF500000
CFFF500000
CFFF500000
CFFF500000
CFFF500000
CFFF500000
CFFF700000
AFFFE75790
6FFFFFFFC0
0CFFFFFFC0
017CEFDB50
ENDCHAR
STARTCHAR upsilondieresistonos
ENCODING 944
SWIDTH 645 0
DWIDTH 18 0
BBX 16 23 1 0
BITMAP
0000000AFFD00000
0000000CFF500000
0007931FFB497000
006FFD4FE2EFF600
007FFF3640FFF700
002CE700008EC200
0000000000000000
0000000000000000
1FFFF200007FFFB0
1FFFF200003FFFE0
1FFFF200000FFFF3
1FFFF200000DFFF5
1FFFF200000BFFF6
1FFFF200000AFFF7
1FFFF2000009FFF8
1FFFF200000AFFF8
0FFFF200000BFFF7
0EFFF400000EFFF4
0BFFFA00007FFFF1
07FFFFB659FFFFA0
01DFFFFFFFFFFE10
002DFFFFFFFFD300
00016BEFFDB60000
ENDCHAR
STARTCHAR alpha
ENCODING 945
SWIDTH 646 0
DWIDTH 18 0
BBX 17 15 1 0
BITMAP
0004AEFEA303FFF600
009FFFFFFF59FFF100
07FFFFFFFFEEFFD000
1EFFFE868EFFFFB000
5FFFF30002EFFF9000
8FFFC000009FFF8000
AFFF9000006FFF8000
BFFF8000005FFF8000
AFFF9000006FFF8000
9FFFB000009FFF8000
5FFFF30001EFFF9000
1EFFFE757DFFFFF840
07FFFFFFFFDFFFFF80
00AFFFFFFE29FFFF80
0005BEFD81008DFE60
ENDCHAR
STARTCHAR beta
ENCODING 946
SWIDTH 660 0
DWIDTH 18 0
BBX 16 28 2 -7
BITMAP
00039CEFEC940000
009FFFFFFFFFA100
09FFFFFFFFFFFA00
3FFFFC646DFFFF20
8FFFD00001EFFF50
BFFF800000CFFF50
CFFF600001EFFF20
CFFF50003BFFFA00
CFFF505FFFFF8000
CFFF505FFFD61000
CFFF505FFFFFF800
CFFF50256AFFFF80
CFFF5000007FFFF2
CFFF5000000EFFF6
CFFF5000000DFFF7
CFFF5000000FFFF7
CFFF6000007FFFF4
CFFFFB866AFFFFE1
CFFFFFFFFFFFFF60
CFFFFFFFFFFFF700
CFFF88CEFED93000
CFFF500000000000
CFFF500000000000
CFFF500000000000
CFFF500000000000
CFFF500000000000
CFFF500000000000
CFFF500000000000
ENDCHAR
STARTCHAR gamma
ENCODING 947
SWIDTH 567 0
DWIDTH 16 0
BBX 16 22 0 -7
BITMAP
CFFF80000009FFFB
6FFFD000000EFFF5
1EFFF300004FFFE0
09FFF800009FFF90
03FFFD0000EFFF30
00CFFF4004FFFC00
006FFF9009FFF600
001EFFD00EFFF100
0009FFF33FFFA000
0004FFF77FFF4000
0000DFFBBFFD0000
00007FFEEFF80000
00001FFFFFF20000
00000AFFFFB00000
000004FFFF600000
000005FFFF100000
000009FFFB000000
00000CFFF7000000
00001FFFF4000000
00004FFFF2000000
00006FFFF0000000
00007FFFE0000000
ENDCHAR
STARTCHAR delta
ENCODING 948
SWIDTH 619 0
DWIDTH 17 0
BBX 16 21 1 0
BITMAP
000028CEFEDA6100
0007FFFFFFFFFF80
003FFFFFFFFFFF50
008FFFC3236BFC00
008FFF8000002200
005FFFE300000000
000BFFFF81000000
0001CFFFFE710000
00001CFFFFFD3000
0007EFFFFFFFF400
01CFFFE9AFFFFE20
0BFFFD2006FFFF90
4FFFF30000AFFFE0
9FFFB000004FFFF1
BFFF9000004FFFF1
AFFFA000006FFFE0
8FFFF20001DFFFB0
3FFFFE867DFFFF50
08FFFFFFFFFFFB00
008FFFFFFFFFA100
00028CEFED940000
ENDCHAR
STARTCHAR epsilon
ENCODING 949
SWIDTH 555 0
DWIDTH 16 0
BBX 14 15 1 0
BITMAP
0006ADEFEDB730
02DFFFFFFFFFF5
0CFFFFFFFFFFD0
1FFFE632348D70
1FFFA000000000
0CFFE620000000
02DFFFFFFF7000
003BFFFFFF7000
1AFFFFFEDD6000
9FFFB300000000
DFFF4000000002
DFFFD744457AE7
8FFFFFFFFFFFF7
09FFFFFFFFFFF7
0038BDEFFEC950
ENDCHAR
STARTCHAR zeta
ENCODING 950
SWIDTH 498 0
DWIDTH 14 0
BBX 13 26 1 -5
BITMAP
0EFFFFFFFFFFB0
0EFFFFFFFFFFB0
0EFFFFFEFFFF90
0111111BFFF800
000001CFFF6000
00002DFFF60000
0001DFFF600000
000CFFF8000000
008FFFB0000000
03FFFF20000000
0BFFF800000000
2FFFF200000000
7FFFC000000000
AFFFA000000000
BFFF9000000000
AFFFA000000000
7FFFE300000000
2FFFFE84000000
07FFFFFFFB6100
006EFFFFFFFD20
00017BEFFFFF90
00000003AFFFC0
000000005FFFA0
00000000AFFF50
00000004FFFD00
0000001DFFF400
ENDCHAR
STARTCHAR eta
ENCODING 951
SWIDTH 657 0
DWIDTH 18 0
BBX 15 22 2 -7
BITMAP
CFF8028DEEC71000
CFFB3EFFFFFFD100
CFFFEFFFFFFFFA00
CFFFFE868EFFFF10
CFFFF30005FFFF30
CFFFA00000FFFF40
CFFF700000DFFF40
CFFF600000DFFF40
CFFF500000DFFF40
CFFF500000DFFF40
CFFF500000DFFF40
CFFF500000DFFF40
CFFF500000DFFF40
CFFF500000DFFF40
CFFF500000DFFF40
0000000000DFFF40
0000000000DFFF40
0000000000DFFF40
0000000000DFFF40
0000000000DFFF40
0000000000DFFF40
0000000000DFFF40
ENDCHAR
STARTCHAR theta
ENCODING 952
SWIDTH 618 0
DWIDTH 17 0
BBX 15 21 1 0
BITMAP
00005BDFEB600000
001CFFFFFFFD2000
00CFFFFFFFFFD100
06FFFE513CFFF900
0DFFF60002FFFF10
3FFFF10000BFFF60
6FFFC000007FFFA0
8FFFA000005FFFC0
AFFF9000004FFFE0
AFFFFFFFFFFFFFF0
BFFFFFFFFFFFFFF0
AFFFFFFFFFFFFFF0
AFFF9222225FFFE0
8FFF9000005FFFD0
5FFFB000007FFFA0
2FFFE00000AFFF70
0CFFF50001EFFF20
05FFFE413CFFFB00
00AFFFFFFFFFE200
001AFFFFFFFE3000
00005ADFEC710000
ENDCHAR
STARTCHAR iota
ENCODING 953
SWIDTH 407 0
DWIDTH 11 0
BBX 9 15 2 0
BITMAP
CFFF500000
CFFF500000
CFFF500000
CFFF500000
CFFF500000
CFFF500000
CFFF500000
CFFF500000
CFFF500000
CFFF500000
CFFF700000
AFFFE75790
6FFFFFFFC0
0CFFFFFFC0
017CEFDB50
ENDCHAR
STARTCHAR kappa
ENCODING 954
SWIDTH 620 0
DWIDTH 17 0
BBX 16 15 2 0
BITMAP
CFFF500001CFFF80
CFFF50000BFFFA00
CFFF50009FFFC100
CFFF5008FFFD1000
CFFF506FFFE20000
CFFF54FFFE300000
CFFF7EFFF5000000
CFFFFFFFF7000000
CFFFFFFFFF400000
CFFFFCAFFFE20000
CFFF900CFFFC0000
CFFF5002EFFF9000
CFFF50004FFFF600
CFFF500008FFFF30
CFFF500000BFFFD1
ENDCHAR
STARTCHAR lambda
ENCODING 955
SWIDTH 615 0
DWIDTH 17 0
BBX 18 21 0 0
BITMAP
04DEED810000000000
05FFFFFE2000000000
05FFFFFFD000000000
0398CFFFF600000000
000009FFFD00000000
000001EFFF40000000
0000009FFFA0000000
000000BFFFF1000000
000003FFFFF6000000
00000AFFFFFC000000
00002FFFFFFF300000
00008FFFDFFF800000
0001EFFE5FFFE00000
0007FFFA1EFFF50000
000EFFF409FFFB0000
006FFFD004FFFF2000
00DFFF6000DFFFA000
04FFFE10008FFFFB81
0BFFF800002FFFFFF1
3FFFF2000008FFFFF1
AFFFA00000006DFEB1
ENDCHAR
STARTCHAR uni03BC
ENCODING 956
SWIDTH 660 0
DWIDTH 18 0
BBX 15 22 2 -7
BITMAP
CFFF500000DFFF40
CFFF500000DFFF40
CFFF500000DFFF40
CFFF500000DFFF40
CFFF500000DFFF40
CFFF500000DFFF40
CFFF500000DFFF40
CFFF500000EFFF40
CFFF600000FFFF40
CFFF700003FFFF40
CFFFC0000AFFFF40
CFFFFB66BFFFFF40
CFFFFFFFFFDFFF40
CFFFFFFFFC4FFF40
CFFF6BEE910EFF40
CFFF400000000000
CFFF500000000000
CFFF500000000000
CFFF500000000000
CFFF500000000000
CFFF500000000000
CFFF500000000000
ENDCHAR
STARTCHAR nu
ENCODING 957
SWIDTH 595 0
DWIDTH 17 0
BBX 16 15 0 0
BITMAP
BFFF8000000AFFF8
5FFFD000000AFFF8
0EFFF400000BFFF7
09FFF900000CFFF6
03FFFE00000EFFF3
00CFFF50001FFFF1
007FFFA0005FFFC0
001FFFF100AFFF70
000AFFF601EFFF20
0004FFFB07FFF900
0000DFFF2EFFF200
00008FFFDFFF7000
00002FFFFFFB0000
00000BFFFFD10000
000005FFFE200000
ENDCHAR
STARTCHAR xi
ENCODING 958
SWIDTH 498 0
DWIDTH 14 0
BBX 13 26 1 -5
BITMAP
0EFFFFFFFFFF10
0EFFFFFFFFFF10
0EFFEFFFFFED10
0129EFF9310000
02EFFE30000000
09FFF700000000
0CFFF500000000
0BFFF800000000
06FFFF62000000
008FFFFFFFF500
0005FFFFFFF500
01AFFFFFEDD400
0BFFFB30000000
5FFFD000000000
9FFF9000000000
BFFF9000000000
9FFFD100000000
4FFFFD73000000
0AFFFFFFFB6100
008FFFFFFFFD20
00027BEFFFFF90
00000003AFFFC0
000000005FFFA0
00000000AFFF50
00000004FFFD00
0000001DFFF400
ENDCHAR
STARTCHAR omicron
ENCODING 959
SWIDTH 619 0
DWIDTH 17 0
BBX 16 15 1 0
BITMAP
00017BEFEC820000
004EFFFFFFFF6000
03FFFFFFFFFFF700
0DFFFE867DFFFF20
4FFFF30001DFFF80
8FFFB000007FFFD0
AFFF9000004FFFF0
BFFF8000003FFFF1
9FFF9000004FFFF0
8FFFC000007FFFD0
3FFFF40001DFFF90
0CFFFE857CFFFF30
02EFFFFFFFFFF800
003DFFFFFFFF8000
00016BDFEC820000
ENDCHAR
STARTCHAR pi
ENCODING 960
SWIDTH 738 0
DWIDTH 21 0
BBX 20 15 0 0
BITMAP
04CFFFFFFFFFFFFFFFFB
8FFFFFFFFFFFFFFFFFFB
AFFFFFFFFFFFFFFFFFFB
2339FFFB3333BFFF9332
0007FFFB0000AFFF7000
0007FFFB0000AFFF7000
0007FFFB0000AFFF7000
0007FFFB0000AFFF7000
0007FFFB0000AFFF7000
0007FFFB0000AFFF7000
0007FFFB0000AFFF8000
0007FFFB00009FFFD565
0007FFFB00006FFFFFF8
0007FFFB00001DFFFFF8
0007FFFB000002AEFDA3
ENDCHAR
STARTCHAR rho
ENCODING 961
SWIDTH 618 0
DWIDTH 17 0
BBX 15 22 1 -7
BITMAP
00005ADFEC820000
001BFFFFFFFF6000
00CFFFFFFFFFF600
06FFFFA67CFFFF20
0DFFF80001CFFF80
2FFFF100007FFFC0
4FFFE000004FFFE0
5FFFD000004FFFF0
5FFFD000004FFFF0
5FFFD000007FFFD0
5FFFE10001CFFFA0
5FFFFE867CFFFF40
5FFFFFFFFFFFFB00
5FFFFFFFFFFFC100
5FFFA4ADFEC60000
5FFFB00000000000
5FFFC00000000000
5FFFD00000000000
5FFFD00000000000
5FFFD00000000000
5FFFD00000000000
5FFFD00000000000
ENDCHAR
STARTCHAR sigma1
ENCODING 962
SWIDTH 498 0
DWIDTH 14 0
BBX 13 20 1 -5
BITMAP
00017BDFFDA610
004EFFFFFFFF90
03FFFFFFFFFF40
0CFFFF9679ED00
3FFFF600000200
6FFFE000000000
9FFFA000000000
AFFF8000000000
BFFF8000000000
AFFFB000000000
6FFFF600000000
1EFFFFD8510000
03EFFFFFFFB300
002AFFFFFFFF40
0000269DFFFFA0
000000007FFFC0
000000006FFF90
00000000BFFF40
00000004FFFC00
0000001DFFF400
ENDCHAR
STARTCHAR sigma
ENCODING 963
SWIDTH 652 0
DWIDTH 18 0
BBX 17 15 1 0
BITMAP
000049CEFFFFFFFFB0
003CFFFFFFFFFFFFB0
03EFFFFFFFFFFFFFB0
0CFFFE6216FFF41100
4FFFF30000BFFE1000
8FFFC000005FFF9000
AFFF9000002FFFE000
BFFF8000000FFFF300
AFFFA000001FFFF400
8FFFD000004FFFF300
4FFFF50000BFFFE100
0DFFFF967CFFFF8000
03FFFFFFFFFFFC1000
004EFFFFFFFFB20000
00017BEFED94000000
ENDCHAR
STARTCHAR tau
ENCODING 964
SWIDTH 538 0
DWIDTH 15 0
BBX 14 15 0 0
BITMAP
02BFFFFFFFFFFF
5FFFFFFFFFFFFF
7FFFFFFFFFFFFF
1222AFFF922222
00009FFF900000
00009FFF900000
00009FFF900000
00009FFF900000
00009FFF900000
00009FFF900000
00009FFFA00000
00007FFFF857A0
00003FFFFFFFF0
000009FFFFFFF0
0000006BEFEC70
ENDCHAR
STARTCHAR upsilon
ENCODING 965
SWIDTH 645 0
DWIDTH 18 0
BBX 16 15 1 0
BITMAP
1FFFF200007FFFB0
1FFFF200003FFFE0
1FFFF200000FFFF3
1FFFF200000DFFF5
1FFFF200000BFFF6
1FFFF200000AFFF7
1FFFF2000009FFF8
1FFFF200000AFFF8
0FFFF200000BFFF7
0EFFF400000EFFF4
0BFFFA00007FFFF1
07FFFFB659FFFFA0
01DFFFFFFFFFFE10
002DFFFFFFFFD300
00016BEFFDB60000
ENDCHAR
STARTCHAR phi
ENCODING 966
SWIDTH 791 0
DWIDTH 22 0
BBX 20 22 1 -7
BITMAP
001C4000006BEFEA5000
00BFF9100BFFFFFFFA00
05FFFE207FFFFFFFFF90
0DFFF600DFFF515FFFF3
3FFFD001FFFD0009FFF8
7FFF8002FFFB0004FFFC
AFFF4002FFFB0002FFFD
BFFF3002FFFB0002FFFD
AFFF5002FFFB0004FFFC
8FFF9002FFFB000AFFF8
3FFFF402FFFB006FFFF3
0BFFFF96FFFC4AFFFF80
01DFFFFFFFFFFFFFFA00
001AFFFFFFFFFFFE6000
000038CEFFFFDA610000
00000002FFFB00000000
00000002FFFB00000000
00000002FFFB00000000
00000002FFFB00000000
00000002FFFB00000000
00000002FFFB00000000
00000002FFFB00000000
ENDCHAR
STARTCHAR chi
ENCODING 967
SWIDTH 591 0
DWIDTH 17 0
BBX 18 22 -1 -7
BITMAP
03BEFD8000000BFFF7
04FFFFF900005FFFD0
04FFFFFF3000DFFF40
0398DFFF9007FFFA00
00001EFFE01EFFE200
000008FFF59FFF7000
000002FFFCFFFD0000
000000BFFFFFF40000
0000006FFFFFA00000
0000001EFFFE200000
0000002FFFFA000000
000000BFFFFE100000
000004FFFFFF600000
00000DFFFEFFC00000
00006FFF9AFFF30000
0001EFFF25FFF90000
0008FFF801EFFE1000
002FFFE100AFFF8000
00AFFF80005FFFFA87
04FFFE10000DFFFFFB
0CFFF8000004FFFFFB
6FFFE10000003BEFD8
ENDCHAR
STARTCHAR psi
ENCODING 968
SWIDTH 836 0
DWIDTH 23 0
BBX 21 28 1 -7
BITMAP
000000001FFFC000000000
000000001FFFC000000000
000000001FFFC000000000
000000001FFFC000000000
000000001FFFC000000000
000000001FFFC000000000
1FFFE0001FFFC000DFFF10
1FFFE0001FFFC0009FFF40
1FFFE0001FFFC0006FFF70
1FFFE0001FFFC0003FFFA0
1FFFE0001FFFC0001FFFC0
1FFFE0001FFFC0000FFFD0
1FFFE0001FFFC0000EFFE0
1FFFE0001FFFC0000EFFE0
0FFFF0001FFFC0001FFFD0
0DFFF3001FFFC0004FFFA0
09FFFA001FFFC001DFFF50
02FFFFC65FFFD58EFFFD00
007FFFFFFFFFFFFFFFE300
0006EFFFFFFFFFFFFC2000
000016ADEFFFFEC8400000
000000001FFFC000000000
000000001FFFC000000000
000000001FFFC000000000
000000001FFFC000000000
000000001FFFC000000000
000000001FFFC000000000
000000001FFFC000000000
ENDCHAR
STARTCHAR omega
ENCODING 969
SWIDTH 862 0
DWIDTH 24 0
BBX 22 15 1 0
BITMAP
03FFFC0000000000AFFF50
08FFF600000000004FFFA0
0DFFF100000000000EFFF0
1FFFC0000000000009FFF4
4FFF90000000000006FFF7
6FFF60000DFFF00004FFF9
7FFF50000DFFF00003FFFA
8FFF50000DFFF00003FFFA
7FFF60000DFFF00003FFF9
5FFF80000EFFF10006FFF8
2FFFD1002FFFF4000CFFF5
0CFFFB55CFFFFD64AFFFE0
04FFFFFFFFCAFFFFFFFF60
006FFFFFFE32DFFFFFF900
0003ADFEA30029DFEA4000
ENDCHAR
STARTCHAR iotadieresis
ENCODING 970
SWIDTH 407 0
DWIDTH 11 0
BBX 11 21 0 0
BITMAP
299200597000
AFFC03FFF600
CFFE04FFF700
4EE600AEC100
000000000000
000000000000
00CFFF500000
00CFFF500000
00CFFF500000
00CFFF500000
00CFFF500000
00CFFF500000
00CFFF500000
00CFFF500000
00CFFF500000
00CFFF500000
00CFFF700000
00AFFFE75790
006FFFFFFFC0
000CFFFFFFC0
00017CEFDB50
ENDCHAR
STARTCHAR upsilondieresis
ENCODING 971
SWIDTH 645 0
DWIDTH 18 0
BBX 16 21 1 0
BITMAP
0001894004981000
0008FFE11EFF8000
0009FFF21FFFA000
0003DE8008ED3000
0000000000000000
0000000000000000
1FFFF200007FFFB0
1FFFF200003FFFE0
1FFFF200000FFFF3
1FFFF200000DFFF5
1FFFF200000BFFF6
1FFFF200000AFFF7
1FFFF2000009FFF8
1FFFF200000AFFF8
0FFFF200000BFFF7
0EFFF400000EFFF4
0BFFFA00007FFFF1
07FFFFB659FFFFA0
01DFFFFFFFFFFE10
002DFFFFFFFFD300
00016BEFFDB60000
ENDCHAR
STARTCHAR omicrontonos
ENCODING 972
SWIDTH 619 0
DWIDTH 17 0
BBX 16 22 1 0
BITMAP
00000009FFF30000
0000000CFFB00000
0000001FFF400000
0000005FFA000000
0000009FE2000000
0000000000000000
0000000000000000
00017BEFEC820000
004EFFFFFFFF6000
03FFFFFFFFFFF700
0DFFFE867DFFFF20
4FFFF30001DFFF80
8FFFB000007FFFD0
AFFF9000004FFFF0
BFFF8000003FFFF1
9FFF9000004FFFF0
8FFFC000007FFFD0
3FFFF40001DFFF90
0CFFFE857CFFFF30
02EFFFFFFFFFF800
003DFFFFFFFF8000
00016BDFEC820000
ENDCHAR
STARTCHAR upsilontonos
ENCODING 973
SWIDTH 645 0
DWIDTH 18 0
BBX 16 22 1 0
BITMAP
00000007FFF60000
0000000AFFD00000
0000000DFF600000
0000002FFC000000
0000007FF4000000
0000000000000000
0000000000000000
1FFFF200007FFFB0
1FFFF200003FFFE0
1FFFF200000FFFF3
1FFFF200000DFFF5
1FFFF200000BFFF6
1FFFF200000AFFF7
1FFFF2000009FFF8
1FFFF200000AFFF8
0FFFF200000BFFF7
0EFFF400000EFFF4
0BFFFA00007FFFF1
07FFFFB659FFFFA0
01DFFFFFFFFFFE10
002DFFFFFFFFD300
00016BEFFDB60000
ENDCHAR
STARTCHAR omegatonos
ENCODING 974
SWIDTH 862 0
DWIDTH 24 0
BBX 22 22 1 0
BITMAP
00000000005FFF80000000
00000000008FFF10000000
0000000000BFF900000000
0000000001FFE100000000
0000000004FF6000000000
0000000000000000000000
0000000000000000000000
03FFFC0000000000AFFF50
08FFF600000000004FFFA0
0DFFF100000000000EFFF0
1FFFC0000000000009FFF4
4FFF90000000000006FFF7
6FFF60000DFFF00004FFF9
7FFF50000DFFF00003FFFA
8FFF50000DFFF00003FFFA
7FFF60000DFFF00003FFF9
5FFF80000EFFF10006FFF8
2FFFD1002FFFF4000CFFF5
0CFFFB55CFFFFD64AFFFE0
04FFFFFFFFCAFFFFFFFF60
006FFFFFFE32DFFFFFF900
0003ADFEA30029DFEA4000
ENDCHAR
STARTCHAR uni03D1
ENCODING 977
SWIDTH 731 0
DWIDTH 21 0
BBX 20 21 0 0
BITMAP
0000004ADFED93000000
000008FFFFFFFF800000
00005FFFFFFFFFF80000
0000BFFFB33AFFFF3000
0000DFFF4000AFFFB000
0000DFFF50002FFFF100
00009FFFD1000BFFF500
00003FFFFE7318FFF900
000007FFFFFFFFFFFFFA
0000005EFFFFFFFFFFFA
04ADFD616ADFFFFFFFFA
4FFFFFF2000026FFFE21
0DFFFFF4000005FFFE00
055AFFF4000006FFFD00
0007FFF3000009FFFB00
0008FFF200000DFFF700
0008FFF400007FFFF200
0008FFFD645AFFFFA000
0003FFFFFFFFFFFD1000
00008FFFFFFFFFB10000
000004ADEFEC94000000
ENDCHAR
STARTCHAR uni03D2
ENCODING 978
SWIDTH 630 0
DWIDTH 18 0
BBX 18 20 0 0
BITMAP
BFFFC000000008DFE6
3FFFF5000000AFFFF9
0AFFFC000005FFFFF9
02FFFF50000DFFFC64
009FFFC0006FFFE100
001EFFF500DFFF5000
0008FFFC06FFFB0000
0001EFFF5DFFF30000
00006FFFEFFFA00000
00000DFFFFFF300000
000005FFFFFA000000
000000CFFFF4000000
0000006FFFE0000000
0000005FFFD0000000
0000005FFFD0000000
0000005FFFD0000000
0000005FFFD0000000
0000005FFFD0000000
0000005FFFD0000000
0000005FFFD0000000
ENDCHAR
STARTCHAR uni03D6
ENCODING 982
SWIDTH 999 0
DWIDTH 28 0
BBX 28 15 0 0
BITMAP
02AFFFFFFFFFFFFFFFFFFFFFFFF4
3EFFFFFFFFFFFFFFFFFFFFFFFFF4
4FFFFFFFFFFFFFFFFFFFFFFFFFF4
1222DFFF222222222222FFFD2221
0001FFFB000000000000BFFF1000
0004FFF80000000000007FFF5000
0006FFF60000000000005FFF7000
0008FFF40000EFFE00004FFF8000
0008FFF40000EFFE00004FFF9000
0007FFF60000FFFF00006FFF8000
0005FFFB0003FFFF3000BFFF5000
0001EFFFA55DFFFFD55AFFFF1000
00008FFFFFFFFBBFFFFFFFF80000
00000AFFFFFFE32EFFFFFFB00000
0000005BEFDA20029DFEB5000000
ENDCHAR
STARTCHAR uni0400
ENCODING 1024
SWIDTH 560 0
DWIDTH 16 0
BBX 12 26 2 0
BITMAP
2DFFFB000000
01AFFF900000
0006EFF70000
00002CFF6000
000000000000
000000000000
7FFFFFFFFFFF
7FFFFFFFFFFF
7FFFFFFFFFFF
7FFFD7777777
7FFFB0000000
7FFFB0000000
7FFFB0000000
7FFFB0000000
7FFFFFFFFFF8
7FFFFFFFFFF8
7FFFFFFFFFF8
7FFFD7777774
7FFFB0000000
7FFFB0000000
7FFFB0000000
7FFFB0000000
7FFFD8888888
7FFFFFFFFFFF
7FFFFFFFFFFF
7FFFFFFFFFFF
ENDCHAR
STARTCHAR afii10023
ENCODING 1025
SWIDTH 560 0
DWIDTH 16 0
BBX 12 26 2 0
BITMAP
006960029920
04FFF40BFFC0
05FFF60CFFE0
01BEB105EE60
000000000000
000000000000
7FFFFFFFFFFF
7FFFFFFFFFFF
7FFFFFFFFFFF
7FFFD7777777
7FFFB0000000
7FFFB0000000
7FFFB0000000
7FFFB0000000
7FFFFFFFFFF8
7FFFFFFFFFF8
7FFFFFFFFFF8
7FFFD7777774
7FFFB0000000
7FFFB0000000
7FFFB0000000
7FFFB0000000
7FFFD8888888
7FFFFFFFFFFF
7FFFFFFFFFFF
7FFFFFFFFFFF
ENDCHAR
STARTCHAR afii10051
ENCODING 1026
SWIDTH 805 0
DWIDTH 23 0
BBX 22 20 0 0
BITMAP
7FFFFFFFFFFFFFFC000000
7FFFFFFFFFFFFFFC000000
7FFFFFFFFFFFFFFC000000
38888BFFFE888886000000
000006FFFC000000000000
000006FFFC000000000000
000006FFFC000000000000
000006FFFFFFFFFEC92000
000006FFFFFFFFFFFFF700
000006FFFFFFFFFFFFFF40
000006FFFE88888BFFFFB0
000006FFFC0000007FFFF0
000006FFFC0000003FFFF1
000006FFFC0000003FFFF1
000006FFFC0000003FFFF1
000006FFFC0000005FFFE0
000006FFFC004B87DFFFB0
000006FFFC004FFFFFFF50
000006FFFC004FFFFFF900
000006FFFC002BEFEB5000
ENDCHAR
STARTCHAR afii10052
ENCODING 1027
SWIDTH 561 0
DWIDTH 16 0
BBX 14 26 2 0
BITMAP
0000000CFFFC10
000000AFFF9100
000008FFE50000
00006FFB200000
00000000000000
00000000000000
7FFFFFFFFFFFF2
7FFFFFFFFFFFF2
7FFFFFFFFFFFF2
7FFFD888888881
7FFFB000000000
7FFFB000000000
7FFFB000000000
7FFFB000000000
7FFFB000000000
7FFFB000000000
7FFFB000000000
7FFFB000000000
7FFFB000000000
7FFFB000000000
7FFFB000000000
7FFFB000000000
7FFFB000000000
7FFFB000000000
7FFFB000000000
7FFFB000000000
ENDCHAR
STARTCHAR afii10053
ENCODING 1028
SWIDTH 676 0
DWIDTH 19 0
BBX 17 20 1 0
BITMAP
00000049CEFEDB7200
00004CFFFFFFFFFFA0
0006FFFFFFFFFFFF80
005FFFFFC98ACFFF10
01EFFFD30000027800
08FFFE100000000000
0DFFF7000000000000
2FFFF3000000000000
4FFFFFFFFFFFFB0000
5FFFFFFFFFFFFB0000
5FFFFFFFFFFFFB0000
4FFFF8777777750000
3FFFF4000000000000
0EFFF8000000000000
0AFFFE200000000000
03FFFFD30000002620
009FFFFFC989BDFF40
000BFFFFFFFFFFFF40
00008EFFFFFFFFFF30
0000017ADEFEDB8300
ENDCHAR
STARTCHAR afii10054
ENCODING 1029
SWIDTH 550 0
DWIDTH 15 0
BBX 14 20 1 0
BITMAP
00039DEFEC8400
009FFFFFFFFFD1
09FFFFFFFFFFC0
2FFFFE98ADFF50
6FFFE100003800
7FFFB000000000
6FFFE200000000
2FFFFE60000000
09FFFFFD710000
00AFFFFFFE5000
0006DFFFFFF900
000006DFFFFF80
00000006EFFFE1
000000003FFFF4
000000000DFFF4
AA4000003FFFF2
BFFEA88AFFFFD0
BFFFFFFFFFFF40
AFFFFFFFFFE500
049CEFFEB71000
ENDCHAR
STARTCHAR afii10055
ENCODING 1030
SWIDTH 331 0
DWIDTH 9 0
BBX 5 20 2 0
BITMAP
7FFFB0
7FFFB0
7FFFB0
7FFFB0
7FFFB0
7FFFB0
7FFFB0
7FFFB0
7FFFB0
7FFFB0
7FFFB0
7FFFB0
7FFFB0
7FFFB0
7FFFB0
7FFFB0
7FFFB0
7FFFB0
7FFFB0
7FFFB0
ENDCHAR
STARTCHAR afii10056
ENCODING 1031
SWIDTH 331 0
DWIDTH 9 0
BBX 10 26 0 0
BITMAP
3981007950
DFF906FFF3
FFFB07FFF4
7ED402CEA0
0000000000
0000000000
007FFFB000
007FFFB000
007FFFB000
007FFFB000
007FFFB000
007FFFB000
007FFFB000
007FFFB000
007FFFB000
007FFFB000
007FFFB000
007FFFB000
007FFFB000
007FFFB000
007FFFB000
007FFFB000
007FFFB000
007FFFB000
007FFFB000
007FFFB000
ENDCHAR
STARTCHAR afii10057
ENCODING 1032
SWIDTH 331 0
DWIDTH 9 0
BBX 10 26 -3 -6
BITMAP
000007FFFB
000007FFFB
000007FFFB
000007FFFB
000007FFFB
000007FFFB
000007FFFB
000007FFFB
000007FFFB
000007FFFB
000007FFFB
000007FFFB
000007FFFB
000007FFFB
000007FFFB
000007FFFB
000007FFFB
000007FFFB
000007FFFB
000008FFFB
00000AFFF9
00003FFFF6
1B9AEFFFF2
1FFFFFFF90
1FFFFFFB10
1CEFEB5000
ENDCHAR
STARTCHAR afii10058
ENCODING 1033
SWIDTH 999 0
DWIDTH 28 0
BBX 27 20 0 0
BITMAP
000005FFFFFFFFFFF60000000000
000007FFFFFFFFFFF60000000000
000009FFFFFFFFFFF60000000000
00000BFFF9888EFFF60000000000
00000DFFF1000CFFF60000000000
00001FFFF0000CFFF60000000000
00003FFFD0000CFFF60000000000
00005FFFB0000CFFF60000000000
00007FFF90000CFFFFFFEB820000
0000AFFF70000CFFFFFFFFFF8000
0000CFFF50000CFFFFFFFFFFF900
0000FFFF20000CFFFA78AEFFFF30
0002FFFF00000CFFF60002EFFF80
0005FFFC00000CFFF60000AFFFA0
0009FFF900000CFFF60000AFFFA0
001EFFF500000CFFF60003EFFF80
88CFFFF100000CFFFA78AFFFFF30
CFFFFF9000000CFFFFFFFFFFF900
CFFFFD1000000CFFFFFFFFFF9000
9EFD910000000CFFFFFEEB820000
ENDCHAR
STARTCHAR afii10059
ENCODING 1034
SWIDTH 1001 0
DWIDTH 28 0
BBX 25 20 2 0
BITMAP
7FFFB000000BFFF80000000000
7FFFB000000BFFF80000000000
7FFFB000000BFFF80000000000
7FFFB000000BFFF80000000000
7FFFB000000BFFF80000000000
7FFFB000000BFFF80000000000
7FFFB000000BFFF80000000000
7FFFB000000BFFF80000000000
7FFFFFFFFFFFFFFFFFEC830000
7FFFFFFFFFFFFFFFFFFFFF9000
7FFFFFFFFFFFFFFFFFFFFFFA00
7FFFD888888DFFFB78AEFFFF40
7FFFB000000BFFF80002DFFF90
7FFFB000000BFFF800009FFFB0
7FFFB000000BFFF800009FFFB0
7FFFB000000BFFF80002EFFF90
7FFFB000000BFFFB78AEFFFF40
7FFFB000000BFFFFFFFFFFFB00
7FFFB000000BFFFFFFFFFFA100
7FFFB000000BFFFFFFEB830000
ENDCHAR
STARTCHAR afii10060
ENCODING 1035
SWIDTH 805 0
DWIDTH 23 0
BBX 22 20 0 0
BITMAP
7FFFFFFFFFFFFFFC000000
7FFFFFFFFFFFFFFC000000
7FFFFFFFFFFFFFFC000000
38888BFFFE888886000000
000006FFFC000000000000
000006FFFC000000000000
000006FFFC000000000000
000006FFFFFFFFFFDA3000
000006FFFFFFFFFFFFF700
000006FFFFFFFFFFFFFF40
000006FFFE88888AFFFFB0
000006FFFC0000006FFFF0
000006FFFC0000003FFFF1
000006FFFC0000003FFFF1
000006FFFC0000003FFFF1
000006FFFC0000003FFFF1
000006FFFC0000003FFFF1
000006FFFC0000003FFFF1
000006FFFC0000003FFFF1
000006FFFC0000003FFFF1
ENDCHAR
STARTCHAR afii10061
ENCODING 1036
SWIDTH 671 0
DWIDTH 19 0
BBX 17 26 2 0
BITMAP
000000004FFFF70000
00000002EFFE500000
0000001DFFB2000000
000000CFF700000000
000000000000000000
000000000000000000
7FFFB0000007FFFE20
7FFFB000003FFFF500
7FFFB00001DFFF8000
7FFFB0000AFFFB0000
7FFFB0006FFFE20000
7FFFB003FFFF400000
7FFFB01DFFF8000000
7FFFB09FFFB0000000
7FFFB6FFFD10000000
7FFFDEFFF500000000
7FFFCCFFFC00000000
7FFFB2EFFF80000000
7FFFB06FFFF4000000
7FFFB00AFFFE100000
7FFFB001DFFFB00000
7FFFB0004FFFF70000
7FFFB00008FFFF4000
7FFFB00000CFFFD100
7FFFB000002EFFFA00
7FFFB0000005FFFF70
ENDCHAR
STARTCHAR uni040D
ENCODING 1037
SWIDTH 823 0
DWIDTH 23 0
BBX 19 26 2 0
BITMAP
0002DFFFB00000000000
00001AFFF90000000000
0000006EFF7000000000
00000002CFF500000000
00000000000000000000
00000000000000000000
7FFF500000000CFFFF80
7FFF500000007FFFFF80
7FFF50000002EFFFFF80
7FFF5000000AFFFFFF80
7FFF5000004FFFEFFF80
7FFF500000DFFF7FFF80
7FFF500008FFFC2FFF80
7FFF50002FFFF32FFF80
7FFF5000BFFF903FFF80
7FFF5005FFFE104FFF80
7FFF501DFFF5004FFF80
7FFF408FFFB0004FFF80
7FFF43FFFF30004FFF80
7FFF3BFFF800004FFF80
7FFF8FFFD100004FFF80
7FFFFFFF5000004FFF80
7FFFFFFB0000004FFF80
7FFFFFF20000004FFF80
7FFFFF800000004FFF80
7FFFFD100000004FFF80
ENDCHAR
STARTCHAR afii10062
ENCODING 1038
SWIDTH 652 0
DWIDTH 18 0
BBX 19 27 0 0
BITMAP
003FFF800000EFFD0000
001FFFC00004FFFA0000
000AFFFB668EFFF30000
0001CFFFFFFFFF600000
000006BDFFEC82000000
00000000000000000000
00000000000000000000
BFFFB000000004FFFF10
4FFFF20000000AFFF900
0CFFF90000001FFFF300
04FFFF1000007FFFB000
00CFFF700000DFFF4000
005FFFE00004FFFD0000
000CFFF6000AFFF60000
0005FFFD001FFFE00000
0000DFFF407FFF800000
00006FFFB0DFFF100000
00000DFFF7FFF9000000
000006FFFFFFF3000000
000000DFFFFFB0000000
0000006FFFFF40000000
0000004FFFFC00000000
000001CFFFF500000000
1EA99EFFFFC000000000
1FFFFFFFFE2000000000
1FFFFFFFD30000000000
1BDFFDB6000000000000
ENDCHAR
STARTCHAR afii10145
ENCODING 1039
SWIDTH 745 0
DWIDTH 21 0
BBX 17 26 2 -6
BITMAP
7FFFB0000000DFFF50
7FFFB0000000DFFF50
7FFFB0000000DFFF50
7FFFB0000000DFFF50
7FFFB0000000DFFF50
7FFFB0000000DFFF50
7FFFB0000000DFFF50
7FFFB0000000DFFF50
7FFFB0000000DFFF50
7FFFB0000000DFFF50
7FFFB0000000DFFF50
7FFFB0000000DFFF50
7FFFB0000000DFFF50
7FFFB0000000DFFF50
7FFFB0000000DFFF50
7FFFB0000000DFFF50
7FFFD8888888EFFF50
7FFFFFFFFFFFFFFF50
7FFFFFFFFFFFFFFF50
7FFFFFFFFFFFFFFF50
0000009FFF70000000
0000009FFF70000000
0000009FFF70000000
0000009FFF70000000
0000009FFF70000000
0000009FFF70000000
ENDCHAR
STARTCHAR afii10017
ENCODING 1040
SWIDTH 689 0
DWIDTH 19 0
BBX 20 20 0 0
BITMAP
0000002FFFFF60000000
0000007FFFFFB0000000
000000CFFFFFF2000000
000003FFFCFFF7000000
000008FFF5EFFC000000
00000DFFF1AFFF300000
00004FFFB06FFF800000
00009FFF601FFFD00000
0000EFFF200CFFF40000
0004FFFC0007FFF90000
000AFFF80002FFFE0000
001EFFF30000DFFF5000
005FFFFFFFFFFFFFA000
00BFFFFFFFFFFFFFE100
01FFFFFFFFFFFFFFF500
06FFFF8888888DFFFB00
0CFFFB00000006FFFF10
2FFFF600000001FFFF60
7FFFF100000000BFFFC0
CFFFB0000000006FFFF2
ENDCHAR
STARTCHAR afii10018
ENCODING 1041
SWIDTH 638 0
DWIDTH 18 0
BBX 15 20 2 0
BITMAP
7FFFFFFFFFFFF200
7FFFFFFFFFFFF200
7FFFFFFFFFFFF200
7FFFD88888888100
7FFFB00000000000
7FFFB00000000000
7FFFB00000000000
7FFFB00000000000
7FFFFFFEDA610000
7FFFFFFFFFFE6000
7FFFFFFFFFFFF600
7FFFD779BFFFFF10
7FFFB00004FFFF60
7FFFB00000BFFF80
7FFFB00000CFFF80
7FFFB00005FFFF60
7FFFD778CFFFFF10
7FFFFFFFFFFFF700
7FFFFFFFFFFE7000
7FFFFFFEDA710000
ENDCHAR
STARTCHAR afii10019
ENCODING 1042
SWIDTH 671 0
DWIDTH 19 0
BBX 16 20 2 0
BITMAP
7FFFFFFFECA61000
7FFFFFFFFFFFE400
7FFFFFFFFFFFFF20
7FFFD7789EFFFF90
7FFFB00001DFFFC0
7FFFB000009FFFC0
7FFFB00000AFFFA0
7FFFB00027FFFF40
7FFFFFFFFFFFF800
7FFFFFFFFFFE5000
7FFFFFFFFFFFFB10
7FFFD5567BFFFFA0
7FFFB000008FFFF1
7FFFB000002FFFF4
7FFFB000003FFFF5
7FFFB00000AFFFF3
7FFFD8889DFFFFD0
7FFFFFFFFFFFFF50
7FFFFFFFFFFFE500
7FFFFFFFFEB71000
ENDCHAR
STARTCHAR afii10020
ENCODING 1043
SWIDTH 561 0
DWIDTH 16 0
BBX 14 20 2 0
BITMAP
7FFFFFFFFFFFF2
7FFFFFFFFFFFF2
7FFFFFFFFFFFF2
7FFFD888888881
7FFFB000000000
7FFFB000000000
7FFFB000000000
7FFFB000000000
7FFFB000000000
7FFFB000000000
7FFFB000000000
7FFFB000000000
7FFFB000000000
7FFFB000000000
7FFFB000000000
7FFFB000000000
7FFFB000000000
7FFFB000000000
7FFFB000000000
7FFFB000000000
ENDCHAR
STARTCHAR afii10021
ENCODING 1044
SWIDTH 764 0
DWIDTH 21 0
BBX 21 26 0 -6
BITMAP
0000008FFFFFFFFFFF3000
000000BFFFFFFFFFFF3000
000000DFFFFFFFFFFF3000
000001FFFE8888FFFF3000
000003FFFB0001FFFF3000
000007FFF80001FFFF3000
00000AFFF50001FFFF3000
00000EFFF20001FFFF3000
00003FFFD00001FFFF3000
00008FFF900001FFFF3000
0000DFFF500001FFFF3000
0003FFFE100001FFFF3000
0008FFFA000001FFFF3000
001EFFF5000001FFFF3000
007FFFE0000001FFFF3000
00DFFF80000001FFFF3000
79FFFFA8888888FFFF9870
DFFFFFFFFFFFFFFFFFFFD0
DFFFFFFFFFFFFFFFFFFFD0
DFFFFFFFFFFFFFFFFFFFD0
DFFF3000000000004FFFD0
DFFF3000000000004FFFD0
DFFF3000000000004FFFD0
DFFF3000000000004FFFD0
DFFF3000000000004FFFD0
DFFF3000000000004FFFD0
ENDCHAR
STARTCHAR afii10022
ENCODING 1045
SWIDTH 560 0
DWIDTH 16 0
BBX 12 20 2 0
BITMAP
7FFFFFFFFFFF
7FFFFFFFFFFF
7FFFFFFFFFFF
7FFFD7777777
7FFFB0000000
7FFFB0000000
7FFFB0000000
7FFFB0000000
7FFFFFFFFFF8
7FFFFFFFFFF8
7FFFFFFFFFF8
7FFFD7777774
7FFFB0000000
7FFFB0000000
7FFFB0000000
7FFFB0000000
7FFFD8888888
7FFFFFFFFFFF
7FFFFFFFFFFF
7FFFFFFFFFFF
ENDCHAR
STARTCHAR afii10024
ENCODING 1046
SWIDTH 942 0
DWIDTH 26 0
BBX 27 20 0 0
BITMAP
4FFFE200000CFFF300000AFFFA00
08FFFB00000CFFF300005FFFD100
00DFFF60000CFFF30001EFFF4000
003FFFE2000CFFF3000AFFF90000
0007FFFB000CFFF3005FFFD00000
0000BFFF600CFFF301EFFF300000
00002EFFE20CFFF30BFFF7000000
000006FFFB0CFFF36FFFB0000000
000000AFFF6CFFF4EFFE20000000
0000001FFFEDFFFDFFF700000000
0000008FFFCCFFF9FFFD10000000
000003FFFF3CFFF3BFFF90000000
00000DFFF70CFFF32EFFF4000000
00008FFFC00CFFF307FFFD100000
0004FFFF300CFFF300CFFFA00000
001DFFF8000CFFF3002FFFF50000
009FFFC0000CFFF30007FFFE1000
04FFFF30000CFFF30000CFFFA000
1EFFF800000CFFF300002FFFF600
AFFFD000000CFFF3000007FFFE20
ENDCHAR
STARTCHAR afii10025
ENCODING 1047
SWIDTH 647 0
DWIDTH 18 0
BBX 16 20 1 0
BITMAP
00059CEEFEC82000
17EFFFFFFFFFF800
7FFFFFFFFFFFFF80
0DFFEA767AFFFFF1
03C50000003FFFF4
00000000000DFFF4
00000000002FFFE1
0000001247EFFF50
0008FFFFFFFFD400
0008FFFFFFC60000
0008FFFFFFFFE810
000355568CFFFFC1
00000000003DFFF8
000000000005FFFD
000000000005FFFE
43000000001DFFFB
8FEA86557AEFFFF6
8FFFFFFFFFFFFFB0
8FFFFFFFFFFFF800
048BDEFFEDB72000
ENDCHAR
STARTCHAR afii10026
ENCODING 1048
SWIDTH 823 0
DWIDTH 23 0
BBX 19 20 2 0
BITMAP
7FFF500000000CFFFF80
7FFF500000007FFFFF80
7FFF50000002EFFFFF80
7FFF5000000AFFFFFF80
7FFF5000004FFFEFFF80
7FFF500000DFFF7FFF80
7FFF500008FFFC2FFF80
7FFF50002FFFF32FFF80
7FFF5000BFFF903FFF80
7FFF5005FFFE104FFF80
7FFF501DFFF5004FFF80
7FFF408FFFB0004FFF80
7FFF43FFFF30004FFF80
7FFF3BFFF800004FFF80
7FFF8FFFD100004FFF80
7FFFFFFF5000004FFF80
7FFFFFFB0000004FFF80
7FFFFFF20000004FFF80
7FFFFF800000004FFF80
7FFFFD100000004FFF80
ENDCHAR
STARTCHAR afii10027
ENCODING 1049
SWIDTH 823 0
DWIDTH 23 0
BBX 19 27 2 0
BITMAP
001FFFA00000BFFF1000
000DFFE10002FFFC0000
0007FFFC767EFFF60000
0000BFFFFFFFFF800000
000005ADEFEC93000000
00000000000000000000
00000000000000000000
7FFF500000000CFFFF80
7FFF500000007FFFFF80
7FFF50000002EFFFFF80
7FFF5000000AFFFFFF80
7FFF5000004FFFEFFF80
7FFF500000DFFF7FFF80
7FFF500008FFFC2FFF80
7FFF50002FFFF32FFF80
7FFF5000BFFF903FFF80
7FFF5005FFFE104FFF80
7FFF501DFFF5004FFF80
7FFF408FFFB0004FFF80
7FFF43FFFF30004FFF80
7FFF3BFFF800004FFF80
7FFF8FFFD100004FFF80
7FFFFFFF5000004FFF80
7FFFFFFB0000004FFF80
7FFFFFF20000004FFF80
7FFFFF800000004FFF80
7FFFFD100000004FFF80
ENDCHAR
STARTCHAR afii10028
ENCODING 1050
SWIDTH 671 0
DWIDTH 19 0
BBX 17 20 2 0
BITMAP
7FFFB0000007FFFE20
7FFFB000003FFFF500
7FFFB00001DFFF8000
7FFFB0000AFFFB0000
7FFFB0006FFFE20000
7FFFB003FFFF400000
7FFFB01DFFF8000000
7FFFB09FFFB0000000
7FFFB6FFFD10000000
7FFFDEFFF500000000
7FFFCCFFFC00000000
7FFFB2EFFF80000000
7FFFB06FFFF4000000
7FFFB00AFFFE100000
7FFFB001DFFFB00000
7FFFB0004FFFF70000
7FFFB00008FFFF4000
7FFFB00000CFFFD100
7FFFB000002EFFFA00
7FFFB0000005FFFF70
ENDCHAR
STARTCHAR afii10029
ENCODING 1051
SWIDTH 745 0
DWIDTH 21 0
BBX 19 20 0 0
BITMAP
000005FFFFFFFFFFFF50
000007FFFFFFFFFFFF50
000009FFFFFFFFFFFF50
00000BFFF98888EFFF50
00000DFFF10000DFFF50
00001FFFF00000DFFF50
00003FFFD00000DFFF50
00005FFFB00000DFFF50
00007FFF900000DFFF50
0000AFFF700000DFFF50
0000CFFF500000DFFF50
0000FFFF200000DFFF50
0002FFFF000000DFFF50
0005FFFC000000DFFF50
0009FFF9000000DFFF50
001EFFF5000000DFFF50
88CFFFF1000000DFFF50
CFFFFF90000000DFFF50
CFFFFD10000000DFFF50
9EFD9100000000DFFF50
ENDCHAR
STARTCHAR afii10030
ENCODING 1052
SWIDTH 942 0
DWIDTH 26 0
BBX 22 20 2 0
BITMAP
7FFFFF7000000001FFFFFD
7FFFFFB000000006FFFFFD
7FFFFFF10000000BFFFFFD
7FFFFFF50000001FFFFFFD
7FFFDFFA0000006FFEEFFD
7FFF9FFE000000AFFAEFFD
7FFF5FFF400001FFF5EFFD
7FFF3DFF900005FFE0FFFD
7FFF48FFE0000AFFA0FFFD
7FFF44FFF3001EFF51FFFD
7FFF40EFF8005FFE01FFFD
7FFF409FFD00AFFA01FFFD
7FFF405FFF21EFF501FFFD
7FFF401FFF75FFE101FFFD
7FFF400BFFCAFFA001FFFD
7FFF4006FFFEFF5001FFFD
7FFF4001FFFFFE1001FFFD
7FFF4000CFFFFA0001FFFD
7FFF40007FFFF50001FFFD
7FFF40003FFFF10001FFFD
ENDCHAR
STARTCHAR afii10031
ENCODING 1053
SWIDTH 765 0
DWIDTH 21 0
BBX 17 20 2 0
BITMAP
7FFFB00000005FFFD0
7FFFB00000005FFFD0
7FFFB00000005FFFD0
7FFFB00000005FFFD0
7FFFB00000005FFFD0
7FFFB00000005FFFD0
7FFFB00000005FFFD0
7FFFB00000005FFFD0
7FFFFFFFFFFFFFFFD0
7FFFFFFFFFFFFFFFD0
7FFFFFFFFFFFFFFFD0
7FFFD8888888AFFFD0
7FFFB00000005FFFD0
7FFFB00000005FFFD0
7FFFB00000005FFFD0
7FFFB00000005FFFD0
7FFFB00000005FFFD0
7FFFB00000005FFFD0
7FFFB00000005FFFD0
7FFFB00000005FFFD0
ENDCHAR
STARTCHAR afii10032
ENCODING 1054
SWIDTH 795 0
DWIDTH 22 0
BBX 20 20 1 0
BITMAP
0000017BDEFDC8300000
00008FFFFFFFFFFB2000
001BFFFFFFFFFFFFE300
009FFFFFC98AEFFFFD10
03FFFFD300001AFFFF80
0AFFFF30000000CFFFE0
0EFFFA000000005FFFF3
3FFFF5000000001FFFF7
4FFFF3000000000DFFF8
5FFFF2000000000CFFF9
5FFFF2000000000CFFF9
4FFFF3000000000DFFF8
2FFFF5000000001FFFF7
0EFFFA000000005FFFF3
0AFFFF30000000CFFFE0
03FFFFD300001BFFFF70
009FFFFFC99BFFFFFC10
000BFFFFFFFFFFFFD200
00008FFFFFFFFFFB1000
0000017BDEFEC8300000
ENDCHAR
STARTCHAR afii10033
ENCODING 1055
SWIDTH 745 0
DWIDTH 21 0
BBX 17 20 2 0
BITMAP
7FFFFFFFFFFFFFFF50
7FFFFFFFFFFFFFFF50
7FFFFFFFFFFFFFFF50
7FFFD8888888EFFF50
7FFFB0000000DFFF50
7FFFB0000000DFFF50
7FFFB0000000DFFF50
7FFFB0000000DFFF50
7FFFB0000000DFFF50
7FFFB0000000DFFF50
7FFFB0000000DFFF50
7FFFB0000000DFFF50
7FFFB0000000DFFF50
7FFFB0000000DFFF50
7FFFB0000000DFFF50
7FFFB0000000DFFF50
7FFFB0000000DFFF50
7FFFB0000000DFFF50
7FFFB0000000DFFF50
7FFFB0000000DFFF50
ENDCHAR
STARTCHAR afii10034
ENCODING 1056
SWIDTH 627 0
DWIDTH 18 0
BBX 15 20 2 0
BITMAP
7FFFFFFEDB710000
7FFFFFFFFFFE5000
7FFFFFFFFFFFF400
7FFFD779CFFFFC00
7FFFB00009FFFF20
7FFFB00002FFFF40
7FFFB00000FFFF50
7FFFB00002FFFF30
7FFFB0001BFFFF10
7FFFD789EFFFFA00
7FFFFFFFFFFFD200
7FFFFFFFFFFC2000
7FFFFFFEDA500000
7FFFB00000000000
7FFFB00000000000
7FFFB00000000000
7FFFB00000000000
7FFFB00000000000
7FFFB00000000000
7FFFB00000000000
ENDCHAR
STARTCHAR afii10035
ENCODING 1057
SWIDTH 637 0
DWIDTH 18 0
BBX 16 20 1 0
BITMAP
0000016BDFFDB720
00006EFFFFFFFFF9
0009FFFFFFFFFFF6
007FFFFFB99BFFE1
02FFFFD300001780
09FFFF3000000000
0EFFF90000000000
2FFFF40000000000
4FFFF10000000000
5FFFF00000000000
5FFFF00000000000
4FFFF10000000000
3FFFF30000000000
0EFFF80000000000
0AFFFE1000000000
04FFFFC200000161
00BFFFFFB98ADFF2
001DFFFFFFFFFFF2
0001AFFFFFFFFFF2
0000038CEFEDB830
ENDCHAR
STARTCHAR afii10036
ENCODING 1058
SWIDTH 579 0
DWIDTH 16 0
BBX 16 20 0 0
BITMAP
7FFFFFFFFFFFFFFA
7FFFFFFFFFFFFFFA
7FFFFFFFFFFFFFFA
388888FFFFA88885
000000FFFF400000
000000FFFF400000
000000FFFF400000
000000FFFF400000
000000FFFF400000
000000FFFF400000
000000FFFF400000
000000FFFF400000
000000FFFF400000
000000FFFF400000
000000FFFF400000
000000FFFF400000
000000FFFF400000
000000FFFF400000
000000FFFF400000
000000FFFF400000
ENDCHAR
ENDFONT
